<svg id="svg" version="1.1" xmlns="http://www.w3.org/2000/svg" xmlns:xlink="http://www.w3.org/1999/xlink" width="400" height="400" viewBox="0, 0, 400,400"><g id="svgg"><path id="path0" d="M194.400 36.800 C 194.400 37.020,193.691 37.200,192.824 37.200 C 191.957 37.200,191.136 37.380,191.000 37.600 C 190.864 37.820,190.268 38.004,189.676 38.009 C 189.084 38.014,188.150 38.370,187.600 38.800 C 187.050 39.230,186.195 39.586,185.700 39.591 C 185.205 39.596,184.800 39.780,184.800 40.000 C 184.800 40.220,184.575 40.400,184.300 40.400 C 184.025 40.401,183.260 40.866,182.600 41.434 C 181.940 42.003,180.797 42.948,180.061 43.534 C 177.665 45.441,176.606 51.192,178.115 54.100 C 178.756 55.337,182.185 58.800,182.768 58.800 C 183.006 58.800,183.200 58.980,183.200 59.200 C 183.200 59.420,183.483 59.600,183.829 59.600 C 184.174 59.600,184.727 59.870,185.057 60.200 C 185.387 60.530,185.464 60.800,185.229 60.800 C 184.993 60.800,184.800 61.030,184.800 61.312 C 184.800 61.593,184.440 62.083,184.000 62.400 C 183.560 62.717,183.200 63.209,183.200 63.492 C 183.200 63.775,182.660 64.572,182.000 65.263 C 181.340 65.954,180.800 66.762,180.800 67.059 C 180.800 67.357,180.620 67.600,180.400 67.600 C 180.180 67.600,180.000 67.960,180.000 68.400 C 180.000 68.840,179.817 69.200,179.594 69.200 C 179.371 69.200,178.835 69.785,178.404 70.500 C 177.323 72.290,176.688 73.207,176.100 73.820 C 175.825 74.108,175.600 74.586,175.600 74.883 C 175.600 75.180,175.240 75.683,174.800 76.000 C 174.360 76.317,174.000 76.975,174.000 77.461 C 174.000 77.965,173.687 78.445,173.273 78.577 C 172.873 78.704,172.300 79.436,171.999 80.204 C 171.697 80.972,171.304 81.600,171.125 81.600 C 170.946 81.600,170.800 81.851,170.800 82.158 C 170.800 82.464,170.260 83.293,169.600 84.000 C 168.940 84.707,168.400 85.592,168.400 85.967 C 168.400 86.342,168.080 86.998,167.690 87.425 C 166.565 88.653,165.200 91.173,165.200 92.023 C 165.200 92.450,165.020 92.800,164.800 92.800 C 164.580 92.800,164.400 92.984,164.400 93.209 C 164.400 93.433,163.914 94.352,163.320 95.250 C 161.290 98.317,158.453 106.670,158.423 109.667 C 158.410 110.913,158.212 111.996,157.981 112.073 C 157.372 112.276,157.326 120.509,157.933 120.711 C 158.190 120.797,158.400 121.551,158.400 122.387 C 158.400 123.908,159.518 128.023,160.034 128.400 C 160.184 128.510,160.708 129.455,161.198 130.500 C 161.687 131.545,162.248 132.400,162.444 132.400 C 162.640 132.400,162.800 132.670,162.800 133.000 C 162.800 133.329,163.520 134.341,164.400 135.248 C 165.280 136.155,166.000 137.069,166.000 137.280 C 166.000 137.490,166.743 138.377,167.652 139.250 C 169.300 140.833,169.187 141.934,167.370 141.987 C 164.955 142.059,164.903 146.046,167.313 146.327 C 167.911 146.396,168.400 146.621,168.400 146.827 C 168.400 147.032,168.760 147.200,169.200 147.200 C 169.640 147.200,170.000 147.380,170.000 147.600 C 170.000 147.820,170.540 148.000,171.200 148.000 L 172.400 148.000 172.400 154.956 L 172.400 161.912 170.900 162.152 C 170.075 162.284,168.590 162.497,167.600 162.625 C 164.126 163.075,162.774 164.177,162.883 166.467 C 162.979 168.484,162.269 169.200,160.175 169.200 C 159.225 169.200,158.336 169.380,158.200 169.600 C 158.064 169.820,157.513 170.000,156.976 170.000 C 156.439 170.000,156.000 170.180,156.000 170.400 C 156.000 170.620,155.460 170.800,154.800 170.800 C 154.140 170.800,153.600 170.980,153.600 171.200 C 153.600 171.420,153.071 171.600,152.424 171.600 C 151.777 171.600,151.136 171.780,151.000 172.000 C 150.864 172.220,150.439 172.400,150.055 172.400 C 149.190 172.400,146.400 174.901,146.400 175.676 C 146.400 176.486,148.983 179.200,149.754 179.200 C 150.109 179.200,150.401 179.335,150.403 179.500 C 150.408 179.947,152.426 180.800,153.480 180.800 C 153.986 180.800,154.400 180.980,154.400 181.200 C 154.400 181.420,155.120 181.600,156.000 181.600 C 156.880 181.600,157.600 181.780,157.600 182.000 C 157.600 182.220,158.374 182.400,159.320 182.400 C 160.266 182.400,161.211 182.551,161.420 182.735 C 161.989 183.238,166.779 184.000,169.367 184.000 L 171.642 184.000 171.565 189.611 C 171.523 192.697,171.333 195.318,171.144 195.435 C 170.955 195.552,170.800 199.316,170.800 203.800 C 170.800 208.284,170.640 212.052,170.444 212.173 C 169.907 212.504,169.543 214.937,169.334 219.592 C 169.230 221.898,168.994 223.968,168.809 224.192 C 168.625 224.416,168.412 226.732,168.337 229.338 C 168.262 231.944,168.065 234.159,167.900 234.262 C 167.735 234.364,167.600 235.787,167.600 237.424 C 167.600 239.061,167.440 240.400,167.245 240.400 C 166.824 240.400,166.415 242.168,166.134 245.200 C 166.021 246.410,165.765 247.571,165.565 247.780 C 165.364 247.989,165.200 249.103,165.200 250.256 C 165.200 251.409,165.020 252.464,164.800 252.600 C 164.580 252.736,164.400 253.659,164.400 254.652 C 164.400 255.690,164.155 256.702,163.824 257.033 C 163.507 257.350,163.124 258.462,162.973 259.505 C 162.822 260.547,162.564 261.580,162.400 261.800 C 162.089 262.216,161.716 263.876,161.328 266.578 C 161.203 267.446,160.853 268.404,160.551 268.707 C 160.248 269.009,160.000 269.506,160.000 269.810 C 160.000 271.319,159.065 272.400,157.759 272.400 C 157.038 272.400,156.336 272.580,156.200 272.800 C 156.064 273.020,155.603 273.200,155.176 273.200 C 154.749 273.200,154.400 273.380,154.400 273.600 C 154.400 273.820,153.680 274.000,152.800 274.000 C 151.920 274.000,151.200 274.180,151.200 274.400 C 151.200 274.620,150.741 274.800,150.180 274.800 C 148.941 274.800,147.129 275.701,145.564 277.095 L 144.400 278.132 144.400 287.680 C 144.400 298.136,144.477 297.750,141.800 300.697 C 138.576 304.247,136.898 305.917,135.897 306.573 C 135.293 306.969,134.800 307.541,134.800 307.846 C 134.800 308.151,134.648 308.400,134.461 308.400 C 134.275 308.400,133.745 308.715,133.283 309.100 C 132.822 309.485,131.858 310.250,131.142 310.800 C 130.425 311.350,129.070 312.565,128.130 313.500 C 127.190 314.435,126.312 315.200,126.179 315.200 C 126.046 315.200,125.246 315.920,124.400 316.800 C 123.554 317.680,122.641 318.400,122.369 318.400 C 122.098 318.400,121.191 319.120,120.354 320.000 C 119.517 320.880,118.555 321.600,118.216 321.600 C 117.877 321.600,117.600 321.780,117.600 322.000 C 117.600 322.220,117.336 322.400,117.014 322.400 C 116.692 322.400,116.235 322.760,116.000 323.200 C 115.765 323.640,115.308 324.000,114.986 324.000 C 114.664 324.000,114.400 324.180,114.400 324.400 C 114.400 324.620,114.151 324.800,113.847 324.800 C 112.621 324.800,111.996 328.317,112.916 330.040 C 113.374 330.898,113.951 331.600,114.199 331.600 C 114.446 331.600,115.052 331.975,115.545 332.434 L 116.440 333.269 115.420 334.289 C 114.859 334.850,114.400 335.511,114.400 335.758 C 114.400 336.005,114.040 336.432,113.600 336.707 C 113.160 336.982,112.800 337.565,112.800 338.003 C 112.800 338.442,112.661 338.800,112.491 338.800 C 111.913 338.800,111.200 343.967,111.200 348.159 C 111.200 352.302,111.831 356.400,112.469 356.400 C 112.651 356.400,112.800 356.694,112.800 357.053 C 112.800 357.412,113.117 357.997,113.505 358.353 C 113.893 358.709,114.658 359.677,115.205 360.505 C 115.752 361.332,116.695 362.231,117.300 362.502 C 117.905 362.773,118.400 363.131,118.400 363.298 C 118.400 363.464,118.760 363.600,119.200 363.600 C 119.640 363.600,120.000 363.780,120.000 364.000 C 120.000 364.220,120.349 364.400,120.776 364.400 C 121.203 364.400,121.664 364.580,121.800 364.800 C 121.963 365.064,148.311 365.200,199.544 365.200 C 277.632 365.200,279.184 365.175,279.197 363.900 C 279.199 363.735,279.605 363.596,280.100 363.591 C 280.595 363.586,281.450 363.230,282.000 362.800 C 282.550 362.370,283.195 362.014,283.432 362.009 C 283.670 362.004,284.118 361.505,284.427 360.900 C 284.736 360.295,285.486 359.369,286.094 358.842 C 286.703 358.315,287.200 357.550,287.200 357.142 C 287.200 356.734,287.380 356.400,287.600 356.400 C 287.820 356.400,288.000 355.871,288.000 355.224 C 288.000 354.577,288.180 353.936,288.400 353.800 C 288.638 353.653,288.800 351.137,288.800 347.600 C 288.800 344.063,288.638 341.547,288.400 341.400 C 288.180 341.264,288.000 340.702,288.000 340.150 C 288.000 339.018,287.382 337.692,286.437 336.796 C 284.867 335.307,284.687 334.404,285.788 333.538 C 288.349 331.523,288.748 325.600,286.323 325.600 C 286.111 325.600,285.246 324.880,284.400 324.000 C 283.554 323.120,282.669 322.400,282.431 322.400 C 282.194 322.400,282.000 322.115,282.000 321.767 C 282.000 321.418,281.786 321.205,281.524 321.292 C 281.262 321.379,280.340 320.764,279.475 319.925 C 278.611 319.086,277.731 318.400,277.520 318.400 C 277.310 318.400,276.446 317.680,275.600 316.800 C 274.754 315.920,273.884 315.200,273.665 315.200 C 273.446 315.200,273.207 315.058,273.133 314.885 C 273.060 314.712,272.200 313.947,271.223 313.185 C 270.246 312.423,268.878 311.260,268.183 310.600 C 265.070 307.642,263.139 306.000,262.771 306.000 C 262.115 306.000,259.731 303.408,259.905 302.885 C 259.999 302.602,259.832 302.490,259.505 302.615 C 259.163 302.746,258.761 302.432,258.479 301.813 C 258.224 301.253,257.450 300.174,256.759 299.415 C 254.429 296.854,254.400 296.698,254.400 286.712 L 254.400 277.515 253.313 276.658 C 251.654 275.350,250.424 274.800,249.154 274.800 C 248.519 274.800,248.000 274.620,248.000 274.400 C 248.000 274.180,247.375 274.000,246.612 274.000 C 245.849 274.000,244.583 273.640,243.800 273.200 C 243.017 272.760,241.874 272.400,241.262 272.400 C 240.095 272.400,238.800 270.511,238.800 268.810 C 238.800 268.390,238.620 267.936,238.400 267.800 C 238.180 267.664,238.000 267.106,238.000 266.560 C 238.000 265.427,236.428 260.302,235.988 260.000 C 235.828 259.890,235.595 259.080,235.469 258.200 C 235.343 257.320,235.051 255.610,234.819 254.400 C 234.588 253.190,234.296 251.390,234.170 250.400 C 233.956 248.711,233.590 247.549,232.753 245.905 C 232.559 245.523,232.400 244.139,232.400 242.829 C 232.400 241.519,232.220 240.336,232.000 240.200 C 231.777 240.062,231.600 238.204,231.600 236.000 C 231.600 233.796,231.423 231.938,231.200 231.800 C 230.980 231.664,230.800 229.954,230.800 228.000 C 230.800 226.046,230.620 224.336,230.400 224.200 C 230.180 224.064,230.000 223.423,230.000 222.776 C 230.000 222.129,229.820 221.600,229.600 221.600 C 229.359 221.600,229.200 219.933,229.200 217.400 C 229.200 215.090,229.039 213.200,228.842 213.200 C 228.645 213.200,228.372 209.645,228.236 205.300 C 228.100 200.955,227.890 194.610,227.769 191.200 L 227.549 185.000 228.654 184.500 C 229.262 184.225,231.084 184.000,232.703 184.000 C 235.642 184.000,238.783 183.479,240.095 182.773 C 240.477 182.568,241.512 182.400,242.395 182.400 C 243.278 182.400,244.000 182.220,244.000 182.000 C 244.000 181.780,244.720 181.600,245.600 181.600 C 246.480 181.600,247.200 181.420,247.200 181.200 C 247.200 180.980,247.794 180.800,248.520 180.800 C 249.899 180.800,251.991 180.017,251.997 179.500 C 251.999 179.335,252.360 179.200,252.800 179.200 C 253.240 179.200,253.600 179.020,253.600 178.800 C 253.600 178.580,253.793 178.400,254.029 178.400 C 254.588 178.400,255.506 177.471,255.652 176.760 C 255.860 175.737,255.194 174.000,254.592 174.000 C 254.267 174.000,254.000 173.820,254.000 173.600 C 254.000 173.380,253.730 173.200,253.400 173.200 C 253.070 173.200,252.800 173.020,252.800 172.800 C 252.800 172.580,252.451 172.400,252.024 172.400 C 251.597 172.400,251.136 172.220,251.000 172.000 C 250.864 171.780,250.324 171.600,249.800 171.600 C 249.276 171.600,248.736 171.420,248.600 171.200 C 248.464 170.980,247.733 170.800,246.976 170.800 C 246.219 170.800,245.600 170.620,245.600 170.400 C 245.600 170.180,245.251 170.000,244.824 170.000 C 244.397 170.000,243.936 169.820,243.800 169.600 C 243.664 169.380,242.753 169.200,241.776 169.200 C 240.799 169.200,240.000 169.020,240.000 168.800 C 240.000 168.580,239.730 168.400,239.400 168.400 C 238.939 168.400,238.800 167.887,238.800 166.187 C 238.800 164.432,238.655 163.929,238.100 163.751 C 237.715 163.628,237.040 163.374,236.600 163.186 C 235.835 162.860,234.485 162.637,230.300 162.146 C 229.042 161.998,228.400 161.733,228.400 161.361 C 228.400 161.053,228.220 160.800,228.000 160.800 C 227.391 160.800,227.476 151.084,228.090 150.470 C 228.477 150.083,228.477 149.815,228.090 149.195 C 227.381 148.060,227.436 148.000,229.200 148.000 C 230.080 148.000,230.800 147.820,230.800 147.600 C 230.800 147.380,231.239 147.200,231.776 147.200 C 232.313 147.200,232.864 147.020,233.000 146.800 C 233.136 146.580,233.597 146.400,234.024 146.400 C 234.525 146.400,234.800 146.125,234.800 145.624 C 234.800 145.197,234.983 144.734,235.207 144.596 C 235.732 144.271,234.147 142.000,233.396 142.000 C 232.240 142.000,232.442 141.189,233.992 139.609 C 234.876 138.706,235.600 137.795,235.600 137.584 C 235.600 137.373,235.876 137.200,236.213 137.200 C 236.549 137.200,236.945 136.885,237.092 136.500 C 237.239 136.115,237.684 135.451,238.080 135.025 C 238.476 134.598,238.800 134.111,238.800 133.943 C 238.800 133.774,239.235 133.201,239.767 132.669 C 240.299 132.137,240.911 131.061,241.128 130.277 C 241.344 129.492,241.899 128.445,242.361 127.950 C 242.822 127.455,243.200 126.633,243.200 126.125 C 243.200 125.616,243.380 125.200,243.600 125.200 C 243.820 125.200,244.000 124.491,244.000 123.624 C 244.000 122.757,244.189 121.931,244.419 121.788 C 244.710 121.609,244.704 121.366,244.400 121.000 C 244.096 120.634,244.090 120.391,244.381 120.212 C 244.923 119.877,244.940 112.134,244.400 111.800 C 244.180 111.664,244.000 110.764,244.000 109.800 C 244.000 108.836,243.820 107.936,243.600 107.800 C 243.380 107.664,243.200 106.967,243.200 106.252 C 243.200 105.504,242.860 104.586,242.400 104.092 C 241.960 103.620,241.600 102.859,241.600 102.401 C 241.600 101.498,239.065 95.620,237.977 94.000 C 237.607 93.450,237.180 92.596,237.026 92.102 C 236.873 91.609,236.534 90.972,236.274 90.687 C 235.740 90.103,235.045 88.941,233.830 86.600 C 233.374 85.720,232.685 84.709,232.300 84.353 C 231.915 83.997,231.600 83.530,231.600 83.315 C 231.600 82.570,230.310 80.340,229.756 80.128 C 229.450 80.010,229.200 79.651,229.200 79.329 C 229.200 78.555,228.219 77.600,227.424 77.600 C 227.076 77.600,222.182 82.211,216.549 87.847 C 209.963 94.436,206.201 97.926,206.013 97.622 C 205.309 96.482,207.067 93.200,208.382 93.200 C 208.612 93.200,208.800 92.852,208.800 92.427 C 208.800 92.002,209.160 91.540,209.600 91.400 C 210.040 91.260,210.400 90.990,210.400 90.800 C 210.400 90.610,210.760 90.340,211.200 90.200 C 211.640 90.060,212.000 89.760,212.000 89.534 C 212.000 89.041,214.331 86.800,214.842 86.800 C 215.039 86.800,215.200 86.612,215.200 86.382 C 215.200 85.832,217.042 84.000,217.594 84.000 C 217.831 84.000,218.146 83.685,218.293 83.301 C 218.636 82.408,220.236 80.800,220.782 80.800 C 221.012 80.800,221.200 80.639,221.200 80.442 C 221.200 79.943,223.436 77.600,223.912 77.600 C 224.127 77.600,224.527 77.060,224.800 76.400 C 225.073 75.740,225.455 75.200,225.649 75.200 C 225.842 75.200,226.000 74.930,226.000 74.600 C 226.000 74.270,225.820 74.000,225.600 74.000 C 225.380 74.000,225.200 73.722,225.200 73.383 C 225.200 73.044,224.825 72.369,224.366 71.883 C 223.907 71.397,223.251 70.460,222.907 69.800 C 222.563 69.140,221.948 68.309,221.541 67.953 C 221.133 67.597,220.800 67.147,220.799 66.953 C 220.799 66.759,220.259 65.970,219.600 65.200 C 218.941 64.430,218.401 63.615,218.401 63.388 C 218.400 63.162,218.040 62.717,217.600 62.400 C 217.160 62.083,216.800 61.593,216.800 61.312 C 216.800 61.030,216.607 60.800,216.371 60.800 C 216.136 60.800,216.213 60.530,216.543 60.200 C 216.873 59.870,217.342 59.600,217.586 59.600 C 217.829 59.600,218.427 59.239,218.914 58.797 C 219.401 58.355,220.340 57.566,221.000 57.043 C 224.017 54.653,225.265 49.658,223.640 46.484 C 222.844 44.928,219.167 41.200,218.429 41.200 C 218.193 41.200,218.000 41.020,218.000 40.800 C 218.000 40.580,217.730 40.400,217.400 40.400 C 217.070 40.400,216.800 40.220,216.800 40.000 C 216.800 39.780,216.440 39.600,216.000 39.600 C 215.560 39.600,215.200 39.420,215.200 39.200 C 215.200 38.980,214.761 38.800,214.224 38.800 C 213.687 38.800,213.136 38.620,213.000 38.400 C 212.864 38.180,212.223 38.000,211.576 38.000 C 210.929 38.000,210.400 37.820,210.400 37.600 C 210.400 37.380,209.680 37.200,208.800 37.200 C 207.920 37.200,207.200 37.020,207.200 36.800 C 207.200 36.550,204.800 36.400,200.800 36.400 C 196.800 36.400,194.400 36.550,194.400 36.800 M205.697 44.800 C 207.285 45.240,208.999 45.600,209.505 45.600 C 210.811 45.600,213.993 47.307,215.348 48.734 L 216.495 49.943 215.690 51.071 C 211.359 57.145,191.760 57.553,186.256 51.684 L 185.111 50.464 186.392 48.870 C 187.980 46.894,191.521 45.231,195.082 44.790 C 196.502 44.614,197.769 44.364,197.899 44.235 C 198.417 43.716,202.980 44.047,205.697 44.800 M208.603 63.782 C 209.555 64.762,210.451 65.932,210.594 66.382 C 210.737 66.832,210.979 67.200,211.133 67.200 C 211.286 67.200,211.856 67.920,212.400 68.800 C 212.944 69.680,213.526 70.400,213.694 70.400 C 213.862 70.400,214.000 70.597,214.000 70.838 C 214.000 71.079,214.380 71.810,214.844 72.462 L 215.688 73.647 213.344 76.225 C 212.055 77.644,209.200 80.767,207.000 83.166 C 197.476 93.552,197.463 93.572,197.442 97.200 C 197.394 105.631,209.002 109.522,214.059 102.769 C 214.577 102.078,216.575 99.892,218.500 97.911 C 220.425 95.931,222.000 94.146,222.000 93.946 C 222.000 93.378,225.244 90.000,225.789 90.000 C 226.666 90.000,227.324 91.006,231.157 98.200 C 233.620 102.823,235.181 106.892,235.879 110.505 C 235.996 111.113,236.251 111.708,236.446 111.829 C 236.937 112.132,236.895 119.894,236.400 120.200 C 236.180 120.336,236.000 121.031,236.000 121.744 C 236.000 122.457,235.849 123.211,235.664 123.420 C 235.479 123.629,235.091 124.430,234.800 125.200 C 233.974 127.390,231.421 130.596,226.414 135.731 L 221.800 140.463 218.200 140.173 C 213.350 139.782,187.823 139.792,183.713 140.186 L 180.427 140.501 175.413 135.374 C 172.656 132.554,170.400 130.033,170.400 129.772 C 170.400 129.511,170.106 129.054,169.746 128.755 C 168.726 127.909,167.200 125.303,167.200 124.408 C 167.200 123.964,167.053 123.600,166.873 123.600 C 164.809 123.600,164.796 110.510,166.858 108.220 C 167.046 108.011,167.200 107.511,167.200 107.109 C 167.200 106.707,168.100 104.408,169.200 102.000 C 170.300 99.592,171.200 97.443,171.200 97.225 C 171.200 97.007,171.712 96.237,172.339 95.514 C 172.965 94.791,173.796 93.354,174.185 92.320 C 174.575 91.285,175.247 90.119,175.680 89.728 C 176.112 89.336,176.698 88.460,176.982 87.780 C 177.267 87.100,178.017 85.767,178.649 84.817 C 179.282 83.868,180.476 82.080,181.302 80.845 C 182.128 79.610,183.298 77.819,183.902 76.865 C 184.506 75.911,185.405 74.651,185.900 74.065 C 186.394 73.479,186.811 72.820,186.826 72.600 C 186.841 72.380,187.426 71.455,188.127 70.545 C 188.827 69.635,190.258 67.745,191.307 66.345 C 194.903 61.548,193.914 62.000,200.805 62.000 L 206.871 62.000 208.603 63.782 M196.001 71.500 C 195.334 72.105,193.535 74.400,192.003 76.600 C 189.177 80.656,185.730 85.704,185.000 86.853 C 184.780 87.199,184.075 88.274,183.433 89.241 C 180.262 94.021,178.879 96.278,178.634 97.070 C 178.486 97.548,177.962 98.538,177.468 99.270 C 176.975 100.001,176.332 101.230,176.039 102.000 C 175.747 102.770,175.068 104.373,174.530 105.562 C 171.755 111.695,171.628 118.778,174.204 123.738 C 176.857 128.848,181.700 134.557,183.194 134.336 C 185.012 134.067,184.972 132.556,183.092 130.478 C 174.865 121.383,174.007 113.961,179.855 102.471 C 182.259 97.748,182.346 97.594,184.528 94.261 C 185.370 92.975,186.527 91.085,187.098 90.061 C 187.670 89.038,188.977 87.118,190.004 85.795 C 191.030 84.473,192.106 82.943,192.394 82.395 C 192.887 81.461,194.916 78.567,197.900 74.545 C 199.370 72.564,199.511 71.724,198.500 70.957 C 197.529 70.220,197.374 70.254,196.001 71.500 M219.250 149.267 C 219.799 150.133,219.683 162.157,219.120 162.720 C 218.429 163.411,181.571 163.411,180.880 162.720 C 180.303 162.143,180.198 150.325,180.761 149.274 C 181.248 148.362,218.672 148.355,219.250 149.267 M200.550 184.006 C 210.943 184.010,218.447 184.168,218.800 184.391 C 219.411 184.776,219.441 185.228,220.210 205.600 C 220.322 208.570,220.581 211.360,220.785 211.800 C 220.990 212.240,221.260 214.490,221.385 216.800 C 221.511 219.110,221.768 222.620,221.957 224.600 C 222.146 226.580,222.523 230.630,222.794 233.600 C 223.066 236.570,223.527 239.540,223.818 240.200 C 224.110 240.860,224.433 242.300,224.537 243.400 C 224.712 245.267,225.588 251.049,226.326 255.215 C 226.503 256.213,226.790 257.261,226.965 257.544 C 227.313 258.107,229.100 264.841,229.581 267.400 C 229.746 268.280,230.120 269.502,230.411 270.115 C 231.392 272.175,230.635 272.392,224.200 271.898 C 217.392 271.376,182.218 271.372,175.000 271.892 C 167.903 272.404,167.543 272.129,169.331 267.547 C 169.877 266.146,170.420 264.460,170.538 263.800 C 170.655 263.140,170.946 261.790,171.185 260.800 C 171.424 259.810,171.841 257.830,172.112 256.400 C 172.383 254.970,172.776 253.531,172.987 253.202 C 173.469 252.446,173.930 249.701,174.429 244.600 C 174.645 242.400,174.996 240.187,175.210 239.681 C 175.425 239.176,175.600 237.701,175.600 236.405 C 175.600 235.108,175.770 233.942,175.977 233.814 C 176.466 233.512,176.728 231.527,177.247 224.200 C 177.481 220.900,177.842 216.130,178.050 213.600 C 178.257 211.070,178.523 206.210,178.640 202.800 C 178.757 199.390,179.021 196.429,179.226 196.220 C 179.432 196.011,179.600 193.444,179.600 190.515 C 179.600 184.403,179.915 183.417,181.750 183.775 C 182.383 183.899,190.843 184.003,200.550 184.006 M217.000 277.980 C 227.706 278.574,230.515 278.807,231.400 279.176 C 233.801 280.175,237.811 280.863,241.916 280.979 C 245.440 281.078,246.539 282.160,246.507 285.496 C 246.469 289.568,242.266 295.186,239.239 295.213 C 238.448 295.220,237.451 295.490,237.024 295.813 C 236.574 296.153,235.379 296.400,234.183 296.400 C 233.048 296.400,231.598 296.579,230.960 296.797 C 226.364 298.372,176.036 298.389,168.711 296.818 C 167.638 296.588,166.004 296.394,165.080 296.386 C 164.156 296.378,162.950 296.114,162.400 295.800 C 161.850 295.486,160.786 295.222,160.036 295.214 C 156.444 295.177,152.804 290.819,152.801 286.554 C 152.799 281.434,154.651 280.308,164.000 279.752 C 165.650 279.653,167.362 279.392,167.804 279.170 C 168.707 278.718,171.206 278.533,182.267 278.100 C 186.484 277.935,190.083 277.651,190.264 277.470 C 190.643 277.090,206.373 277.391,217.000 277.980 M155.340 300.966 C 157.529 301.950,162.528 302.671,171.000 303.226 C 174.300 303.441,177.720 303.831,178.600 304.091 C 181.167 304.849,218.714 304.997,219.560 304.252 C 220.001 303.864,221.757 303.614,225.200 303.450 C 233.717 303.044,239.242 302.481,239.780 301.965 C 239.989 301.764,240.726 301.600,241.419 301.600 C 242.111 301.600,243.261 301.309,243.975 300.952 C 245.600 300.142,246.430 300.477,248.677 302.851 C 254.496 309.000,263.678 317.802,265.000 318.499 C 265.440 318.731,266.627 319.659,267.638 320.561 C 268.649 321.462,270.526 323.010,271.810 324.000 C 276.611 327.704,277.146 328.688,275.435 330.678 L 274.469 331.800 201.625 331.903 C 121.272 332.017,128.325 332.226,125.500 329.652 C 123.616 327.936,124.604 326.693,133.800 319.195 C 138.566 315.310,139.650 314.313,144.200 309.634 C 146.840 306.920,149.941 303.732,151.091 302.550 C 153.386 300.191,153.511 300.145,155.340 300.966 M157.357 307.263 C 156.893 307.487,156.213 308.240,155.844 308.936 C 152.751 314.770,147.185 320.489,140.991 324.200 C 137.292 326.416,136.066 327.752,136.557 329.031 C 136.805 329.680,139.415 329.823,139.794 329.210 C 139.927 328.995,141.062 328.161,142.318 327.355 C 143.573 326.550,145.590 325.253,146.800 324.474 C 155.139 319.102,164.535 303.783,157.357 307.263 M128.972 340.169 C 132.943 342.836,138.315 345.695,141.447 346.807 C 142.741 347.266,144.113 347.813,144.495 348.021 C 144.877 348.230,145.541 348.400,145.971 348.400 C 146.401 348.400,146.852 348.560,146.973 348.756 C 147.512 349.628,161.277 350.447,161.777 349.637 C 161.926 349.396,162.836 349.200,163.800 349.200 C 164.764 349.200,165.664 349.020,165.800 348.800 C 165.936 348.580,166.566 348.400,167.200 348.400 C 167.834 348.400,168.464 348.220,168.600 348.000 C 168.736 347.780,169.218 347.600,169.671 347.600 C 170.525 347.600,175.274 346.176,176.495 345.554 C 176.877 345.359,177.464 345.200,177.800 345.200 C 178.136 345.200,178.723 345.019,179.105 344.798 C 179.487 344.577,181.960 343.840,184.600 343.159 C 187.240 342.478,190.120 341.735,191.000 341.507 C 193.475 340.867,204.620 340.663,207.400 341.206 C 210.589 341.830,221.478 344.351,223.028 344.825 C 223.704 345.031,224.604 345.203,225.028 345.206 C 225.453 345.209,226.610 345.504,227.600 345.862 C 229.295 346.475,231.300 346.955,234.304 347.466 C 235.021 347.588,235.706 347.849,235.827 348.044 C 235.948 348.240,237.196 348.400,238.600 348.400 C 240.004 348.400,241.264 348.580,241.400 348.800 C 241.539 349.025,243.463 349.200,245.800 349.200 C 248.137 349.200,250.061 349.025,250.200 348.800 C 250.336 348.580,251.481 348.400,252.744 348.400 C 254.007 348.400,255.211 348.252,255.420 348.072 C 255.629 347.892,257.150 347.332,258.800 346.828 C 260.450 346.323,262.520 345.551,263.400 345.112 C 264.280 344.672,265.630 344.084,266.400 343.805 C 267.170 343.526,269.315 342.376,271.166 341.249 C 276.076 338.260,277.711 338.420,279.761 342.092 C 281.011 344.332,281.293 350.396,280.213 351.824 C 279.890 352.251,279.620 352.853,279.613 353.162 C 279.587 354.321,277.600 356.364,276.292 356.579 C 273.404 357.053,125.568 357.106,123.969 356.634 C 120.131 355.501,117.361 346.984,119.787 343.776 C 120.110 343.349,120.380 342.695,120.387 342.322 C 120.411 341.057,123.818 338.119,125.372 338.023 C 125.577 338.010,127.197 338.976,128.972 340.169 M172.191 338.840 C 173.062 339.691,171.731 340.587,168.889 341.063 C 167.332 341.324,165.190 341.927,164.129 342.404 C 162.016 343.354,150.567 343.744,149.498 342.903 C 149.224 342.687,147.719 342.128,146.153 341.660 C 142.027 340.427,141.051 338.660,144.278 338.264 C 147.000 337.931,171.784 338.442,172.191 338.840 M258.257 339.005 C 258.983 340.895,254.977 341.791,246.000 341.745 C 235.856 341.694,230.271 340.602,231.650 338.939 C 232.357 338.088,257.930 338.151,258.257 339.005 " stroke="none" fill="#f9f9f9" fill-rule="evenodd"></path><path id="path1" d="M197.899 44.235 C 197.769 44.364,196.502 44.614,195.082 44.790 C 191.521 45.231,187.980 46.894,186.392 48.870 L 185.111 50.464 186.256 51.684 C 191.760 57.553,211.359 57.145,215.690 51.071 L 216.495 49.943 215.348 48.734 C 213.993 47.307,210.811 45.600,209.505 45.600 C 208.999 45.600,207.285 45.240,205.697 44.800 C 202.980 44.047,198.417 43.716,197.899 44.235 M193.977 62.900 C 193.558 63.395,192.356 64.945,191.307 66.345 C 190.258 67.745,188.827 69.635,188.127 70.545 C 187.426 71.455,186.841 72.380,186.826 72.600 C 186.811 72.820,186.394 73.479,185.900 74.065 C 185.405 74.651,184.506 75.911,183.902 76.865 C 183.298 77.819,182.128 79.610,181.302 80.845 C 180.476 82.080,179.282 83.868,178.649 84.817 C 178.017 85.767,177.267 87.100,176.982 87.780 C 176.698 88.460,176.112 89.336,175.680 89.728 C 175.247 90.119,174.575 91.285,174.185 92.320 C 173.796 93.354,172.965 94.791,172.339 95.514 C 171.712 96.237,171.200 97.007,171.200 97.225 C 171.200 97.443,170.300 99.592,169.200 102.000 C 168.100 104.408,167.200 106.707,167.200 107.109 C 167.200 107.511,167.046 108.011,166.858 108.220 C 164.796 110.510,164.809 123.600,166.873 123.600 C 167.053 123.600,167.200 123.964,167.200 124.408 C 167.200 125.303,168.726 127.909,169.746 128.755 C 170.106 129.054,170.400 129.511,170.400 129.772 C 170.400 130.033,172.656 132.554,175.413 135.374 L 180.427 140.501 183.713 140.186 C 187.823 139.792,213.350 139.782,218.200 140.173 L 221.800 140.463 226.414 135.731 C 231.421 130.596,233.974 127.390,234.800 125.200 C 235.091 124.430,235.479 123.629,235.664 123.420 C 235.849 123.211,236.000 122.457,236.000 121.744 C 236.000 121.031,236.180 120.336,236.400 120.200 C 236.895 119.894,236.937 112.132,236.446 111.829 C 236.251 111.708,235.996 111.113,235.879 110.505 C 235.181 106.892,233.620 102.823,231.157 98.200 C 227.324 91.006,226.666 90.000,225.789 90.000 C 225.244 90.000,222.000 93.378,222.000 93.946 C 222.000 94.146,220.425 95.931,218.500 97.911 C 216.575 99.892,214.577 102.078,214.059 102.769 C 209.002 109.522,197.394 105.631,197.442 97.200 C 197.463 93.572,197.476 93.552,207.000 83.166 C 209.200 80.767,212.055 77.644,213.344 76.225 L 215.688 73.647 214.844 72.462 C 214.380 71.810,214.000 71.079,214.000 70.838 C 214.000 70.597,213.862 70.400,213.694 70.400 C 213.526 70.400,212.944 69.680,212.400 68.800 C 211.856 67.920,211.286 67.200,211.133 67.200 C 210.979 67.200,210.737 66.832,210.594 66.382 C 210.451 65.932,209.555 64.762,208.603 63.782 L 206.871 62.000 200.805 62.000 C 195.007 62.000,194.706 62.040,193.977 62.900 M198.500 70.957 C 199.511 71.724,199.370 72.564,197.900 74.545 C 194.916 78.567,192.887 81.461,192.394 82.395 C 192.106 82.943,191.030 84.473,190.004 85.795 C 188.977 87.118,187.670 89.038,187.098 90.061 C 186.527 91.085,185.370 92.975,184.528 94.261 C 173.790 110.665,173.428 119.795,183.092 130.478 C 184.972 132.556,185.012 134.067,183.194 134.336 C 181.700 134.557,176.857 128.848,174.204 123.738 C 171.628 118.778,171.755 111.695,174.530 105.562 C 175.068 104.373,175.747 102.770,176.039 102.000 C 176.332 101.230,176.975 100.001,177.468 99.270 C 177.962 98.538,178.486 97.548,178.634 97.070 C 178.879 96.278,180.262 94.021,183.433 89.241 C 184.075 88.274,184.780 87.199,185.000 86.853 C 190.353 78.424,196.481 70.368,197.506 70.413 C 197.668 70.420,198.115 70.665,198.500 70.957 M180.761 149.274 C 180.198 150.325,180.303 162.143,180.880 162.720 C 181.571 163.411,218.429 163.411,219.120 162.720 C 219.683 162.157,219.799 150.133,219.250 149.267 C 218.672 148.355,181.248 148.362,180.761 149.274 M180.100 184.370 C 179.766 184.917,179.600 186.958,179.600 190.515 C 179.600 193.444,179.432 196.011,179.226 196.220 C 179.021 196.429,178.757 199.390,178.640 202.800 C 178.523 206.210,178.257 211.070,178.050 213.600 C 177.842 216.130,177.481 220.900,177.247 224.200 C 176.728 231.527,176.466 233.512,175.977 233.814 C 175.770 233.942,175.600 235.108,175.600 236.405 C 175.600 237.701,175.425 239.176,175.210 239.681 C 174.996 240.187,174.645 242.400,174.429 244.600 C 173.930 249.701,173.469 252.446,172.987 253.202 C 172.776 253.531,172.383 254.970,172.112 256.400 C 171.841 257.830,171.424 259.810,171.185 260.800 C 170.946 261.790,170.655 263.140,170.538 263.800 C 170.420 264.460,169.877 266.146,169.331 267.547 C 167.543 272.129,167.903 272.404,175.000 271.892 C 182.218 271.372,217.392 271.376,224.200 271.898 C 230.635 272.392,231.392 272.175,230.411 270.115 C 230.120 269.502,229.746 268.280,229.581 267.400 C 229.100 264.841,227.313 258.107,226.965 257.544 C 226.790 257.261,226.503 256.213,226.326 255.215 C 225.588 251.049,224.712 245.267,224.537 243.400 C 224.433 242.300,224.110 240.860,223.818 240.200 C 223.527 239.540,223.066 236.570,222.794 233.600 C 222.523 230.630,222.146 226.580,221.957 224.600 C 221.768 222.620,221.511 219.110,221.385 216.800 C 221.260 214.490,220.990 212.240,220.785 211.800 C 220.581 211.360,220.322 208.570,220.210 205.600 C 219.441 185.228,219.411 184.776,218.800 184.391 C 218.447 184.168,210.943 184.010,200.550 184.006 C 190.843 184.003,182.383 183.899,181.750 183.775 C 180.870 183.603,180.483 183.743,180.100 184.370 M190.264 277.470 C 190.083 277.651,186.484 277.935,182.267 278.100 C 171.206 278.533,168.707 278.718,167.804 279.170 C 167.362 279.392,165.650 279.653,164.000 279.752 C 154.651 280.308,152.799 281.434,152.801 286.554 C 152.804 290.819,156.444 295.177,160.036 295.214 C 160.786 295.222,161.850 295.486,162.400 295.800 C 162.950 296.114,164.156 296.378,165.080 296.386 C 166.004 296.394,167.638 296.588,168.711 296.818 C 176.036 298.389,226.364 298.372,230.960 296.797 C 231.598 296.579,233.048 296.400,234.183 296.400 C 235.379 296.400,236.574 296.153,237.024 295.813 C 237.451 295.490,238.448 295.220,239.239 295.213 C 242.266 295.186,246.469 289.568,246.507 285.496 C 246.539 282.160,245.440 281.078,241.916 280.979 C 237.811 280.863,233.801 280.175,231.400 279.176 C 229.210 278.263,191.052 276.681,190.264 277.470 M151.091 302.550 C 149.941 303.732,146.840 306.920,144.200 309.634 C 139.650 314.313,138.566 315.310,133.800 319.195 C 124.604 326.693,123.616 327.936,125.500 329.652 C 128.325 332.226,121.272 332.017,201.625 331.903 L 274.469 331.800 275.435 330.678 C 277.146 328.688,276.611 327.704,271.810 324.000 C 270.526 323.010,268.649 321.462,267.638 320.561 C 266.627 319.659,265.440 318.731,265.000 318.499 C 263.678 317.802,254.496 309.000,248.677 302.851 C 246.430 300.477,245.600 300.142,243.975 300.952 C 243.261 301.309,242.111 301.600,241.419 301.600 C 240.726 301.600,239.989 301.764,239.780 301.965 C 239.242 302.481,233.717 303.044,225.200 303.450 C 221.757 303.614,220.001 303.864,219.560 304.252 C 218.714 304.997,181.167 304.849,178.600 304.091 C 177.720 303.831,174.300 303.441,171.000 303.226 C 162.528 302.671,157.529 301.950,155.340 300.966 C 153.511 300.145,153.386 300.191,151.091 302.550 M159.595 307.591 C 160.894 310.018,152.934 320.522,146.800 324.474 C 145.590 325.253,143.573 326.550,142.318 327.355 C 141.062 328.161,139.927 328.995,139.794 329.210 C 139.415 329.823,136.805 329.680,136.557 329.031 C 136.066 327.752,137.292 326.416,140.991 324.200 C 147.185 320.489,152.751 314.770,155.844 308.936 C 156.905 306.934,158.867 306.231,159.595 307.591 M123.600 338.817 C 121.915 339.744,120.405 341.392,120.387 342.322 C 120.380 342.695,120.110 343.349,119.787 343.776 C 117.361 346.984,120.131 355.501,123.969 356.634 C 125.568 357.106,273.404 357.053,276.292 356.579 C 277.600 356.364,279.587 354.321,279.613 353.162 C 279.620 352.853,279.890 352.251,280.213 351.824 C 281.293 350.396,281.011 344.332,279.761 342.092 C 277.711 338.420,276.076 338.260,271.166 341.249 C 269.315 342.376,267.170 343.526,266.400 343.805 C 265.630 344.084,264.280 344.672,263.400 345.112 C 262.520 345.551,260.450 346.323,258.800 346.828 C 257.150 347.332,255.629 347.892,255.420 348.072 C 255.211 348.252,254.007 348.400,252.744 348.400 C 251.481 348.400,250.336 348.580,250.200 348.800 C 250.061 349.025,248.137 349.200,245.800 349.200 C 243.463 349.200,241.539 349.025,241.400 348.800 C 241.264 348.580,240.004 348.400,238.600 348.400 C 237.196 348.400,235.948 348.240,235.827 348.044 C 235.706 347.849,235.021 347.588,234.304 347.466 C 231.300 346.955,229.295 346.475,227.600 345.862 C 226.610 345.504,225.453 345.209,225.028 345.206 C 224.604 345.203,223.704 345.031,223.028 344.825 C 221.478 344.351,210.589 341.830,207.400 341.206 C 204.620 340.663,193.475 340.867,191.000 341.507 C 190.120 341.735,187.240 342.478,184.600 343.159 C 181.960 343.840,179.487 344.577,179.105 344.798 C 178.723 345.019,178.136 345.200,177.800 345.200 C 177.464 345.200,176.877 345.359,176.495 345.554 C 175.274 346.176,170.525 347.600,169.671 347.600 C 169.218 347.600,168.736 347.780,168.600 348.000 C 168.464 348.220,167.834 348.400,167.200 348.400 C 166.566 348.400,165.936 348.580,165.800 348.800 C 165.664 349.020,164.764 349.200,163.800 349.200 C 162.836 349.200,161.926 349.396,161.777 349.637 C 161.277 350.447,147.512 349.628,146.973 348.756 C 146.852 348.560,146.401 348.400,145.971 348.400 C 145.541 348.400,144.877 348.230,144.495 348.021 C 144.113 347.813,142.741 347.266,141.447 346.807 C 138.315 345.695,132.943 342.836,128.972 340.169 C 125.339 337.728,125.503 337.769,123.600 338.817 M144.278 338.264 C 141.051 338.660,142.027 340.427,146.153 341.660 C 147.719 342.128,149.224 342.687,149.498 342.903 C 150.567 343.744,162.016 343.354,164.129 342.404 C 165.190 341.927,167.332 341.324,168.889 341.063 C 171.731 340.587,173.062 339.691,172.191 338.840 C 171.784 338.442,147.000 337.931,144.278 338.264 M231.650 338.939 C 230.271 340.602,235.856 341.694,246.000 341.745 C 254.977 341.791,258.983 340.895,258.257 339.005 C 257.930 338.151,232.357 338.088,231.650 338.939 " stroke="none" fill="#040404" fill-rule="evenodd"></path></g></svg>