<?xml version="1.0" standalone="no"?>
<!DOCTYPE svg PUBLIC "-//W3C//DTD SVG 20010904//EN"
 "http://www.w3.org/TR/2001/REC-SVG-20010904/DTD/svg10.dtd">
<svg version="1.0" xmlns="http://www.w3.org/2000/svg"
 width="512.000000pt" height="512.000000pt" viewBox="0 0 512.000000 512.000000"
 preserveAspectRatio="xMidYMid meet">

<g transform="translate(0.000000,512.000000) scale(0.100000,-0.100000)"
fill="#000000" stroke="none">
<path d="M2427 4617 c-75 -26 -133 -74 -142 -118 -9 -40 21 -96 67 -125 24
-16 36 -29 31 -37 -4 -7 -43 -66 -88 -132 -110 -162 -188 -296 -227 -391 -29
-71 -32 -90 -33 -179 0 -91 3 -105 29 -155 15 -30 50 -82 77 -115 l48 -59 -29
-13 c-41 -17 -38 -28 15 -49 l45 -17 0 -97 0 -98 -42 -7 c-73 -11 -78 -14 -78
-45 0 -24 -5 -31 -27 -36 -272 -60 -240 -114 101 -169 l38 -6 -7 -122 c-25
-460 -74 -802 -141 -983 -13 -36 -20 -43 -52 -49 -66 -12 -111 -28 -132 -47
-18 -17 -20 -31 -20 -145 l0 -126 -87 -86 c-49 -48 -139 -126 -200 -175 -126
-99 -137 -121 -85 -162 l27 -22 -27 -29 c-15 -15 -32 -41 -37 -56 -14 -36 -14
-157 0 -194 15 -42 68 -92 109 -103 22 -6 401 -10 1011 -10 l976 0 43 23 c63
33 90 88 90 183 0 79 -10 117 -41 150 l-20 22 25 25 c47 47 38 63 -119 187
-44 35 -124 107 -177 159 l-98 95 0 119 c0 65 -5 127 -10 137 -9 17 -97 50
-163 62 -14 2 -26 24 -43 78 -65 204 -113 541 -130 916 l-7 151 71 7 c146 15
292 61 292 94 0 13 -93 62 -120 62 -8 0 -32 5 -52 11 -33 8 -38 14 -38 38 0
33 -8 37 -89 47 l-61 7 0 96 0 96 50 18 c56 20 62 32 25 49 l-25 11 44 47
c147 157 163 314 54 528 -50 98 -129 232 -137 232 -3 0 -65 -59 -137 -131 -76
-76 -136 -129 -143 -125 -29 18 -6 53 119 178 l131 129 -58 82 c-33 45 -62 87
-66 94 -5 8 7 22 32 38 48 32 75 84 66 125 -8 38 -73 94 -134 115 -25 9 -86
19 -136 21 -76 4 -100 1 -158 -19z m224 -71 c93 -22 133 -52 108 -83 -21 -25
-87 -50 -149 -58 -115 -14 -267 46 -230 90 28 34 109 62 185 64 17 0 55 -6 86
-13z m56 -291 c29 -38 53 -72 53 -75 0 -3 -48 -57 -106 -120 -119 -130 -138
-162 -124 -210 17 -60 46 -80 113 -80 66 0 56 -7 180 130 78 87 74 88 135 -35
72 -144 86 -224 57 -323 -12 -40 -32 -69 -94 -134 l-78 -83 -270 1 -269 1 -50
50 c-94 95 -144 184 -144 258 0 103 144 373 342 643 l39 53 82 -3 82 -3 52
-70z m101 -1127 l-3 -93 -245 0 -245 0 -3 93 -3 92 251 0 251 0 -3 -92z m-12
-366 c7 -4 14 -66 18 -157 14 -324 60 -676 111 -851 36 -123 35 -125 -22 -116
-54 8 -560 10 -668 2 l-70 -5 1 35 c1 19 13 80 28 135 48 180 83 466 102 820
3 72 8 133 11 138 5 9 474 9 489 -1z m134 -1212 c36 -7 98 -17 139 -24 68 -10
75 -14 84 -39 11 -33 -21 -107 -58 -131 -60 -39 -444 -64 -734 -47 -318 18
-380 36 -401 112 -12 43 3 95 28 103 17 6 152 23 231 31 23 2 45 6 47 8 10 9
604 -3 664 -13z m-805 -307 c88 -14 173 -18 430 -18 308 0 405 7 570 40 28 6
39 -3 147 -107 64 -62 140 -131 169 -153 103 -80 111 -91 83 -119 -14 -14
-114 -16 -949 -16 l-934 0 -28 24 c-34 29 -36 26 104 147 57 50 133 121 170
160 61 63 71 70 98 65 16 -3 80 -13 140 -23z m-448 -492 c36 -22 99 -55 142
-73 70 -30 84 -32 181 -32 90 1 119 5 205 33 55 18 143 44 195 58 134 35 221
30 458 -30 238 -61 291 -66 407 -37 50 12 100 28 112 36 12 8 27 14 32 14 5 0
32 14 59 31 83 51 122 27 122 -79 0 -57 -19 -106 -45 -116 -9 -3 -455 -6 -991
-6 l-975 0 -24 26 c-53 57 -21 214 42 214 8 0 44 -18 80 -39z m525 24 c2 -17
-123 -46 -202 -47 -96 -2 -190 27 -174 53 8 13 374 7 376 -6z m1103 6 c3 -6
-5 -16 -17 -23 -31 -17 -274 -17 -306 1 -44 24 -10 31 153 31 93 0 166 -4 170
-9z"/>
<path d="M2498 4193 c-29 -34 -147 -209 -190 -283 -100 -169 -122 -283 -74
-378 30 -58 92 -132 112 -132 19 0 18 34 -2 51 -31 25 -73 97 -85 143 -9 37
-9 60 1 103 19 88 71 179 228 408 34 49 62 93 62 97 0 15 -37 8 -52 -9z"/>
<path d="M1975 1133 c-45 -68 -102 -123 -165 -160 -25 -14 -48 -31 -52 -37
-11 -17 -9 -36 3 -36 15 0 136 75 168 104 41 37 111 139 111 163 0 39 -25 26
-65 -34z"/>
</g>
</svg>
