<svg id="svg" version="1.1" xmlns="http://www.w3.org/2000/svg" xmlns:xlink="http://www.w3.org/1999/xlink" width="400" height="400" viewBox="0, 0, 400,400"><g id="svgg"><path id="path0" d="M194.800 73.600 C 194.800 73.820,193.990 74.000,193.000 74.000 C 192.010 74.000,191.200 74.159,191.200 74.354 C 191.200 74.549,190.213 74.831,189.006 74.982 C 187.800 75.133,186.709 75.423,186.583 75.628 C 186.456 75.833,185.924 76.000,185.400 76.000 C 184.876 76.000,184.336 76.180,184.200 76.400 C 184.064 76.620,183.603 76.800,183.176 76.800 C 182.749 76.800,182.400 76.980,182.400 77.200 C 182.400 77.420,182.040 77.600,181.600 77.600 C 181.160 77.600,180.800 77.780,180.800 78.000 C 180.800 78.220,180.440 78.400,180.000 78.400 C 179.560 78.400,179.200 78.546,179.200 78.725 C 179.200 78.904,178.552 79.305,177.759 79.616 C 176.967 79.927,175.899 80.680,175.385 81.291 C 174.872 81.901,174.258 82.400,174.022 82.400 C 173.515 82.400,164.400 91.432,164.400 91.934 C 164.400 92.122,164.040 92.602,163.600 93.000 C 163.160 93.398,162.800 93.966,162.800 94.262 C 162.800 94.558,162.620 94.800,162.400 94.800 C 162.180 94.800,162.000 95.160,162.000 95.600 C 162.000 96.040,161.820 96.400,161.600 96.400 C 161.380 96.400,161.200 96.760,161.200 97.200 C 161.200 97.640,161.020 98.000,160.800 98.000 C 160.580 98.000,160.400 98.360,160.400 98.800 C 160.400 99.240,160.220 99.600,160.000 99.600 C 159.780 99.600,159.600 99.949,159.600 100.376 C 159.600 100.803,159.433 101.256,159.228 101.383 C 159.023 101.509,158.733 102.600,158.582 103.806 C 158.431 105.013,158.149 106.000,157.954 106.000 C 157.759 106.000,157.600 106.810,157.600 107.800 C 157.600 108.790,157.420 109.600,157.200 109.600 C 156.947 109.600,156.800 112.467,156.800 117.400 C 156.800 122.333,156.947 125.200,157.200 125.200 C 157.420 125.200,157.600 125.920,157.600 126.800 C 157.600 127.680,157.759 128.400,157.954 128.400 C 158.149 128.400,158.431 129.387,158.582 130.594 C 158.733 131.800,159.023 132.891,159.228 133.017 C 159.433 133.144,159.600 133.597,159.600 134.024 C 159.600 134.451,159.780 134.800,160.000 134.800 C 160.220 134.800,160.400 135.160,160.400 135.600 C 160.400 136.040,160.580 136.400,160.800 136.400 C 161.020 136.400,161.200 136.760,161.200 137.200 C 161.200 137.640,161.380 138.000,161.600 138.000 C 161.820 138.000,162.000 138.360,162.000 138.800 C 162.000 139.240,162.180 139.600,162.400 139.600 C 162.620 139.600,162.800 139.830,162.800 140.112 C 162.800 140.393,163.160 140.883,163.600 141.200 C 164.040 141.517,164.400 142.019,164.400 142.314 C 164.400 142.610,165.300 143.729,166.400 144.800 C 168.811 147.148,168.820 147.200,166.800 147.200 C 165.920 147.200,165.200 147.380,165.200 147.600 C 165.200 147.820,164.480 148.000,163.600 148.000 C 162.720 148.000,162.000 148.180,162.000 148.400 C 162.000 148.620,161.676 148.800,161.280 148.800 C 160.386 148.800,158.407 149.694,158.403 150.100 C 158.401 150.265,158.040 150.400,157.600 150.400 C 157.160 150.400,156.800 150.580,156.800 150.800 C 156.800 151.020,156.524 151.200,156.187 151.200 C 154.766 151.200,152.800 153.870,152.800 155.800 C 152.800 157.730,154.766 160.400,156.187 160.400 C 156.524 160.400,156.800 160.580,156.800 160.800 C 156.800 161.020,157.160 161.200,157.600 161.200 C 158.040 161.200,158.400 161.380,158.400 161.600 C 158.400 161.820,158.850 162.000,159.400 162.000 C 159.950 162.000,160.400 162.180,160.400 162.400 C 160.400 162.620,160.940 162.800,161.600 162.800 C 162.260 162.800,162.800 162.980,162.800 163.200 C 162.800 163.420,163.340 163.600,164.000 163.600 C 164.660 163.600,165.200 163.780,165.200 164.000 C 165.200 164.220,165.920 164.400,166.800 164.400 C 167.680 164.400,168.400 164.580,168.400 164.800 C 168.400 165.022,169.467 165.200,170.800 165.200 C 172.133 165.200,173.200 165.378,173.200 165.600 C 173.200 165.820,174.190 166.000,175.400 166.000 C 176.610 166.000,177.600 166.180,177.600 166.400 C 177.600 166.629,178.800 166.800,180.400 166.800 L 183.200 166.800 183.200 169.200 C 183.200 170.533,183.022 171.600,182.800 171.600 C 182.561 171.600,182.400 173.133,182.400 175.400 C 182.400 177.667,182.239 179.200,182.000 179.200 C 181.763 179.200,181.600 180.667,181.600 182.800 C 181.600 184.933,181.437 186.400,181.200 186.400 C 180.971 186.400,180.800 187.600,180.800 189.200 C 180.800 190.800,180.629 192.000,180.400 192.000 C 180.174 192.000,180.000 193.133,180.000 194.600 C 180.000 196.067,179.826 197.200,179.600 197.200 C 179.378 197.200,179.200 198.267,179.200 199.600 C 179.200 200.933,179.022 202.000,178.800 202.000 C 178.580 202.000,178.400 202.900,178.400 204.000 C 178.400 205.100,178.220 206.000,178.000 206.000 C 177.780 206.000,177.600 206.619,177.600 207.376 C 177.600 208.133,177.420 208.864,177.200 209.000 C 176.980 209.136,176.800 209.856,176.800 210.600 C 176.800 211.344,176.620 212.064,176.400 212.200 C 176.180 212.336,176.000 213.031,176.000 213.744 C 176.000 214.457,175.821 215.219,175.602 215.438 C 175.384 215.656,175.088 216.952,174.946 218.318 C 174.803 219.683,174.532 220.800,174.343 220.800 C 174.154 220.800,174.000 221.340,174.000 222.000 C 174.000 222.660,173.820 223.200,173.600 223.200 C 173.380 223.200,173.200 223.639,173.200 224.176 C 173.200 224.713,173.020 225.264,172.800 225.400 C 172.580 225.536,172.400 226.087,172.400 226.624 C 172.400 227.161,172.220 227.600,172.000 227.600 C 171.780 227.600,171.600 227.960,171.600 228.400 C 171.600 228.840,171.420 229.200,171.200 229.200 C 170.980 229.200,170.800 229.740,170.800 230.400 C 170.800 231.060,170.620 231.600,170.400 231.600 C 170.180 231.600,170.000 232.140,170.000 232.800 C 170.000 233.460,169.820 234.000,169.600 234.000 C 169.380 234.000,169.200 234.540,169.200 235.200 C 169.200 235.860,169.020 236.400,168.800 236.400 C 168.580 236.400,168.400 236.760,168.400 237.200 C 168.400 237.640,168.220 238.000,168.000 238.000 C 167.780 238.000,167.600 238.540,167.600 239.200 C 167.600 239.860,167.420 240.400,167.200 240.400 C 166.980 240.400,166.800 240.760,166.800 241.200 C 166.800 241.640,166.620 242.000,166.400 242.000 C 166.180 242.000,166.000 242.450,166.000 243.000 C 166.000 243.550,165.820 244.000,165.600 244.000 C 165.380 244.000,165.200 244.360,165.200 244.800 C 165.200 245.240,165.020 245.600,164.800 245.600 C 164.580 245.600,164.400 246.140,164.400 246.800 L 164.400 248.000 161.000 248.000 C 159.000 248.000,157.600 248.165,157.600 248.400 C 157.600 248.640,156.000 248.800,153.600 248.800 C 151.200 248.800,149.600 248.960,149.600 249.200 C 149.600 249.429,148.400 249.600,146.800 249.600 C 145.200 249.600,144.000 249.771,144.000 250.000 C 144.000 250.220,143.190 250.400,142.200 250.400 C 141.210 250.400,140.400 250.580,140.400 250.800 C 140.400 251.020,139.860 251.200,139.200 251.200 C 138.540 251.200,138.000 251.380,138.000 251.600 C 138.000 251.820,137.640 252.000,137.200 252.000 C 136.430 252.000,136.400 252.267,136.400 259.000 C 136.400 265.733,136.430 266.000,137.200 266.000 C 137.640 266.000,138.000 266.180,138.000 266.400 C 138.000 266.620,138.540 266.800,139.200 266.800 C 139.860 266.800,140.400 266.980,140.400 267.200 C 140.400 267.420,141.210 267.600,142.200 267.600 C 143.190 267.600,144.000 267.780,144.000 268.000 C 144.000 268.220,144.360 268.400,144.800 268.400 C 145.917 268.400,145.834 268.587,143.835 270.586 C 142.864 271.557,141.951 272.723,141.808 273.176 C 141.664 273.629,141.371 274.000,141.156 274.000 C 140.942 274.000,140.500 274.225,140.175 274.500 C 138.046 276.299,137.200 277.181,137.200 277.600 C 137.200 277.863,136.660 278.583,136.000 279.200 C 135.340 279.817,134.800 280.609,134.800 280.960 C 134.800 281.312,134.620 281.600,134.400 281.600 C 134.180 281.600,134.000 281.920,134.000 282.312 C 134.000 282.703,133.640 283.283,133.200 283.600 C 132.760 283.917,132.400 284.497,132.400 284.888 C 132.400 285.280,132.220 285.600,132.000 285.600 C 131.780 285.600,131.600 286.140,131.600 286.800 C 131.600 287.460,131.420 288.000,131.200 288.000 C 130.980 288.000,130.800 288.360,130.800 288.800 C 130.800 289.240,130.620 289.600,130.400 289.600 C 130.180 289.600,130.000 290.140,130.000 290.800 C 130.000 291.460,129.820 292.000,129.600 292.000 C 129.380 292.000,129.200 292.450,129.200 293.000 C 129.200 293.550,129.020 294.000,128.800 294.000 C 128.580 294.000,128.400 294.900,128.400 296.000 C 128.400 297.100,128.220 298.000,128.000 298.000 C 127.780 298.000,127.600 298.720,127.600 299.600 C 127.600 300.480,127.420 301.200,127.200 301.200 C 126.980 301.200,126.800 302.023,126.800 303.029 C 126.800 305.814,126.426 306.000,120.829 306.000 C 116.267 306.000,116.000 306.044,116.000 306.800 C 116.000 307.422,115.733 307.600,114.800 307.600 C 114.140 307.600,113.600 307.777,113.600 307.992 C 113.600 308.208,113.166 308.494,112.634 308.627 C 111.473 308.919,107.600 312.872,107.600 313.766 C 107.600 314.115,107.420 314.400,107.200 314.400 C 106.980 314.400,106.800 314.760,106.800 315.200 C 106.800 315.640,106.620 316.000,106.400 316.000 C 106.180 316.000,106.000 316.360,106.000 316.800 C 106.000 317.240,105.820 317.600,105.600 317.600 C 105.345 317.600,105.200 321.000,105.200 327.000 C 105.200 333.000,105.345 336.400,105.600 336.400 C 105.820 336.400,106.000 336.900,106.000 337.512 C 106.000 338.165,106.330 338.861,106.800 339.200 C 107.240 339.517,107.600 340.000,107.600 340.272 C 107.600 340.991,111.457 344.800,112.184 344.800 C 112.523 344.800,112.800 344.980,112.800 345.200 C 112.800 345.420,113.160 345.600,113.600 345.600 C 114.040 345.600,114.400 345.780,114.400 346.000 C 114.400 346.220,114.760 346.400,115.200 346.400 C 115.640 346.400,116.000 346.580,116.000 346.800 C 116.000 347.065,145.200 347.200,202.800 347.200 C 289.333 347.200,289.600 347.198,289.600 346.400 C 289.600 345.834,289.867 345.600,290.512 345.600 C 291.013 345.600,291.683 345.240,292.000 344.800 C 292.317 344.360,292.813 344.000,293.102 344.000 C 293.390 344.000,294.225 343.415,294.955 342.700 C 295.686 341.985,296.670 341.135,297.142 340.812 C 297.614 340.488,298.000 339.903,298.000 339.512 C 298.000 339.120,298.180 338.800,298.400 338.800 C 298.620 338.800,298.800 338.440,298.800 338.000 C 298.800 337.560,298.980 337.200,299.200 337.200 C 299.420 337.200,299.600 336.840,299.600 336.400 C 299.600 335.960,299.780 335.600,300.000 335.600 C 300.255 335.600,300.400 332.200,300.400 326.200 C 300.400 320.200,300.255 316.800,300.000 316.800 C 299.780 316.800,299.600 316.300,299.600 315.688 C 299.600 315.035,299.270 314.339,298.800 314.000 C 298.360 313.683,298.000 313.181,298.000 312.886 C 298.000 312.068,294.053 308.400,293.173 308.400 C 292.748 308.400,292.400 308.220,292.400 308.000 C 292.400 307.780,292.130 307.600,291.800 307.600 C 291.470 307.600,291.200 307.420,291.200 307.200 C 291.200 306.980,290.840 306.800,290.400 306.800 C 289.960 306.800,289.600 306.620,289.600 306.400 C 289.600 306.151,287.333 306.000,283.600 306.000 C 277.867 306.000,277.600 305.964,277.600 305.200 C 277.600 304.760,277.420 304.400,277.200 304.400 C 276.980 304.400,276.800 303.500,276.800 302.400 C 276.800 301.300,276.620 300.400,276.400 300.400 C 276.180 300.400,276.000 299.500,276.000 298.400 C 276.000 297.300,275.841 296.400,275.646 296.400 C 275.451 296.400,275.163 295.370,275.006 294.111 C 274.849 292.851,274.482 291.481,274.190 291.065 C 273.899 290.649,273.749 290.077,273.857 289.795 C 273.966 289.512,273.862 289.162,273.627 289.017 C 273.392 288.872,273.200 288.403,273.200 287.976 C 273.200 287.549,273.020 287.200,272.800 287.200 C 272.580 287.200,272.400 286.840,272.400 286.400 C 272.400 285.960,272.220 285.600,272.000 285.600 C 271.780 285.600,271.600 285.240,271.600 284.800 C 271.600 284.360,271.420 284.000,271.200 284.000 C 270.980 284.000,270.800 283.640,270.800 283.200 C 270.800 282.760,270.620 282.400,270.400 282.400 C 270.180 282.400,270.000 282.112,270.000 281.760 C 270.000 281.409,269.460 280.617,268.800 280.000 C 268.140 279.383,267.600 278.663,267.600 278.400 C 267.600 278.137,267.060 277.417,266.400 276.800 C 265.740 276.183,265.200 275.567,265.200 275.431 C 265.200 275.000,260.838 270.800,260.391 270.800 C 259.956 270.800,258.000 269.015,258.000 268.618 C 258.000 268.498,258.540 268.400,259.200 268.400 C 259.860 268.400,260.400 268.220,260.400 268.000 C 260.400 267.780,261.300 267.600,262.400 267.600 C 263.500 267.600,264.400 267.420,264.400 267.200 C 264.400 266.980,264.940 266.800,265.600 266.800 C 266.260 266.800,266.800 266.620,266.800 266.400 C 266.800 266.180,267.160 266.000,267.600 266.000 C 268.370 266.000,268.400 265.733,268.400 259.000 C 268.400 252.267,268.370 252.000,267.600 252.000 C 267.160 252.000,266.800 251.820,266.800 251.600 C 266.800 251.380,266.260 251.200,265.600 251.200 C 264.940 251.200,264.400 251.020,264.400 250.800 C 264.400 250.580,263.500 250.400,262.400 250.400 C 261.300 250.400,260.400 250.220,260.400 250.000 C 260.400 249.774,259.267 249.600,257.800 249.600 C 256.333 249.600,255.200 249.426,255.200 249.200 C 255.200 248.958,253.467 248.800,250.800 248.800 C 248.133 248.800,246.400 248.642,246.400 248.400 C 246.400 248.169,245.133 248.000,243.400 248.000 C 240.667 248.000,240.400 247.929,240.400 247.200 C 240.400 246.760,240.220 246.400,240.000 246.400 C 239.780 246.400,239.600 246.045,239.600 245.612 C 239.600 245.179,239.240 244.183,238.800 243.400 C 238.360 242.617,238.000 241.621,238.000 241.188 C 238.000 240.755,237.820 240.400,237.600 240.400 C 237.380 240.400,237.200 240.040,237.200 239.600 C 237.200 239.160,237.020 238.800,236.800 238.800 C 236.580 238.800,236.400 238.260,236.400 237.600 C 236.400 236.940,236.220 236.400,236.000 236.400 C 235.780 236.400,235.600 236.040,235.600 235.600 C 235.600 235.160,235.420 234.800,235.200 234.800 C 234.980 234.800,234.800 234.260,234.800 233.600 C 234.800 232.940,234.620 232.400,234.400 232.400 C 234.180 232.400,234.000 232.040,234.000 231.600 C 234.000 231.160,233.820 230.800,233.600 230.800 C 233.380 230.800,233.200 230.260,233.200 229.600 C 233.200 228.940,233.020 228.400,232.800 228.400 C 232.580 228.400,232.400 227.860,232.400 227.200 C 232.400 226.540,232.220 226.000,232.000 226.000 C 231.780 226.000,231.600 225.550,231.600 225.000 C 231.600 224.450,231.420 224.000,231.200 224.000 C 230.980 224.000,230.800 223.460,230.800 222.800 C 230.800 222.140,230.620 221.600,230.400 221.600 C 230.180 221.600,230.000 221.060,230.000 220.400 C 230.000 219.740,229.820 219.200,229.600 219.200 C 229.380 219.200,229.200 218.660,229.200 218.000 C 229.200 217.340,229.020 216.800,228.800 216.800 C 228.580 216.800,228.400 216.080,228.400 215.200 C 228.400 214.320,228.220 213.600,228.000 213.600 C 227.780 213.600,227.600 212.880,227.600 212.000 C 227.600 211.120,227.420 210.400,227.200 210.400 C 226.980 210.400,226.800 209.770,226.800 209.000 C 226.800 208.230,226.620 207.600,226.400 207.600 C 226.180 207.600,226.000 206.700,226.000 205.600 C 226.000 204.500,225.848 203.600,225.663 203.600 C 225.362 203.600,224.721 198.639,224.137 191.800 C 224.025 190.480,223.768 189.229,223.566 189.020 C 223.365 188.811,223.200 187.337,223.200 185.744 C 223.200 184.151,223.020 182.736,222.800 182.600 C 222.580 182.464,222.400 180.833,222.400 178.976 C 222.400 176.992,222.235 175.600,222.000 175.600 C 221.760 175.600,221.600 174.000,221.600 171.600 C 221.600 169.200,221.440 167.600,221.200 167.600 C 220.980 167.600,220.800 167.420,220.800 167.200 C 220.800 166.965,222.200 166.800,224.200 166.800 C 226.200 166.800,227.600 166.635,227.600 166.400 C 227.600 166.171,228.800 166.000,230.400 166.000 C 232.000 166.000,233.200 165.829,233.200 165.600 C 233.200 165.380,234.100 165.200,235.200 165.200 C 236.300 165.200,237.200 165.020,237.200 164.800 C 237.200 164.580,237.920 164.400,238.800 164.400 C 239.680 164.400,240.400 164.220,240.400 164.000 C 240.400 163.780,241.030 163.600,241.800 163.600 C 242.570 163.600,243.200 163.420,243.200 163.200 C 243.200 162.980,243.740 162.800,244.400 162.800 C 245.060 162.800,245.600 162.620,245.600 162.400 C 245.600 162.180,245.960 162.000,246.400 162.000 C 246.840 162.000,247.200 161.820,247.200 161.600 C 247.200 161.380,247.560 161.200,248.000 161.200 C 248.440 161.200,248.800 161.020,248.800 160.800 C 248.800 160.580,249.076 160.400,249.413 160.400 C 250.834 160.400,252.800 157.730,252.800 155.800 C 252.800 153.870,250.834 151.200,249.413 151.200 C 249.076 151.200,248.800 151.020,248.800 150.800 C 248.800 150.580,248.440 150.400,248.000 150.400 C 247.560 150.400,247.200 150.220,247.200 150.000 C 247.200 149.780,246.660 149.600,246.000 149.600 C 245.340 149.600,244.800 149.420,244.800 149.200 C 244.800 148.980,244.260 148.800,243.600 148.800 C 242.940 148.800,242.400 148.620,242.400 148.400 C 242.400 148.180,241.950 148.000,241.400 148.000 C 240.850 148.000,240.400 147.820,240.400 147.600 C 240.400 147.380,240.040 147.200,239.600 147.200 C 238.526 147.200,238.581 147.003,240.100 145.408 C 242.036 143.375,242.400 142.886,242.400 142.313 C 242.400 142.027,242.760 141.568,243.200 141.293 C 243.640 141.018,244.000 140.525,244.000 140.197 C 244.000 139.868,244.180 139.600,244.400 139.600 C 244.620 139.600,244.800 139.240,244.800 138.800 C 244.800 138.360,244.980 138.000,245.200 138.000 C 245.420 138.000,245.600 137.640,245.600 137.200 C 245.600 136.760,245.780 136.400,246.000 136.400 C 246.220 136.400,246.400 136.040,246.400 135.600 C 246.400 135.160,246.580 134.800,246.800 134.800 C 247.020 134.800,247.200 134.440,247.200 134.000 C 247.200 133.560,247.380 133.200,247.600 133.200 C 247.820 133.200,248.000 132.660,248.000 132.000 C 248.000 131.340,248.180 130.800,248.400 130.800 C 248.620 130.800,248.800 130.260,248.800 129.600 C 248.800 128.940,248.980 128.400,249.200 128.400 C 249.420 128.400,249.600 127.601,249.600 126.624 C 249.600 125.647,249.780 124.736,250.000 124.600 C 250.244 124.449,250.400 121.396,250.400 116.776 C 250.400 111.992,250.253 109.200,250.000 109.200 C 249.780 109.200,249.600 108.480,249.600 107.600 C 249.600 106.720,249.420 106.000,249.200 106.000 C 248.980 106.000,248.800 105.460,248.800 104.800 C 248.800 104.140,248.620 103.600,248.400 103.600 C 248.180 103.600,248.000 103.060,248.000 102.400 C 248.000 101.740,247.820 101.200,247.600 101.200 C 247.380 101.200,247.200 100.840,247.200 100.400 C 247.200 99.960,247.020 99.600,246.800 99.600 C 246.580 99.600,246.400 99.240,246.400 98.800 C 246.400 98.360,246.220 98.000,246.000 98.000 C 245.780 98.000,245.600 97.640,245.600 97.200 C 245.600 96.760,245.420 96.400,245.200 96.400 C 244.980 96.400,244.800 96.040,244.800 95.600 C 244.800 95.160,244.620 94.800,244.400 94.800 C 244.180 94.800,244.000 94.480,244.000 94.088 C 244.000 93.697,243.640 93.117,243.200 92.800 C 242.760 92.483,242.400 92.076,242.400 91.895 C 242.400 91.146,233.835 82.400,233.102 82.400 C 232.813 82.400,232.317 82.040,232.000 81.600 C 231.683 81.160,231.143 80.800,230.800 80.800 C 230.457 80.800,229.917 80.440,229.600 80.000 C 229.283 79.560,228.703 79.200,228.312 79.200 C 227.920 79.200,227.600 79.020,227.600 78.800 C 227.600 78.580,227.255 78.400,226.833 78.400 C 226.412 78.400,226.007 78.265,225.933 78.100 C 225.715 77.609,222.384 76.000,221.586 76.000 C 221.180 76.000,220.744 75.833,220.617 75.628 C 220.491 75.423,219.400 75.133,218.194 74.982 C 216.987 74.831,216.000 74.549,216.000 74.354 C 216.000 74.159,215.100 74.000,214.000 74.000 C 212.900 74.000,212.000 73.820,212.000 73.600 C 212.000 73.346,208.867 73.200,203.400 73.200 C 197.933 73.200,194.800 73.346,194.800 73.600 M207.200 80.800 C 207.200 81.022,208.267 81.200,209.600 81.200 C 210.920 81.200,212.000 81.357,212.000 81.548 C 212.000 81.740,213.075 82.018,214.388 82.167 C 215.701 82.315,216.882 82.609,217.011 82.818 C 217.141 83.028,217.550 83.200,217.921 83.200 C 218.999 83.200,225.782 86.716,226.806 87.806 C 227.319 88.353,227.930 88.800,228.162 88.800 C 228.737 88.800,236.000 96.068,236.000 96.643 C 236.000 96.896,236.260 97.318,236.577 97.581 C 237.334 98.209,240.800 105.204,240.800 106.103 C 240.800 106.486,240.980 106.800,241.200 106.800 C 241.420 106.800,241.600 107.340,241.600 108.000 C 241.600 108.660,241.780 109.200,242.000 109.200 C 242.222 109.200,242.400 110.267,242.400 111.600 C 242.400 112.933,242.578 114.000,242.800 114.000 C 243.033 114.000,243.200 115.333,243.200 117.200 C 243.200 119.067,243.033 120.400,242.800 120.400 C 242.578 120.400,242.400 121.467,242.400 122.800 C 242.400 124.133,242.222 125.200,242.000 125.200 C 241.780 125.200,241.600 125.740,241.600 126.400 C 241.600 127.060,241.420 127.600,241.200 127.600 C 240.980 127.600,240.800 127.914,240.800 128.297 C 240.800 129.196,237.334 136.191,236.577 136.819 C 236.260 137.082,236.000 137.498,236.000 137.741 C 236.000 138.323,228.749 145.600,228.170 145.600 C 227.925 145.600,227.398 145.960,227.000 146.400 C 226.602 146.840,226.056 147.200,225.787 147.200 C 225.518 147.200,225.081 147.462,224.815 147.782 C 223.925 148.854,218.577 151.217,216.477 151.465 C 215.335 151.601,214.400 151.866,214.400 152.056 C 214.400 152.245,213.860 152.400,213.200 152.400 C 212.540 152.400,212.000 152.580,212.000 152.800 C 212.000 153.020,211.100 153.200,210.000 153.200 C 208.900 153.200,208.000 153.380,208.000 153.600 C 208.000 153.840,206.408 154.000,204.024 154.000 C 201.804 154.000,199.938 153.823,199.800 153.600 C 199.664 153.380,198.764 153.200,197.800 153.200 C 196.836 153.200,195.936 153.020,195.800 152.800 C 195.664 152.580,194.933 152.400,194.176 152.400 C 193.419 152.400,192.800 152.244,192.800 152.054 C 192.800 151.864,192.011 151.601,191.048 151.469 C 189.325 151.232,183.928 148.925,183.667 148.312 C 183.593 148.141,183.228 148.000,182.855 148.000 C 182.482 148.000,181.917 147.640,181.600 147.200 C 181.283 146.760,180.703 146.400,180.312 146.400 C 179.920 146.400,179.600 146.220,179.600 146.000 C 179.600 145.780,179.328 145.600,178.995 145.600 C 178.259 145.600,170.800 138.221,170.800 137.493 C 170.800 137.209,170.440 136.717,170.000 136.400 C 169.560 136.083,169.200 135.503,169.200 135.112 C 169.200 134.720,169.020 134.400,168.800 134.400 C 168.580 134.400,168.400 134.055,168.400 133.633 C 168.400 133.212,168.265 132.807,168.100 132.733 C 167.518 132.475,165.972 128.705,165.733 126.963 C 165.600 125.993,165.336 125.200,165.146 125.200 C 164.956 125.200,164.800 124.221,164.800 123.024 C 164.800 121.827,164.620 120.736,164.400 120.600 C 164.180 120.464,164.000 118.934,164.000 117.200 C 164.000 115.466,164.180 113.936,164.400 113.800 C 164.620 113.664,164.800 112.584,164.800 111.400 C 164.800 110.216,164.956 109.151,165.147 109.032 C 165.339 108.914,165.614 108.070,165.761 107.156 C 166.031 105.464,168.299 100.309,168.880 100.067 C 169.056 99.993,169.200 99.628,169.200 99.255 C 169.200 98.882,169.560 98.317,170.000 98.000 C 170.440 97.683,170.800 97.191,170.800 96.907 C 170.800 96.277,178.210 88.800,178.834 88.800 C 179.079 88.800,179.783 88.260,180.400 87.600 C 181.017 86.940,181.794 86.400,182.127 86.400 C 182.461 86.400,182.793 86.256,182.867 86.081 C 183.232 85.207,190.230 82.303,192.459 82.101 C 193.759 81.983,194.918 81.732,195.035 81.543 C 195.152 81.355,196.216 81.200,197.400 81.200 C 198.584 81.200,199.664 81.020,199.800 80.800 C 199.936 80.580,201.657 80.400,203.624 80.400 C 205.741 80.400,207.200 80.563,207.200 80.800 M181.644 154.900 C 183.050 155.615,184.260 156.335,184.333 156.500 C 184.407 156.665,184.992 156.800,185.633 156.800 C 186.275 156.800,186.800 156.980,186.800 157.200 C 186.800 157.420,187.160 157.600,187.600 157.600 C 188.040 157.600,188.400 157.780,188.400 158.000 C 188.400 158.220,188.940 158.400,189.600 158.400 C 190.400 158.400,190.800 158.600,190.800 159.000 C 190.800 159.710,183.831 159.898,183.400 159.200 C 183.264 158.980,181.813 158.800,180.176 158.800 C 178.459 158.800,177.200 158.631,177.200 158.400 C 177.200 158.178,176.133 158.000,174.800 158.000 C 173.467 158.000,172.400 157.822,172.400 157.600 C 172.400 157.380,171.649 157.200,170.731 157.200 C 169.737 157.200,168.766 156.931,168.328 156.535 C 167.190 155.505,168.386 154.400,170.638 154.400 C 171.581 154.400,172.464 154.220,172.600 154.000 C 173.230 152.980,178.997 153.554,181.644 154.900 M233.000 154.000 C 233.136 154.220,233.969 154.400,234.852 154.400 C 236.276 154.400,237.600 155.074,237.600 155.800 C 237.600 156.526,236.276 157.200,234.852 157.200 C 233.969 157.200,233.136 157.380,233.000 157.600 C 232.864 157.820,231.784 158.000,230.600 158.000 C 229.416 158.000,228.336 158.180,228.200 158.400 C 228.061 158.625,226.129 158.800,223.776 158.800 C 221.259 158.800,219.600 158.959,219.600 159.200 C 219.600 159.420,218.700 159.600,217.600 159.600 C 216.089 159.600,215.600 159.453,215.600 159.000 C 215.600 158.605,215.995 158.400,216.759 158.400 C 217.397 158.400,218.945 157.860,220.200 157.200 C 221.455 156.540,222.778 155.984,223.141 155.964 C 223.503 155.944,224.700 155.420,225.800 154.800 C 227.887 153.623,232.454 153.116,233.000 154.000 M212.711 166.623 C 213.493 167.171,213.600 167.600,213.600 170.199 C 213.600 171.824,213.780 173.264,214.000 173.400 C 214.221 173.536,214.400 175.330,214.400 177.400 C 214.400 179.470,214.579 181.264,214.800 181.400 C 215.020 181.536,215.200 183.066,215.200 184.800 C 215.200 186.534,215.380 188.064,215.600 188.200 C 215.820 188.336,216.000 189.596,216.000 191.000 C 216.000 192.404,216.180 193.664,216.400 193.800 C 216.620 193.936,216.800 195.196,216.800 196.600 C 216.800 198.004,216.967 199.256,217.170 199.382 C 217.374 199.508,217.667 201.228,217.822 203.205 C 217.977 205.182,218.260 206.800,218.452 206.800 C 218.643 206.800,218.800 207.599,218.800 208.576 C 218.800 209.553,218.980 210.464,219.200 210.600 C 219.420 210.736,219.600 211.456,219.600 212.200 C 219.600 212.944,219.780 213.664,220.000 213.800 C 220.220 213.936,220.400 214.571,220.400 215.211 C 220.400 215.852,220.760 217.017,221.200 217.800 C 221.640 218.583,222.000 219.939,222.000 220.812 C 222.000 221.685,222.180 222.400,222.400 222.400 C 222.620 222.400,222.800 222.940,222.800 223.600 C 222.800 224.260,222.980 224.800,223.200 224.800 C 223.420 224.800,223.600 225.340,223.600 226.000 C 223.600 226.660,223.780 227.200,224.000 227.200 C 224.220 227.200,224.400 227.740,224.400 228.400 C 224.400 229.060,224.580 229.600,224.800 229.600 C 225.020 229.600,225.200 229.960,225.200 230.400 C 225.200 230.840,225.380 231.200,225.600 231.200 C 225.820 231.200,226.000 231.639,226.000 232.176 C 226.000 232.713,226.180 233.264,226.400 233.400 C 226.620 233.536,226.800 233.991,226.800 234.411 C 226.800 234.832,227.160 235.817,227.600 236.600 C 228.040 237.383,228.400 238.368,228.400 238.789 C 228.400 239.209,228.580 239.664,228.800 239.800 C 229.020 239.936,229.200 240.378,229.200 240.783 C 229.200 241.188,229.740 242.545,230.400 243.800 C 233.220 249.162,235.276 248.800,202.000 248.800 L 173.724 248.800 172.962 247.942 C 172.414 247.324,172.340 247.034,172.700 246.908 C 172.975 246.812,173.200 246.388,173.200 245.967 C 173.200 245.545,173.380 245.200,173.600 245.200 C 173.820 245.200,174.000 244.660,174.000 244.000 C 174.000 243.340,174.180 242.800,174.400 242.800 C 174.620 242.800,174.800 242.440,174.800 242.000 C 174.800 241.560,174.980 241.200,175.200 241.200 C 175.420 241.200,175.600 240.660,175.600 240.000 C 175.600 239.340,175.735 238.799,175.900 238.797 C 176.301 238.793,177.200 236.819,177.200 235.944 C 177.200 235.561,177.380 235.136,177.600 235.000 C 177.820 234.864,178.000 234.324,178.000 233.800 C 178.000 233.276,178.180 232.736,178.400 232.600 C 178.620 232.464,178.800 231.924,178.800 231.400 C 178.800 230.876,178.980 230.336,179.200 230.200 C 179.420 230.064,179.600 229.524,179.600 229.000 C 179.600 228.476,179.780 227.936,180.000 227.800 C 180.220 227.664,180.400 227.113,180.400 226.576 C 180.400 226.039,180.580 225.600,180.800 225.600 C 181.020 225.600,181.200 225.060,181.200 224.400 C 181.200 223.740,181.341 223.200,181.514 223.200 C 181.800 223.200,182.469 220.642,183.059 217.296 C 183.185 216.579,183.449 215.894,183.644 215.773 C 183.840 215.652,184.000 214.944,184.000 214.200 C 184.000 213.456,184.180 212.736,184.400 212.600 C 184.620 212.464,184.800 211.744,184.800 211.000 C 184.800 210.256,184.980 209.536,185.200 209.400 C 185.420 209.264,185.600 208.364,185.600 207.400 C 185.600 206.436,185.780 205.536,186.000 205.400 C 186.220 205.264,186.400 204.364,186.400 203.400 C 186.400 202.436,186.580 201.536,186.800 201.400 C 187.020 201.264,187.200 200.173,187.200 198.976 C 187.200 197.779,187.380 196.800,187.600 196.800 C 187.825 196.800,188.000 195.675,188.000 194.224 C 188.000 192.807,188.180 191.536,188.400 191.400 C 188.620 191.264,188.800 189.824,188.800 188.200 C 188.800 186.576,188.980 185.136,189.200 185.000 C 189.420 184.864,189.600 183.233,189.600 181.376 C 189.600 179.392,189.765 178.000,190.000 178.000 C 190.241 178.000,190.400 176.341,190.400 173.824 C 190.400 171.471,190.575 169.539,190.800 169.400 C 191.020 169.264,191.200 168.773,191.200 168.308 C 191.200 166.107,191.709 166.000,202.173 166.000 C 210.259 166.000,211.966 166.101,212.711 166.623 M216.600 254.800 C 216.755 255.051,220.871 255.200,227.624 255.200 C 234.541 255.200,238.400 255.343,238.400 255.600 C 238.400 255.845,240.325 256.000,243.376 256.000 C 246.263 256.000,248.457 256.168,248.600 256.400 C 248.736 256.620,250.367 256.800,252.224 256.800 C 254.208 256.800,255.600 256.965,255.600 257.200 C 255.600 257.420,256.423 257.600,257.429 257.600 C 259.814 257.600,260.826 258.466,259.784 259.618 C 259.350 260.097,258.558 260.400,257.738 260.400 C 257.002 260.400,256.400 260.580,256.400 260.800 C 256.400 261.035,255.008 261.200,253.024 261.200 C 251.167 261.200,249.536 261.380,249.400 261.600 C 249.255 261.835,246.929 262.000,243.776 262.000 C 240.459 262.000,238.400 262.153,238.400 262.400 C 238.400 262.657,234.600 262.800,227.800 262.800 C 221.000 262.800,217.200 262.943,217.200 263.200 C 217.200 263.459,212.141 263.600,202.824 263.600 C 193.671 263.600,188.357 263.455,188.200 263.200 C 188.045 262.949,183.929 262.800,177.176 262.800 C 170.259 262.800,166.400 262.657,166.400 262.400 C 166.400 262.155,164.475 262.000,161.424 262.000 C 158.537 262.000,156.343 261.832,156.200 261.600 C 156.064 261.380,154.433 261.200,152.576 261.200 C 150.592 261.200,149.200 261.035,149.200 260.800 C 149.200 260.580,148.377 260.400,147.371 260.400 C 145.741 260.400,144.400 259.768,144.400 259.000 C 144.400 258.305,145.694 257.600,146.971 257.600 C 147.757 257.600,148.400 257.420,148.400 257.200 C 148.400 256.965,149.792 256.800,151.776 256.800 C 153.633 256.800,155.264 256.620,155.400 256.400 C 155.545 256.165,157.871 256.000,161.024 256.000 C 164.341 256.000,166.400 255.847,166.400 255.600 C 166.400 255.344,170.125 255.200,176.776 255.200 C 183.263 255.200,187.245 255.050,187.400 254.800 C 187.557 254.545,192.863 254.400,202.000 254.400 C 211.137 254.400,216.443 254.545,216.600 254.800 M166.056 268.400 C 169.823 268.400,172.452 268.561,172.600 268.800 C 172.761 269.061,183.137 269.200,202.424 269.200 C 221.875 269.200,232.000 269.063,232.000 268.800 C 232.000 268.549,234.573 268.400,238.919 268.400 L 245.838 268.400 247.400 270.000 C 248.259 270.880,249.137 271.600,249.351 271.600 C 249.565 271.600,250.771 272.680,252.031 274.000 C 253.291 275.320,254.524 276.400,254.772 276.400 C 255.386 276.400,258.798 279.855,258.809 280.489 C 258.814 280.770,259.534 281.619,260.409 282.376 C 261.284 283.133,262.000 283.966,262.000 284.227 C 262.000 284.488,262.260 284.918,262.577 285.181 C 263.323 285.800,266.800 292.798,266.800 293.679 C 266.800 294.050,266.972 294.459,267.182 294.589 C 267.391 294.718,267.685 295.903,267.834 297.221 C 267.983 298.539,268.262 299.714,268.453 299.833 C 268.644 299.951,268.800 300.847,268.800 301.824 C 268.800 302.801,268.980 303.600,269.200 303.600 C 269.764 303.600,269.699 306.141,269.120 306.720 C 268.751 307.089,253.294 307.200,201.982 307.200 L 135.324 307.200 134.580 306.378 C 133.967 305.700,133.921 305.419,134.318 304.783 C 134.583 304.358,134.800 303.299,134.800 302.429 C 134.800 301.559,134.980 300.736,135.200 300.600 C 135.420 300.464,135.600 299.733,135.600 298.976 C 135.600 298.219,135.780 297.600,136.000 297.600 C 136.220 297.600,136.400 297.161,136.400 296.624 C 136.400 296.087,136.580 295.536,136.800 295.400 C 137.020 295.264,137.200 294.724,137.200 294.200 C 137.200 293.676,137.380 293.136,137.600 293.000 C 137.820 292.864,138.000 292.439,138.000 292.055 C 138.000 291.158,139.861 287.413,140.619 286.784 C 140.939 286.519,141.200 286.088,141.200 285.826 C 141.200 285.564,141.740 284.832,142.400 284.200 C 143.060 283.568,143.600 282.862,143.600 282.633 C 143.600 282.087,150.857 274.800,151.400 274.800 C 151.629 274.800,153.427 273.183,155.394 271.206 C 157.744 268.845,159.107 267.747,159.366 268.006 C 159.591 268.231,162.454 268.400,166.056 268.400 M287.305 314.498 C 289.581 315.766,292.400 318.955,292.400 320.263 C 292.400 320.972,292.580 321.664,292.800 321.800 C 293.029 321.941,293.200 323.996,293.200 326.600 C 293.200 329.204,293.029 331.259,292.800 331.400 C 292.580 331.536,292.400 332.048,292.400 332.537 C 292.400 333.434,289.113 336.895,287.305 337.902 C 286.636 338.275,282.636 338.400,271.405 338.400 C 261.668 338.400,256.400 338.540,256.400 338.800 C 256.400 339.442,119.448 339.344,118.295 338.702 C 116.019 337.434,113.200 334.245,113.200 332.937 C 113.200 332.228,113.020 331.536,112.800 331.400 C 112.569 331.258,112.400 329.129,112.400 326.376 C 112.400 323.459,112.556 321.600,112.800 321.600 C 113.020 321.600,113.200 321.185,113.200 320.678 C 113.200 319.737,114.752 317.847,117.131 315.893 L 118.461 314.800 133.607 314.800 C 143.273 314.800,148.842 314.655,149.000 314.400 C 149.396 313.759,286.152 313.856,287.305 314.498 " stroke="none" fill="#fcfcfc" fill-rule="evenodd"></path><path id="path1" d="M200.000 81.200 C 200.000 81.420,199.021 81.600,197.824 81.600 C 196.627 81.600,195.536 81.780,195.400 82.000 C 195.264 82.220,194.364 82.400,193.400 82.400 C 192.436 82.400,191.536 82.580,191.400 82.800 C 191.264 83.020,190.801 83.200,190.371 83.200 C 189.941 83.200,189.277 83.369,188.895 83.576 C 188.513 83.783,186.662 84.677,184.782 85.563 C 182.903 86.448,180.936 87.629,180.413 88.187 C 179.889 88.744,179.305 89.200,179.115 89.200 C 178.609 89.200,171.200 96.571,171.200 97.075 C 171.200 97.310,170.928 97.728,170.595 98.004 C 170.262 98.280,169.443 99.697,168.775 101.153 C 168.106 102.609,167.388 104.113,167.180 104.495 C 166.971 104.877,166.800 105.541,166.800 105.971 C 166.800 106.401,166.620 106.864,166.400 107.000 C 166.180 107.136,166.000 107.676,166.000 108.200 C 166.000 108.724,165.820 109.264,165.600 109.400 C 165.380 109.536,165.200 110.616,165.200 111.800 C 165.200 112.984,165.020 114.064,164.800 114.200 C 164.580 114.336,164.400 115.686,164.400 117.200 C 164.400 118.714,164.580 120.064,164.800 120.200 C 165.020 120.336,165.200 121.416,165.200 122.600 C 165.200 123.784,165.380 124.864,165.600 125.000 C 165.820 125.136,166.000 125.676,166.000 126.200 C 166.000 126.724,166.180 127.264,166.400 127.400 C 166.620 127.536,166.800 127.999,166.800 128.429 C 166.800 128.859,166.971 129.523,167.180 129.905 C 167.388 130.287,168.106 131.791,168.775 133.247 C 169.443 134.703,170.262 136.120,170.595 136.396 C 170.928 136.672,171.200 137.058,171.200 137.254 C 171.200 137.950,178.631 145.029,180.087 145.719 C 180.900 146.105,181.671 146.591,181.799 146.798 C 181.926 147.005,183.239 147.729,184.716 148.407 C 186.192 149.086,187.713 149.812,188.095 150.020 C 188.477 150.229,189.141 150.400,189.571 150.400 C 190.001 150.400,190.464 150.580,190.600 150.800 C 190.736 151.020,191.276 151.200,191.800 151.200 C 192.324 151.200,192.864 151.380,193.000 151.600 C 193.136 151.820,193.856 152.000,194.600 152.000 C 195.344 152.000,196.064 152.180,196.200 152.400 C 196.336 152.620,197.247 152.800,198.224 152.800 C 199.201 152.800,200.000 152.980,200.000 153.200 C 200.000 153.438,201.525 153.600,203.776 153.600 C 205.863 153.600,207.663 153.421,207.800 153.200 C 207.936 152.980,208.836 152.800,209.800 152.800 C 210.764 152.800,211.664 152.620,211.800 152.400 C 211.936 152.180,212.476 152.000,213.000 152.000 C 213.524 152.000,214.064 151.820,214.200 151.600 C 214.336 151.380,214.979 151.200,215.629 151.200 C 216.279 151.200,217.123 151.042,217.505 150.849 C 219.186 149.999,221.274 149.200,221.814 149.200 C 222.136 149.200,222.400 149.020,222.400 148.800 C 222.400 148.580,222.720 148.400,223.112 148.400 C 223.503 148.400,224.083 148.040,224.400 147.600 C 224.717 147.160,225.257 146.800,225.600 146.800 C 225.943 146.800,226.483 146.440,226.800 146.000 C 227.117 145.560,227.624 145.200,227.927 145.200 C 228.565 145.200,235.595 138.017,235.598 137.362 C 235.599 137.121,235.925 136.630,236.322 136.271 C 236.719 135.911,237.293 134.983,237.597 134.209 C 237.901 133.434,238.296 132.800,238.475 132.800 C 238.654 132.800,238.800 132.440,238.800 132.000 C 238.800 131.560,238.980 131.200,239.200 131.200 C 239.420 131.200,239.600 130.840,239.600 130.400 C 239.600 129.960,239.780 129.600,240.000 129.600 C 240.220 129.600,240.400 129.060,240.400 128.400 C 240.400 127.740,240.580 127.200,240.800 127.200 C 241.020 127.200,241.200 126.660,241.200 126.000 C 241.200 125.340,241.380 124.800,241.600 124.800 C 241.820 124.800,242.000 123.821,242.000 122.624 C 242.000 121.427,242.180 120.336,242.400 120.200 C 242.620 120.064,242.800 118.714,242.800 117.200 C 242.800 115.686,242.620 114.336,242.400 114.200 C 242.180 114.064,242.000 112.973,242.000 111.776 C 242.000 110.579,241.820 109.600,241.600 109.600 C 241.380 109.600,241.200 109.060,241.200 108.400 C 241.200 107.740,241.020 107.200,240.800 107.200 C 240.580 107.200,240.400 106.660,240.400 106.000 C 240.400 105.340,240.220 104.800,240.000 104.800 C 239.780 104.800,239.600 104.440,239.600 104.000 C 239.600 103.560,239.420 103.200,239.200 103.200 C 238.980 103.200,238.800 102.840,238.800 102.400 C 238.800 101.960,238.620 101.600,238.400 101.600 C 238.180 101.600,238.000 101.240,238.000 100.800 C 238.000 100.360,237.820 100.000,237.600 100.000 C 237.380 100.000,237.200 99.758,237.200 99.462 C 237.200 99.166,236.840 98.598,236.400 98.200 C 235.960 97.802,235.599 97.279,235.598 97.038 C 235.595 96.429,228.587 89.200,227.999 89.200 C 227.736 89.200,227.017 88.660,226.400 88.000 C 225.783 87.340,224.991 86.800,224.640 86.800 C 224.288 86.800,224.000 86.620,224.000 86.400 C 224.000 86.180,223.640 86.000,223.200 86.000 C 222.760 86.000,222.400 85.820,222.400 85.600 C 222.400 85.380,222.040 85.200,221.600 85.200 C 221.160 85.200,220.800 85.036,220.800 84.835 C 220.800 84.634,220.081 84.349,219.202 84.200 C 218.323 84.052,217.503 83.766,217.378 83.565 C 217.254 83.364,216.724 83.200,216.200 83.200 C 215.676 83.200,215.136 83.020,215.000 82.800 C 214.864 82.580,214.144 82.400,213.400 82.400 C 212.656 82.400,211.936 82.220,211.800 82.000 C 211.664 81.780,210.584 81.600,209.400 81.600 C 208.216 81.600,207.136 81.420,207.000 81.200 C 206.864 80.980,205.233 80.800,203.376 80.800 C 201.392 80.800,200.000 80.965,200.000 81.200 M172.800 154.400 C 172.800 154.620,172.026 154.800,171.080 154.800 C 169.245 154.800,168.330 155.351,168.674 156.249 C 168.814 156.613,169.549 156.800,170.843 156.800 C 171.919 156.800,172.800 156.980,172.800 157.200 C 172.800 157.420,173.779 157.600,174.976 157.600 C 176.173 157.600,177.264 157.780,177.400 158.000 C 177.536 158.220,178.976 158.400,180.600 158.400 C 182.224 158.400,183.664 158.580,183.800 158.800 C 183.937 159.022,185.508 159.176,187.324 159.146 C 189.126 159.116,190.173 159.010,189.651 158.911 C 189.129 158.812,188.089 158.387,187.339 157.966 C 186.589 157.545,185.736 157.200,185.443 157.200 C 185.150 157.200,183.511 156.480,181.800 155.600 C 178.666 153.988,172.800 153.206,172.800 154.400 M227.600 154.400 C 227.600 154.620,227.240 154.800,226.800 154.800 C 226.360 154.800,226.000 154.980,226.000 155.200 C 226.000 155.420,225.640 155.600,225.200 155.600 C 224.760 155.600,224.400 155.780,224.400 156.000 C 224.400 156.220,223.860 156.400,223.200 156.400 C 222.540 156.400,222.000 156.580,222.000 156.800 C 222.000 157.020,221.640 157.200,221.200 157.200 C 220.760 157.200,220.400 157.380,220.400 157.600 C 220.400 157.820,220.040 158.000,219.600 158.000 C 219.160 158.000,218.800 158.169,218.800 158.376 C 218.800 158.583,218.125 158.822,217.300 158.909 L 215.800 159.066 217.476 159.133 C 218.398 159.170,219.264 159.020,219.400 158.800 C 219.539 158.575,221.471 158.400,223.824 158.400 C 226.341 158.400,228.000 158.241,228.000 158.000 C 228.000 157.778,229.067 157.600,230.400 157.600 C 231.733 157.600,232.800 157.422,232.800 157.200 C 232.800 156.980,233.588 156.800,234.551 156.800 C 236.469 156.800,237.506 156.066,236.710 155.270 C 236.452 155.012,235.477 154.800,234.544 154.800 C 233.611 154.800,232.736 154.620,232.600 154.400 C 232.464 154.180,231.283 154.000,229.976 154.000 C 228.659 154.000,227.600 154.178,227.600 154.400 M192.100 167.065 C 191.825 167.176,191.600 167.792,191.600 168.433 C 191.600 169.075,191.420 169.600,191.200 169.600 C 190.959 169.600,190.800 171.259,190.800 173.776 C 190.800 176.129,190.625 178.061,190.400 178.200 C 190.180 178.336,190.000 179.956,190.000 181.800 C 190.000 183.644,189.820 185.264,189.600 185.400 C 189.380 185.536,189.200 186.987,189.200 188.624 C 189.200 190.341,189.031 191.600,188.800 191.600 C 188.575 191.600,188.400 192.725,188.400 194.176 C 188.400 195.593,188.220 196.864,188.000 197.000 C 187.780 197.136,187.600 198.216,187.600 199.400 C 187.600 200.584,187.420 201.664,187.200 201.800 C 186.980 201.936,186.800 202.836,186.800 203.800 C 186.800 204.764,186.620 205.664,186.400 205.800 C 186.180 205.936,186.000 206.847,186.000 207.824 C 186.000 208.801,185.820 209.600,185.600 209.600 C 185.380 209.600,185.200 210.320,185.200 211.200 C 185.200 212.080,185.038 212.800,184.841 212.800 C 184.643 212.800,184.355 214.061,184.200 215.602 C 184.045 217.142,183.757 218.503,183.559 218.625 C 183.362 218.747,183.200 219.276,183.200 219.800 C 183.200 220.324,183.020 220.864,182.800 221.000 C 182.580 221.136,182.400 221.676,182.400 222.200 C 182.400 222.724,182.220 223.264,182.000 223.400 C 181.780 223.536,181.600 224.076,181.600 224.600 C 181.600 225.124,181.420 225.664,181.200 225.800 C 180.980 225.936,180.800 226.476,180.800 227.000 C 180.800 227.524,180.620 228.064,180.400 228.200 C 180.180 228.336,180.000 228.876,180.000 229.400 C 180.000 229.924,179.820 230.464,179.600 230.600 C 179.380 230.736,179.200 231.276,179.200 231.800 C 179.200 232.324,179.020 232.864,178.800 233.000 C 178.580 233.136,178.400 233.687,178.400 234.224 C 178.400 234.761,178.220 235.200,178.000 235.200 C 177.780 235.200,177.600 235.740,177.600 236.400 C 177.600 237.060,177.420 237.600,177.200 237.600 C 176.980 237.600,176.800 237.960,176.800 238.400 C 176.800 238.840,176.620 239.200,176.400 239.200 C 176.180 239.200,176.000 239.740,176.000 240.400 C 176.000 241.060,175.820 241.600,175.600 241.600 C 175.380 241.600,175.200 241.960,175.200 242.400 C 175.200 242.840,175.020 243.200,174.800 243.200 C 174.580 243.200,174.400 243.555,174.400 243.988 C 174.400 244.421,174.066 245.370,173.658 246.097 C 172.315 248.488,171.237 248.400,201.955 248.400 C 226.865 248.400,230.012 248.331,230.571 247.771 C 231.269 247.073,231.425 245.600,230.800 245.600 C 230.580 245.600,230.400 245.240,230.400 244.800 C 230.400 244.360,230.220 244.000,230.000 244.000 C 229.780 244.000,229.600 243.640,229.600 243.200 C 229.600 242.760,229.420 242.400,229.200 242.400 C 228.980 242.400,228.800 241.860,228.800 241.200 C 228.800 240.540,228.620 240.000,228.400 240.000 C 228.180 240.000,228.000 239.460,228.000 238.800 C 228.000 238.140,227.820 237.600,227.600 237.600 C 227.380 237.600,227.200 237.240,227.200 236.800 C 227.200 236.360,227.020 236.000,226.800 236.000 C 226.580 236.000,226.400 235.561,226.400 235.024 C 226.400 234.487,226.220 233.936,226.000 233.800 C 225.780 233.664,225.600 233.209,225.600 232.789 C 225.600 232.368,225.240 231.383,224.800 230.600 C 224.360 229.817,224.000 228.832,224.000 228.411 C 224.000 227.991,223.820 227.536,223.600 227.400 C 223.380 227.264,223.200 226.724,223.200 226.200 C 223.200 225.676,223.020 225.136,222.800 225.000 C 222.580 224.864,222.400 224.313,222.400 223.776 C 222.400 223.239,222.220 222.800,222.000 222.800 C 221.780 222.800,221.600 221.900,221.600 220.800 C 221.600 219.700,221.420 218.800,221.200 218.800 C 220.980 218.800,220.800 218.440,220.800 218.000 C 220.800 217.560,220.620 217.200,220.400 217.200 C 220.180 217.200,220.000 216.581,220.000 215.824 C 220.000 215.067,219.820 214.336,219.600 214.200 C 219.380 214.064,219.200 213.344,219.200 212.600 C 219.200 211.856,219.020 211.136,218.800 211.000 C 218.580 210.864,218.400 209.964,218.400 209.000 C 218.400 208.036,218.220 207.136,218.000 207.000 C 217.780 206.864,217.600 205.964,217.600 205.000 C 217.600 204.036,217.420 203.136,217.200 203.000 C 216.980 202.864,216.800 201.964,216.800 201.000 C 216.800 200.036,216.638 199.147,216.440 199.025 C 216.243 198.903,215.951 196.549,215.792 193.795 C 215.633 191.041,215.345 188.690,215.152 188.570 C 214.958 188.451,214.800 186.844,214.800 185.000 C 214.800 183.156,214.620 181.536,214.400 181.400 C 214.179 181.263,214.000 179.463,214.000 177.376 C 214.000 175.125,213.838 173.600,213.600 173.600 C 213.370 173.600,213.200 172.360,213.200 170.680 C 213.200 168.942,213.006 167.566,212.720 167.280 C 212.240 166.800,193.248 166.602,192.100 167.065 M187.600 255.200 C 187.600 255.456,183.875 255.600,177.224 255.600 C 170.737 255.600,166.755 255.750,166.600 256.000 C 166.455 256.235,164.129 256.400,160.976 256.400 C 157.659 256.400,155.600 256.553,155.600 256.800 C 155.600 257.035,154.208 257.200,152.224 257.200 C 150.367 257.200,148.736 257.380,148.600 257.600 C 148.464 257.820,147.769 258.000,147.056 258.000 C 146.343 258.000,145.548 258.212,145.290 258.470 C 144.498 259.262,145.529 260.000,147.425 260.000 C 148.375 260.000,149.264 260.180,149.400 260.400 C 149.536 260.620,151.167 260.800,153.024 260.800 C 155.008 260.800,156.400 260.965,156.400 261.200 C 156.400 261.445,158.325 261.600,161.376 261.600 C 164.263 261.600,166.457 261.768,166.600 262.000 C 166.755 262.251,170.871 262.400,177.624 262.400 C 184.541 262.400,188.400 262.543,188.400 262.800 C 188.400 263.059,193.392 263.200,202.576 263.200 C 211.596 263.200,216.843 263.054,217.000 262.800 C 217.155 262.550,221.137 262.400,227.624 262.400 C 234.275 262.400,238.000 262.256,238.000 262.000 C 238.000 261.753,240.059 261.600,243.376 261.600 C 246.529 261.600,248.855 261.435,249.000 261.200 C 249.136 260.980,250.767 260.800,252.624 260.800 C 254.608 260.800,256.000 260.635,256.000 260.400 C 256.000 260.180,256.643 260.000,257.429 260.000 C 258.214 260.000,259.087 259.770,259.369 259.489 C 260.153 258.704,259.146 258.000,257.240 258.000 C 256.364 258.000,255.536 257.820,255.400 257.600 C 255.264 257.380,253.644 257.200,251.800 257.200 C 249.956 257.200,248.336 257.020,248.200 256.800 C 248.058 256.570,245.937 256.400,243.200 256.400 C 240.463 256.400,238.342 256.230,238.200 256.000 C 238.045 255.749,233.937 255.600,227.200 255.600 C 220.463 255.600,216.355 255.451,216.200 255.200 C 216.043 254.946,210.796 254.800,201.776 254.800 C 192.592 254.800,187.600 254.941,187.600 255.200 M155.600 271.641 C 153.730 273.569,151.998 275.158,151.750 275.173 C 151.243 275.204,144.291 282.187,144.034 282.923 C 143.943 283.186,143.358 283.877,142.734 284.460 C 142.110 285.044,141.600 285.769,141.600 286.072 C 141.600 286.375,141.240 286.883,140.800 287.200 C 140.360 287.517,140.000 288.097,140.000 288.488 C 140.000 288.880,139.820 289.200,139.600 289.200 C 139.380 289.200,139.200 289.560,139.200 290.000 C 139.200 290.440,139.020 290.800,138.800 290.800 C 138.580 290.800,138.400 291.340,138.400 292.000 C 138.400 292.660,138.220 293.200,138.000 293.200 C 137.780 293.200,137.600 293.740,137.600 294.400 C 137.600 295.060,137.420 295.600,137.200 295.600 C 136.980 295.600,136.800 296.039,136.800 296.576 C 136.800 297.113,136.620 297.664,136.400 297.800 C 136.180 297.936,136.000 298.656,136.000 299.400 C 136.000 300.144,135.820 300.864,135.600 301.000 C 135.380 301.136,135.200 302.011,135.200 302.944 C 135.200 303.877,134.996 304.844,134.746 305.094 C 134.407 305.433,134.450 305.707,134.917 306.174 C 135.745 307.003,267.893 307.147,268.720 306.320 C 269.302 305.738,269.353 304.142,268.800 303.800 C 268.580 303.664,268.400 302.764,268.400 301.800 C 268.400 300.836,268.220 299.936,268.000 299.800 C 267.780 299.664,267.600 299.190,267.600 298.747 C 267.600 296.597,263.526 286.701,262.182 285.585 C 261.862 285.319,261.600 284.891,261.600 284.632 C 261.600 284.374,260.880 283.459,260.000 282.600 C 259.120 281.741,258.400 280.856,258.400 280.634 C 258.400 280.089,255.144 276.800,254.604 276.800 C 254.368 276.800,253.106 275.720,251.800 274.400 C 250.494 273.080,249.231 272.000,248.994 272.000 C 248.756 272.000,247.859 271.280,247.000 270.400 L 245.438 268.800 238.942 268.800 C 235.044 268.800,232.348 268.960,232.200 269.200 C 232.039 269.461,221.596 269.600,202.176 269.600 C 182.592 269.600,172.400 269.463,172.400 269.200 C 172.400 268.950,169.944 268.800,165.833 268.800 C 162.222 268.800,159.207 268.651,159.133 268.469 C 159.060 268.287,157.470 269.714,155.600 271.641 M149.200 314.800 C 149.200 315.060,143.932 315.200,134.195 315.200 C 122.957 315.200,118.965 315.325,118.295 315.699 C 116.501 316.698,113.600 319.765,113.600 320.661 C 113.600 321.152,113.420 321.664,113.200 321.800 C 112.971 321.942,112.800 324.004,112.800 326.624 C 112.800 329.408,112.957 331.200,113.200 331.200 C 113.420 331.200,113.600 331.826,113.600 332.591 C 113.600 334.145,116.819 338.000,118.117 338.000 C 118.492 338.000,118.800 338.180,118.800 338.400 C 118.800 338.665,141.925 338.800,187.376 338.800 C 232.663 338.800,256.037 338.664,256.200 338.400 C 256.358 338.145,261.784 338.000,271.162 338.000 C 283.763 338.000,286.059 337.909,287.142 337.369 C 289.008 336.438,292.000 333.205,292.000 332.121 C 292.000 331.614,292.180 331.200,292.400 331.200 C 292.643 331.200,292.800 329.400,292.800 326.600 C 292.800 323.800,292.643 322.000,292.400 322.000 C 292.180 322.000,292.000 321.365,292.000 320.589 C 292.000 319.033,289.636 316.260,287.263 315.033 C 285.789 314.270,149.200 314.040,149.200 314.800 " stroke="none" fill="#040404" fill-rule="evenodd"></path><path id="path2" d="" stroke="none" fill="#c010080" fill-rule="evenodd"></path><path id="path3" d="M199.800 80.800 C 199.664 81.020,198.573 81.200,197.376 81.200 C 196.179 81.200,195.200 81.335,195.200 81.500 C 195.199 81.914,199.311 81.612,199.780 81.163 C 200.298 80.668,206.691 80.701,207.000 81.200 C 207.136 81.420,208.216 81.600,209.400 81.600 C 210.584 81.600,211.664 81.780,211.800 82.000 C 211.936 82.220,212.656 82.400,213.400 82.400 C 214.144 82.400,214.851 82.559,214.971 82.754 C 215.092 82.949,215.723 83.186,216.374 83.282 C 217.025 83.377,217.467 83.308,217.355 83.128 C 217.244 82.947,216.724 82.800,216.200 82.800 C 215.676 82.800,215.136 82.620,215.000 82.400 C 214.864 82.180,214.144 82.000,213.400 82.000 C 212.656 82.000,211.936 81.820,211.800 81.600 C 211.664 81.380,210.584 81.200,209.400 81.200 C 208.216 81.200,207.136 81.020,207.000 80.800 C 206.864 80.580,205.244 80.400,203.400 80.400 C 201.556 80.400,199.936 80.580,199.800 80.800 M191.400 82.400 C 191.264 82.620,190.724 82.800,190.200 82.800 C 189.676 82.800,189.146 82.963,189.023 83.163 C 188.778 83.559,190.131 83.341,191.400 82.779 C 191.840 82.584,192.830 82.358,193.600 82.276 C 194.927 82.136,194.913 82.125,193.324 82.064 C 192.402 82.029,191.536 82.180,191.400 82.400 M180.400 87.800 C 179.883 88.350,179.264 88.800,179.023 88.800 C 178.500 88.800,170.800 96.456,170.800 96.976 C 170.800 97.174,170.485 97.711,170.100 98.169 C 169.401 98.999,169.401 98.999,170.300 98.238 C 170.795 97.819,171.200 97.275,171.200 97.030 C 171.200 96.467,178.469 89.200,179.033 89.200 C 179.262 89.200,179.968 88.660,180.600 88.000 C 181.232 87.340,181.657 86.800,181.545 86.800 C 181.432 86.800,180.917 87.250,180.400 87.800 M226.400 87.767 C 226.400 88.335,227.554 89.200,228.271 89.168 C 228.831 89.144,228.861 89.086,228.400 88.916 C 228.070 88.795,227.485 88.421,227.100 88.086 C 226.715 87.750,226.400 87.607,226.400 87.767 M234.938 95.931 C 235.302 96.334,235.600 96.852,235.600 97.083 C 235.600 97.313,235.870 97.726,236.200 98.000 C 236.615 98.344,236.800 98.359,236.800 98.049 C 236.800 97.802,236.620 97.600,236.400 97.600 C 236.180 97.600,236.000 97.317,236.000 96.971 C 236.000 96.328,235.088 95.200,234.567 95.200 C 234.407 95.200,234.574 95.529,234.938 95.931 M238.802 102.300 C 238.801 102.795,238.980 103.200,239.200 103.200 C 239.420 103.200,239.600 103.560,239.600 104.000 C 239.600 104.440,239.780 104.800,240.000 104.800 C 240.220 104.800,240.400 105.239,240.400 105.776 C 240.400 106.313,240.580 106.864,240.800 107.000 C 241.020 107.136,241.200 107.676,241.200 108.200 C 241.200 108.724,241.380 109.264,241.600 109.400 C 241.820 109.536,242.000 110.616,242.000 111.800 C 242.000 112.984,242.180 114.064,242.400 114.200 C 242.620 114.336,242.800 115.686,242.800 117.200 C 242.800 118.714,242.620 120.064,242.400 120.200 C 242.180 120.336,242.000 121.416,242.000 122.600 C 242.000 123.784,241.820 124.864,241.600 125.000 C 241.380 125.136,241.200 125.687,241.200 126.224 C 241.200 126.761,241.020 127.200,240.800 127.200 C 240.580 127.200,240.400 127.740,240.400 128.400 C 240.400 129.060,240.220 129.600,240.000 129.600 C 239.780 129.600,239.601 130.005,239.602 130.500 C 239.605 131.325,239.655 131.304,240.202 130.254 C 240.531 129.624,240.800 128.780,240.800 128.378 C 240.800 127.976,240.980 127.536,241.200 127.400 C 241.420 127.264,241.600 126.724,241.600 126.200 C 241.600 125.676,241.780 125.136,242.000 125.000 C 242.220 124.864,242.400 123.784,242.400 122.600 C 242.400 121.416,242.580 120.336,242.800 120.200 C 243.020 120.064,243.200 118.714,243.200 117.200 C 243.200 115.686,243.020 114.336,242.800 114.200 C 242.580 114.064,242.400 112.984,242.400 111.800 C 242.400 110.616,242.220 109.536,242.000 109.400 C 241.780 109.264,241.600 108.724,241.600 108.200 C 241.600 107.676,241.420 107.136,241.200 107.000 C 240.980 106.864,240.800 106.434,240.800 106.044 C 240.800 105.654,240.351 104.450,239.802 103.368 C 239.081 101.947,238.803 101.650,238.802 102.300 M165.867 107.067 C 165.720 107.213,165.600 107.753,165.600 108.267 C 165.600 108.780,165.420 109.200,165.200 109.200 C 164.972 109.200,164.830 110.187,164.870 111.500 C 164.933 113.593,164.952 113.638,165.079 112.000 C 165.156 111.010,165.380 109.840,165.576 109.400 C 165.951 108.559,166.393 106.800,166.229 106.800 C 166.176 106.800,166.013 106.920,165.867 107.067 M164.000 117.200 C 164.000 119.067,164.167 120.400,164.400 120.400 C 164.620 120.400,164.800 121.379,164.800 122.576 C 164.800 123.773,164.980 124.864,165.200 125.000 C 165.420 125.136,165.600 125.676,165.600 126.200 C 165.600 126.724,165.747 127.244,165.928 127.355 C 166.108 127.467,166.177 127.025,166.082 126.374 C 165.986 125.723,165.749 125.092,165.554 124.971 C 165.359 124.851,165.200 123.809,165.200 122.656 C 165.200 121.503,165.004 120.364,164.765 120.125 C 164.506 119.866,164.385 118.542,164.465 116.844 C 164.539 115.279,164.465 113.999,164.300 113.999 C 164.135 114.000,164.000 115.440,164.000 117.200 M237.246 134.838 C 237.221 135.189,236.840 135.802,236.400 136.200 C 235.960 136.598,235.600 137.135,235.600 137.392 C 235.600 137.650,235.151 138.283,234.602 138.799 C 234.052 139.314,233.682 139.815,233.777 139.911 C 234.040 140.174,236.000 138.106,236.000 137.565 C 236.000 137.306,236.375 136.768,236.834 136.371 C 237.316 135.953,237.589 135.342,237.480 134.924 C 237.335 134.361,237.282 134.342,237.246 134.838 M170.100 136.231 C 170.485 136.689,170.800 137.232,170.800 137.439 C 170.800 137.979,178.460 145.443,179.321 145.741 C 179.748 145.889,179.942 145.830,179.797 145.595 C 179.663 145.378,179.335 145.200,179.068 145.200 C 178.471 145.200,171.200 137.950,171.200 137.354 C 171.200 137.118,170.795 136.581,170.300 136.162 C 169.401 135.401,169.401 135.401,170.100 136.231 M188.245 150.472 C 188.356 150.653,188.876 150.800,189.400 150.800 C 189.924 150.800,190.464 150.980,190.600 151.200 C 190.736 151.420,191.276 151.600,191.800 151.600 C 192.324 151.600,192.864 151.780,193.000 152.000 C 193.136 152.220,193.867 152.400,194.624 152.400 C 195.381 152.400,196.000 152.580,196.000 152.800 C 196.000 153.025,196.920 153.169,198.100 153.130 L 200.200 153.060 198.400 152.905 C 197.410 152.819,196.429 152.581,196.220 152.375 C 196.011 152.169,195.257 152.000,194.544 152.000 C 193.831 152.000,193.136 151.820,193.000 151.600 C 192.864 151.380,192.324 151.200,191.800 151.200 C 191.276 151.200,190.749 151.041,190.629 150.846 C 190.508 150.651,189.877 150.414,189.226 150.318 C 188.575 150.223,188.133 150.292,188.245 150.472 M217.400 150.800 C 217.264 151.020,216.544 151.200,215.800 151.200 C 215.056 151.200,214.336 151.380,214.200 151.600 C 214.064 151.820,213.524 152.000,213.000 152.000 C 212.476 152.000,211.936 152.180,211.800 152.400 C 211.664 152.620,210.764 152.800,209.800 152.800 C 208.836 152.800,207.936 152.980,207.800 153.200 C 207.664 153.420,205.808 153.637,203.676 153.683 L 199.800 153.766 203.564 153.899 C 205.819 153.978,207.495 153.865,207.744 153.616 C 207.973 153.387,208.923 153.200,209.856 153.200 C 210.789 153.200,211.664 153.020,211.800 152.800 C 211.936 152.580,212.476 152.400,213.000 152.400 C 213.524 152.400,214.064 152.220,214.200 152.000 C 214.336 151.780,215.031 151.600,215.744 151.600 C 216.457 151.600,217.211 151.435,217.420 151.234 C 217.629 151.032,218.250 150.787,218.800 150.688 C 219.799 150.509,219.799 150.509,218.724 150.454 C 218.132 150.425,217.536 150.580,217.400 150.800 M171.000 154.297 C 169.035 154.496,166.742 156.400,168.467 156.400 C 168.723 156.400,168.815 156.282,168.670 156.137 C 168.078 155.545,169.403 154.800,171.049 154.800 C 172.012 154.800,172.800 154.620,172.800 154.400 C 172.800 154.180,172.755 154.030,172.700 154.067 C 172.645 154.104,171.880 154.208,171.000 154.297 M225.432 155.002 C 224.350 155.551,223.245 156.000,222.978 156.000 C 222.710 156.000,221.976 156.269,221.346 156.598 C 220.296 157.145,220.275 157.195,221.100 157.198 C 221.595 157.199,222.000 157.020,222.000 156.800 C 222.000 156.580,222.540 156.400,223.200 156.400 C 223.860 156.400,224.400 156.220,224.400 156.000 C 224.400 155.780,224.760 155.600,225.200 155.600 C 225.640 155.600,226.000 155.420,226.000 155.200 C 226.000 154.980,226.360 154.800,226.800 154.800 C 227.240 154.800,227.600 154.620,227.600 154.400 C 227.600 153.879,227.701 153.851,225.432 155.002 M232.662 154.500 C 232.764 154.665,233.625 154.800,234.575 154.800 C 237.935 154.800,237.778 156.605,234.392 156.903 L 232.600 157.060 234.438 157.130 C 236.768 157.219,238.075 156.146,236.903 155.106 C 236.203 154.485,232.309 153.929,232.662 154.500 M182.177 155.801 C 183.704 156.571,185.184 157.200,185.465 157.200 C 185.746 157.200,186.617 157.560,187.400 158.000 C 188.183 158.440,189.224 158.834,189.712 158.875 C 190.200 158.916,189.070 159.066,187.200 159.209 L 183.800 159.469 187.200 159.434 C 190.333 159.403,191.783 158.810,189.567 158.466 C 189.092 158.392,188.089 157.987,187.339 157.566 C 186.589 157.145,185.729 156.800,185.428 156.800 C 185.127 156.800,183.855 156.260,182.600 155.600 C 181.345 154.940,180.112 154.401,179.859 154.401 C 179.607 154.402,180.650 155.032,182.177 155.801 M170.400 157.095 C 171.390 157.181,172.371 157.419,172.580 157.625 C 172.789 157.831,173.878 158.000,175.000 158.000 C 176.122 158.000,177.228 158.188,177.459 158.419 C 177.702 158.662,179.116 158.779,180.839 158.698 L 183.800 158.559 180.724 158.479 C 179.032 158.436,177.536 158.220,177.400 158.000 C 177.264 157.780,176.173 157.600,174.976 157.600 C 173.779 157.600,172.800 157.420,172.800 157.200 C 172.800 156.975,171.880 156.831,170.700 156.870 L 168.600 156.940 170.400 157.095 M228.000 158.000 C 228.000 158.241,226.341 158.400,223.824 158.400 C 221.471 158.400,219.539 158.575,219.400 158.800 C 219.264 159.020,218.398 159.174,217.476 159.143 L 215.800 159.086 217.400 158.785 L 219.000 158.484 217.400 158.542 C 216.520 158.574,215.800 158.780,215.800 159.000 C 215.800 159.557,218.810 159.750,219.333 159.227 C 219.579 158.981,221.468 158.800,223.800 158.800 C 226.022 158.800,228.011 158.630,228.220 158.423 C 228.429 158.216,229.590 157.979,230.800 157.897 L 233.000 157.748 230.500 157.674 C 229.051 157.631,228.000 157.768,228.000 158.000 M191.293 168.400 C 191.293 169.170,191.375 169.485,191.476 169.100 C 191.576 168.715,191.576 168.085,191.476 167.700 C 191.375 167.315,191.293 167.630,191.293 168.400 M190.484 173.676 C 190.438 176.028,190.220 178.064,190.000 178.200 C 189.772 178.341,189.635 179.946,189.680 181.924 L 189.761 185.400 189.885 182.200 C 189.953 180.440,190.194 178.639,190.420 178.197 C 190.650 177.748,190.773 175.633,190.699 173.397 L 190.567 169.400 190.484 173.676 M188.879 188.276 C 188.836 189.858,188.620 191.264,188.400 191.400 C 188.180 191.536,188.000 192.771,188.000 194.144 C 188.000 195.517,187.836 196.811,187.635 197.020 C 187.195 197.479,186.873 202.004,187.300 201.739 C 187.465 201.637,187.600 200.584,187.600 199.400 C 187.600 198.216,187.780 197.136,188.000 197.000 C 188.220 196.864,188.400 195.608,188.400 194.210 C 188.400 192.791,188.586 191.605,188.819 191.527 C 189.079 191.440,189.186 190.248,189.099 188.394 L 188.959 185.400 188.879 188.276 M216.739 200.738 C 216.815 201.762,217.040 202.771,217.239 202.980 C 217.437 203.189,217.600 204.123,217.600 205.056 C 217.600 205.989,217.780 206.864,218.000 207.000 C 218.220 207.136,218.400 208.036,218.400 209.000 C 218.400 209.964,218.580 210.864,218.800 211.000 C 219.020 211.136,219.200 211.831,219.200 212.544 C 219.200 213.257,219.367 214.011,219.571 214.220 C 219.776 214.429,220.017 215.230,220.107 216.000 C 220.264 217.332,220.275 217.318,220.336 215.700 C 220.371 214.765,220.220 214.000,220.000 214.000 C 219.780 214.000,219.600 213.280,219.600 212.400 C 219.600 211.520,219.420 210.800,219.200 210.800 C 218.980 210.800,218.800 210.001,218.800 209.024 C 218.800 208.047,218.620 207.136,218.400 207.000 C 218.180 206.864,218.000 205.964,218.000 205.000 C 218.000 204.036,217.820 203.136,217.600 203.000 C 217.380 202.864,217.200 201.964,217.200 201.000 C 217.200 200.036,217.065 199.164,216.900 199.062 C 216.735 198.960,216.662 199.714,216.739 200.738 M220.802 217.900 C 220.801 218.395,220.980 218.800,221.200 218.800 C 221.420 218.800,221.600 219.599,221.600 220.576 C 221.600 221.553,221.780 222.464,222.000 222.600 C 222.220 222.736,222.400 223.276,222.400 223.800 C 222.400 224.324,222.580 224.864,222.800 225.000 C 223.020 225.136,223.200 225.676,223.200 226.200 C 223.200 226.724,223.380 227.264,223.600 227.400 C 223.820 227.536,224.000 227.991,224.000 228.411 C 224.000 228.832,224.360 229.817,224.800 230.600 C 225.240 231.383,225.600 232.343,225.600 232.732 C 225.600 233.121,225.765 233.611,225.966 233.820 C 226.168 234.029,226.413 234.650,226.512 235.200 C 226.691 236.199,226.691 236.199,226.746 235.124 C 226.775 234.532,226.620 233.936,226.400 233.800 C 226.180 233.664,226.000 233.209,226.000 232.789 C 226.000 232.368,225.640 231.383,225.200 230.600 C 224.760 229.817,224.400 228.832,224.400 228.411 C 224.400 227.991,224.220 227.536,224.000 227.400 C 223.780 227.264,223.600 226.724,223.600 226.200 C 223.600 225.676,223.420 225.136,223.200 225.000 C 222.980 224.864,222.800 224.324,222.800 223.800 C 222.800 223.276,222.620 222.736,222.400 222.600 C 222.180 222.464,222.000 221.664,222.000 220.822 C 222.000 219.980,221.731 218.776,221.402 218.146 C 220.855 217.096,220.805 217.075,220.802 217.900 M183.067 218.667 C 182.920 218.813,182.800 219.343,182.800 219.843 C 182.800 220.343,182.620 220.864,182.400 221.000 C 182.180 221.136,182.000 221.676,182.000 222.200 C 182.000 222.724,181.820 223.264,181.600 223.400 C 181.380 223.536,181.200 224.076,181.200 224.600 C 181.200 225.124,181.020 225.664,180.800 225.800 C 180.580 225.936,180.400 226.487,180.400 227.024 C 180.400 227.561,180.220 228.000,180.000 228.000 C 179.780 228.000,179.600 228.540,179.600 229.200 C 179.600 229.860,179.420 230.400,179.200 230.400 C 178.980 230.400,178.825 230.985,178.854 231.700 C 178.900 232.790,178.938 232.838,179.088 232.000 C 179.187 231.450,179.432 230.829,179.634 230.620 C 179.835 230.411,180.000 229.837,180.000 229.344 C 180.000 228.851,180.180 228.336,180.400 228.200 C 180.620 228.064,180.800 227.524,180.800 227.000 C 180.800 226.476,180.980 225.936,181.200 225.800 C 181.420 225.664,181.600 225.124,181.600 224.600 C 181.600 224.076,181.780 223.536,182.000 223.400 C 182.220 223.264,182.400 222.724,182.400 222.200 C 182.400 221.676,182.559 221.149,182.754 221.029 C 182.949 220.908,183.187 220.268,183.285 219.605 C 183.476 218.303,183.467 218.266,183.067 218.667 M178.093 234.000 C 178.093 234.770,178.175 235.085,178.276 234.700 C 178.376 234.315,178.376 233.685,178.276 233.300 C 178.175 232.915,178.093 233.230,178.093 234.000 M177.260 235.888 C 177.227 236.376,176.840 237.417,176.400 238.200 C 175.960 238.983,175.600 239.883,175.600 240.200 C 175.600 240.517,175.240 241.417,174.800 242.200 C 174.360 242.983,174.000 243.968,174.000 244.389 C 174.000 244.809,173.842 245.251,173.648 245.370 C 173.307 245.581,172.741 247.200,173.008 247.200 C 173.252 247.200,174.400 244.685,174.400 244.151 C 174.400 243.861,174.760 242.983,175.200 242.200 C 175.640 241.417,176.000 240.421,176.000 239.988 C 176.000 239.555,176.180 239.200,176.400 239.200 C 176.620 239.200,176.800 238.855,176.800 238.433 C 176.800 238.012,176.996 237.601,177.235 237.522 C 177.474 237.442,177.591 236.842,177.495 236.188 C 177.372 235.352,177.302 235.263,177.260 235.888 M228.000 239.000 C 228.000 239.550,228.155 240.000,228.345 240.000 C 228.534 240.000,228.603 239.550,228.498 239.000 C 228.393 238.450,228.238 238.000,228.153 238.000 C 228.069 238.000,228.000 238.450,228.000 239.000 M228.800 241.400 C 228.800 241.950,228.955 242.400,229.145 242.400 C 229.334 242.400,229.403 241.950,229.298 241.400 C 229.193 240.850,229.038 240.400,228.953 240.400 C 228.869 240.400,228.800 240.850,228.800 241.400 M201.785 254.700 C 210.296 254.767,215.925 254.965,216.165 255.205 C 216.405 255.445,220.735 255.600,227.200 255.600 C 233.988 255.600,237.990 255.750,238.253 256.013 C 238.506 256.266,240.513 256.377,243.433 256.299 L 248.200 256.172 243.324 256.086 C 240.603 256.038,238.338 255.823,238.200 255.600 C 238.045 255.349,233.937 255.200,227.200 255.200 C 220.463 255.200,216.355 255.051,216.200 254.800 C 216.041 254.543,210.933 254.434,201.876 254.495 L 187.800 254.589 201.785 254.700 M166.600 255.600 C 166.455 255.834,164.137 256.000,161.000 256.000 C 157.863 256.000,155.545 256.166,155.400 256.400 C 155.264 256.620,153.734 256.800,152.000 256.800 C 150.266 256.800,148.736 256.980,148.600 257.200 C 148.464 257.420,147.761 257.600,147.038 257.600 C 146.271 257.600,145.447 257.906,145.059 258.335 C 144.099 259.396,145.290 260.400,147.508 260.400 C 148.413 260.400,149.264 260.580,149.400 260.800 C 149.536 261.020,151.066 261.200,152.800 261.200 C 154.534 261.200,156.064 261.380,156.200 261.600 C 156.343 261.832,158.530 262.000,161.400 262.000 C 164.270 262.000,166.457 262.168,166.600 262.400 C 166.757 262.655,170.802 262.766,177.724 262.707 L 188.600 262.614 177.813 262.500 C 171.439 262.433,166.866 262.226,166.633 261.993 C 166.417 261.777,164.026 261.600,161.320 261.600 C 158.307 261.600,156.400 261.445,156.400 261.200 C 156.400 260.965,155.008 260.800,153.024 260.800 C 151.167 260.800,149.536 260.620,149.400 260.400 C 149.264 260.180,148.389 260.000,147.456 260.000 C 145.520 260.000,144.567 259.363,145.258 258.530 C 145.500 258.238,146.295 258.000,147.025 258.000 C 147.755 258.000,148.464 257.820,148.600 257.600 C 148.736 257.380,150.367 257.200,152.224 257.200 C 154.208 257.200,155.600 257.035,155.600 256.800 C 155.600 256.553,157.640 256.400,160.920 256.400 C 163.871 256.400,166.415 256.225,166.633 256.007 C 166.864 255.776,171.306 255.567,177.413 255.500 L 187.800 255.386 177.324 255.293 C 170.669 255.234,166.757 255.346,166.600 255.600 M251.598 257.099 C 253.467 257.174,255.168 257.408,255.378 257.618 C 255.588 257.828,256.457 258.000,257.309 258.000 C 259.149 258.000,260.169 258.753,259.357 259.511 C 259.069 259.780,258.297 260.000,257.640 260.000 C 256.984 260.000,256.336 260.180,256.200 260.400 C 256.064 260.620,254.444 260.800,252.600 260.800 C 250.756 260.800,249.136 260.980,249.000 261.200 C 248.856 261.433,246.604 261.600,243.600 261.600 C 240.596 261.600,238.344 261.767,238.200 262.000 C 238.045 262.250,234.070 262.400,227.600 262.400 C 221.906 262.400,217.164 262.535,217.061 262.700 C 216.782 263.151,237.720 262.840,238.173 262.387 C 238.386 262.174,240.853 262.000,243.656 262.000 C 246.623 262.000,248.856 261.833,249.000 261.600 C 249.136 261.380,250.756 261.200,252.600 261.200 C 254.444 261.200,256.064 261.020,256.200 260.800 C 256.336 260.580,257.039 260.400,257.762 260.400 C 258.529 260.400,259.353 260.094,259.741 259.665 C 260.701 258.604,259.510 257.600,257.292 257.600 C 256.387 257.600,255.536 257.420,255.400 257.200 C 255.259 256.972,253.655 256.835,251.676 256.881 L 248.200 256.963 251.598 257.099 M246.981 270.300 C 247.851 271.235,248.756 272.000,248.994 272.000 C 249.231 272.000,250.494 273.080,251.800 274.400 C 253.106 275.720,254.368 276.800,254.604 276.800 C 255.144 276.800,258.400 280.089,258.400 280.634 C 258.400 280.856,259.120 281.741,260.000 282.600 C 260.880 283.459,261.600 284.368,261.600 284.619 C 261.600 284.870,262.005 285.419,262.500 285.838 C 263.399 286.599,263.399 286.599,262.700 285.769 C 262.315 285.311,262.000 284.763,262.000 284.550 C 262.000 284.337,261.280 283.459,260.400 282.600 C 259.520 281.741,258.800 280.842,258.800 280.604 C 258.800 280.063,255.118 276.400,254.574 276.400 C 254.354 276.400,253.106 275.320,251.800 274.000 C 250.494 272.680,249.247 271.600,249.029 271.600 C 248.812 271.600,247.906 270.925,247.017 270.100 L 245.400 268.600 246.981 270.300 M146.100 279.824 C 144.725 281.233,143.614 282.704,143.632 283.093 C 143.656 283.646,143.710 283.669,143.878 283.200 C 143.996 282.870,145.282 281.385,146.736 279.900 C 148.189 278.415,149.203 277.214,148.989 277.230 C 148.775 277.247,147.475 278.414,146.100 279.824 M138.900 289.538 C 138.405 290.575,138.000 291.723,138.000 292.088 C 138.000 292.454,137.841 292.851,137.646 292.971 C 137.451 293.092,137.214 293.723,137.118 294.374 C 137.023 295.025,137.092 295.467,137.272 295.355 C 137.453 295.244,137.600 294.713,137.600 294.176 C 137.600 293.639,137.780 293.200,138.000 293.200 C 138.220 293.200,138.400 292.660,138.400 292.000 C 138.400 291.340,138.580 290.800,138.800 290.800 C 139.020 290.800,139.200 290.455,139.200 290.033 C 139.200 289.612,139.401 289.200,139.646 289.118 C 139.891 289.036,140.026 288.673,139.946 288.311 C 139.853 287.893,139.471 288.341,138.900 289.538 M266.702 295.400 C 266.807 295.950,266.962 296.400,267.047 296.400 C 267.131 296.400,267.200 295.950,267.200 295.400 C 267.200 294.850,267.045 294.400,266.855 294.400 C 266.666 294.400,266.597 294.850,266.702 295.400 M267.525 298.204 C 267.615 298.976,267.849 299.706,268.044 299.827 C 268.240 299.948,268.400 300.836,268.400 301.800 C 268.400 302.764,268.580 303.664,268.800 303.800 C 269.381 304.159,269.290 305.827,268.660 306.350 C 268.268 306.675,249.947 306.826,201.560 306.900 L 135.000 307.002 201.729 307.101 C 274.244 307.209,269.600 307.349,269.600 305.052 C 269.600 304.499,269.420 303.936,269.200 303.800 C 268.980 303.664,268.800 302.764,268.800 301.800 C 268.800 300.836,268.620 299.936,268.400 299.800 C 268.180 299.664,268.000 298.933,268.000 298.176 C 268.000 297.419,267.856 296.800,267.680 296.800 C 267.504 296.800,267.434 297.432,267.525 298.204 M183.500 314.300 C 202.475 314.357,233.525 314.357,252.500 314.300 C 271.475 314.243,255.950 314.195,218.000 314.195 C 180.050 314.195,164.525 314.243,183.500 314.300 M118.661 315.100 C 118.492 315.373,129.889 315.367,143.600 315.086 C 146.570 315.025,142.216 314.936,133.924 314.888 C 125.632 314.839,118.764 314.935,118.661 315.100 M115.286 317.713 C 114.067 318.947,113.200 320.184,113.200 320.689 C 113.200 321.164,113.020 321.664,112.800 321.800 C 112.571 321.941,112.400 323.996,112.400 326.600 C 112.400 329.204,112.571 331.259,112.800 331.400 C 113.020 331.536,113.229 332.312,113.264 333.124 L 113.328 334.600 113.493 333.249 C 113.584 332.506,113.465 331.705,113.229 331.469 C 112.678 330.918,112.651 322.139,113.200 321.800 C 113.420 321.664,113.600 321.140,113.600 320.634 C 113.600 320.041,114.371 318.987,115.776 317.658 C 116.973 316.526,117.822 315.600,117.662 315.600 C 117.503 315.600,116.434 316.551,115.286 317.713 M289.634 316.647 C 290.165 317.333,290.680 317.823,290.779 317.735 C 290.877 317.647,290.443 317.086,289.813 316.488 L 288.669 315.400 289.634 316.647 M292.060 320.300 C 292.027 321.235,292.180 322.000,292.400 322.000 C 292.639 322.000,292.834 323.890,292.885 326.700 L 292.970 331.400 293.099 327.001 C 293.171 324.576,293.049 322.242,292.829 321.801 C 292.608 321.360,292.359 320.460,292.274 319.800 C 292.156 318.884,292.106 319.003,292.060 320.300 M115.400 336.320 C 118.328 339.468,111.612 339.200,187.638 339.200 C 232.750 339.200,256.037 339.064,256.200 338.800 C 256.358 338.545,261.937 338.400,271.624 338.400 C 281.475 338.400,286.800 338.260,286.800 338.000 C 286.800 337.780,287.083 337.600,287.429 337.600 C 288.072 337.600,289.200 336.688,289.200 336.167 C 289.200 336.007,288.885 336.129,288.500 336.438 C 286.582 337.978,286.339 338.000,271.229 338.000 C 261.806 338.000,256.358 338.145,256.200 338.400 C 255.803 339.042,119.447 338.944,118.295 338.301 C 117.803 338.026,116.590 337.081,115.600 336.201 L 113.801 334.600 115.400 336.320 " stroke="none" fill="#408480" fill-rule="evenodd"></path><path id="path4" d="M197.323 166.699 C 200.141 166.768,204.641 166.768,207.323 166.699 C 210.005 166.630,207.700 166.573,202.200 166.573 C 196.700 166.574,194.505 166.630,197.323 166.699 M216.128 196.400 C 216.128 197.830,216.201 198.415,216.289 197.700 C 216.378 196.985,216.378 195.815,216.289 195.100 C 216.201 194.385,216.128 194.970,216.128 196.400 M183.693 217.200 C 183.693 217.970,183.775 218.285,183.876 217.900 C 183.976 217.515,183.976 216.885,183.876 216.500 C 183.775 216.115,183.693 216.430,183.693 217.200 " stroke="none" fill="#400484" fill-rule="evenodd"></path></g></svg>