<svg id="svg" version="1.1" xmlns="http://www.w3.org/2000/svg" xmlns:xlink="http://www.w3.org/1999/xlink" width="400" height="400" viewBox="0, 0, 400,400"><g id="svgg"><path id="path0" d="M192.700 25.076 C 192.315 25.176,192.000 25.382,192.000 25.532 C 192.000 25.682,191.460 26.044,190.800 26.336 C 190.069 26.659,189.600 27.167,189.600 27.634 C 189.600 28.055,189.420 28.400,189.200 28.400 C 188.980 28.400,188.800 28.760,188.800 29.200 C 188.800 29.640,188.620 30.000,188.400 30.000 C 188.143 30.000,188.000 33.933,188.000 41.000 L 188.000 52.000 175.400 52.000 C 167.267 52.000,162.800 52.142,162.800 52.400 C 162.800 52.620,162.440 52.800,162.000 52.800 C 161.560 52.800,161.200 52.980,161.200 53.200 C 161.200 53.420,160.927 53.600,160.594 53.600 C 159.901 53.600,158.404 55.853,158.401 56.900 C 158.401 57.285,158.220 57.600,158.000 57.600 C 157.753 57.600,157.600 59.667,157.600 63.000 C 157.600 66.333,157.753 68.400,158.000 68.400 C 158.220 68.400,158.401 68.715,158.401 69.100 C 158.404 70.147,159.901 72.400,160.594 72.400 C 160.927 72.400,161.200 72.580,161.200 72.800 C 161.200 73.020,161.560 73.200,162.000 73.200 C 162.440 73.200,162.800 73.380,162.800 73.600 C 162.800 73.858,167.267 74.000,175.400 74.000 L 188.000 74.000 188.000 87.200 C 188.000 95.733,187.859 100.400,187.600 100.400 C 187.380 100.400,187.200 100.123,187.200 99.785 C 187.200 99.446,185.583 97.601,183.606 95.685 C 178.615 90.846,178.100 90.400,177.503 90.400 C 177.213 90.400,176.717 90.040,176.400 89.600 C 176.083 89.160,175.593 88.800,175.312 88.800 C 175.030 88.800,174.800 88.620,174.800 88.400 C 174.800 88.180,174.480 88.000,174.088 88.000 C 173.697 88.000,173.117 87.640,172.800 87.200 C 172.483 86.760,171.903 86.400,171.512 86.400 C 171.120 86.400,170.800 86.220,170.800 86.000 C 170.800 85.780,170.260 85.600,169.600 85.600 C 168.940 85.600,168.400 85.420,168.400 85.200 C 168.400 84.980,168.040 84.800,167.600 84.800 C 167.160 84.800,166.800 84.620,166.800 84.400 C 166.800 84.180,166.260 84.000,165.600 84.000 C 164.940 84.000,164.400 83.820,164.400 83.600 C 164.400 83.380,163.860 83.200,163.200 83.200 C 162.540 83.200,162.000 83.020,162.000 82.800 C 162.000 82.580,161.460 82.400,160.800 82.400 C 160.140 82.400,159.600 82.220,159.600 82.000 C 159.600 81.780,158.981 81.600,158.224 81.600 C 157.467 81.600,156.736 81.420,156.600 81.200 C 156.464 80.980,155.373 80.800,154.176 80.800 C 152.979 80.800,152.000 80.620,152.000 80.400 C 152.000 80.144,148.467 80.000,142.200 80.000 C 135.933 80.000,132.400 80.144,132.400 80.400 C 132.400 80.620,131.500 80.800,130.400 80.800 C 129.300 80.800,128.400 80.980,128.400 81.200 C 128.400 81.420,127.961 81.600,127.424 81.600 C 126.887 81.600,126.336 81.780,126.200 82.000 C 126.064 82.220,125.513 82.400,124.976 82.400 C 124.439 82.400,124.000 82.580,124.000 82.800 C 124.000 83.020,123.640 83.200,123.200 83.200 C 122.760 83.200,122.400 83.380,122.400 83.600 C 122.400 83.820,122.040 84.000,121.600 84.000 C 121.160 84.000,120.800 84.180,120.800 84.400 C 120.800 84.620,120.480 84.800,120.088 84.800 C 119.697 84.800,119.117 85.160,118.800 85.600 C 118.483 86.040,117.987 86.400,117.698 86.400 C 116.969 86.400,114.400 89.038,114.400 89.787 C 114.400 90.124,114.117 90.400,113.771 90.400 C 113.053 90.400,112.000 91.334,112.000 91.971 C 112.000 92.207,111.850 92.400,111.668 92.400 C 111.485 92.400,111.080 92.895,110.768 93.500 C 110.455 94.105,109.887 94.947,109.505 95.370 C 109.123 95.794,108.698 96.739,108.560 97.470 C 108.423 98.202,108.151 98.800,107.955 98.800 C 107.760 98.800,107.600 99.340,107.600 100.000 C 107.600 100.660,107.420 101.200,107.200 101.200 C 106.980 101.200,106.800 101.740,106.800 102.400 C 106.800 103.060,106.620 103.600,106.400 103.600 C 106.180 103.600,106.000 104.320,106.000 105.200 C 106.000 106.080,105.820 106.800,105.600 106.800 C 105.369 106.800,105.200 108.067,105.200 109.800 C 105.200 111.533,105.031 112.800,104.800 112.800 C 104.578 112.800,104.400 113.867,104.400 115.200 C 104.400 116.533,104.578 117.600,104.800 117.600 C 105.029 117.600,105.200 118.800,105.200 120.400 C 105.200 122.000,105.371 123.200,105.600 123.200 C 105.820 123.200,106.000 124.190,106.000 125.400 C 106.000 126.610,106.180 127.600,106.400 127.600 C 106.620 127.600,106.800 128.140,106.800 128.800 C 106.800 129.460,106.980 130.000,107.200 130.000 C 107.420 130.000,107.600 130.540,107.600 131.200 C 107.600 131.860,107.780 132.400,108.000 132.400 C 108.220 132.400,108.400 132.747,108.400 133.171 C 108.400 133.596,108.670 134.213,109.000 134.543 C 109.330 134.873,109.600 135.578,109.600 136.110 C 109.600 137.238,110.557 139.301,111.408 140.007 C 111.734 140.277,112.000 140.746,112.000 141.049 C 112.000 141.352,112.180 141.600,112.400 141.600 C 112.620 141.600,112.800 141.920,112.800 142.312 C 112.800 142.703,113.160 143.283,113.600 143.600 C 114.040 143.917,114.400 144.497,114.400 144.888 C 114.400 145.280,114.580 145.600,114.800 145.600 C 115.020 145.600,115.200 145.888,115.200 146.240 C 115.200 146.591,115.740 147.383,116.400 148.000 C 117.060 148.617,117.600 149.369,117.600 149.672 C 117.600 149.975,117.960 150.483,118.400 150.800 C 118.840 151.117,119.200 151.621,119.200 151.920 C 119.200 152.218,119.920 153.154,120.800 154.000 C 121.680 154.846,122.402 155.776,122.404 156.069 C 122.406 156.361,122.956 157.033,123.626 157.563 C 124.296 158.092,125.128 159.074,125.475 159.745 C 125.822 160.415,126.802 161.633,127.653 162.451 C 128.504 163.268,129.200 164.149,129.200 164.408 C 129.200 164.667,129.741 165.384,130.402 166.002 C 132.267 167.744,131.708 168.400,128.357 168.400 C 126.786 168.400,125.600 168.572,125.600 168.800 C 125.600 169.020,124.790 169.200,123.800 169.200 C 122.810 169.200,122.000 169.380,122.000 169.600 C 122.000 169.820,121.190 170.000,120.200 170.000 C 119.210 170.000,118.400 170.180,118.400 170.400 C 118.400 170.620,118.130 170.800,117.800 170.800 C 117.470 170.800,117.200 170.980,117.200 171.200 C 117.200 171.420,116.880 171.600,116.488 171.600 C 116.097 171.600,115.512 171.982,115.188 172.449 C 114.865 172.916,114.375 173.533,114.100 173.820 C 113.732 174.205,113.600 176.580,113.600 182.800 C 113.600 191.805,113.722 192.400,115.571 192.400 C 116.027 192.400,116.400 192.580,116.400 192.800 C 116.400 193.020,116.760 193.200,117.200 193.200 C 117.640 193.200,118.000 193.380,118.000 193.600 C 118.000 193.820,118.630 194.000,119.400 194.000 C 120.170 194.000,120.800 194.180,120.800 194.400 C 120.800 194.620,121.610 194.800,122.600 194.800 C 123.590 194.800,124.400 194.980,124.400 195.200 C 124.400 195.426,125.533 195.600,127.000 195.600 C 128.467 195.600,129.600 195.774,129.600 196.000 C 129.600 196.231,130.856 196.400,132.567 196.400 C 134.198 196.400,135.593 196.576,135.667 196.792 C 135.740 197.008,137.555 197.206,139.700 197.234 C 141.845 197.261,143.600 197.444,143.600 197.641 C 143.600 197.839,146.030 198.000,149.000 198.000 C 152.333 198.000,154.400 198.153,154.400 198.400 C 154.400 198.635,155.785 198.800,157.755 198.800 L 161.109 198.800 161.391 200.679 C 161.621 202.216,161.546 202.650,160.977 203.066 C 160.360 203.518,160.306 204.120,160.503 208.388 C 160.694 212.546,160.641 213.200,160.110 213.200 C 159.584 213.200,159.522 213.809,159.683 217.416 C 159.837 220.878,159.763 221.693,159.273 221.967 C 158.782 222.242,158.718 222.956,158.912 225.951 C 159.052 228.117,158.996 229.600,158.774 229.600 C 158.568 229.600,158.400 231.130,158.400 233.000 C 158.400 235.000,158.235 236.400,158.000 236.400 C 157.769 236.400,157.600 237.667,157.600 239.400 C 157.600 241.133,157.431 242.400,157.200 242.400 C 156.980 242.400,156.800 243.120,156.800 244.000 C 156.800 244.880,156.620 245.600,156.400 245.600 C 155.826 245.600,155.906 246.689,156.500 246.967 C 156.900 247.153,156.900 247.247,156.500 247.433 C 156.183 247.581,156.000 248.531,156.000 250.033 C 156.000 251.344,155.822 252.400,155.600 252.400 C 155.380 252.400,155.200 253.300,155.200 254.400 C 155.200 255.500,155.020 256.400,154.800 256.400 C 154.580 256.400,154.400 257.210,154.400 258.200 C 154.400 259.190,154.220 260.000,154.000 260.000 C 153.780 260.000,153.600 260.810,153.600 261.800 C 153.600 262.790,153.420 263.600,153.200 263.600 C 152.980 263.600,152.800 264.230,152.800 265.000 C 152.800 265.770,152.620 266.400,152.400 266.400 C 152.180 266.400,152.000 267.120,152.000 268.000 C 152.000 268.880,151.820 269.600,151.600 269.600 C 151.380 269.600,151.200 270.320,151.200 271.200 C 151.200 272.080,151.020 272.800,150.800 272.800 C 150.580 272.800,150.400 273.250,150.400 273.800 C 150.400 274.350,150.220 274.800,150.000 274.800 C 149.780 274.800,149.600 275.340,149.600 276.000 C 149.600 276.660,149.420 277.200,149.200 277.200 C 148.980 277.200,148.800 277.740,148.800 278.400 C 148.800 279.060,148.620 279.600,148.400 279.600 C 148.180 279.600,148.000 280.140,148.000 280.800 C 148.000 281.460,147.820 282.000,147.600 282.000 C 147.380 282.000,147.200 282.270,147.200 282.600 C 147.200 282.930,147.000 283.200,146.755 283.200 C 146.484 283.200,146.381 283.686,146.491 284.437 C 146.609 285.240,146.484 285.746,146.136 285.880 C 145.841 285.993,145.600 286.336,145.600 286.643 C 145.600 286.949,145.398 287.200,145.150 287.200 C 144.862 287.200,144.788 287.638,144.943 288.415 C 145.117 289.287,145.018 289.695,144.593 289.858 C 144.267 289.983,144.000 290.336,144.000 290.643 C 144.000 290.949,143.797 291.200,143.550 291.200 C 143.263 291.200,143.187 291.636,143.340 292.400 C 143.524 293.318,143.435 293.600,142.963 293.600 C 142.528 293.600,142.421 293.836,142.600 294.400 C 142.776 294.953,142.672 295.200,142.264 295.200 C 141.872 295.200,141.745 295.467,141.884 296.000 C 142.001 296.447,141.896 296.800,141.647 296.800 C 141.401 296.800,141.200 297.070,141.200 297.400 C 141.200 297.730,141.020 298.000,140.800 298.000 C 140.580 298.000,140.400 298.360,140.400 298.800 C 140.400 299.240,140.220 299.600,140.000 299.600 C 139.780 299.600,139.600 300.140,139.600 300.800 C 139.600 301.460,139.420 302.000,139.200 302.000 C 138.980 302.000,138.800 302.360,138.800 302.800 C 138.800 303.240,138.620 303.600,138.400 303.600 C 138.180 303.600,138.000 303.960,138.000 304.400 C 138.000 304.840,137.820 305.200,137.600 305.200 C 137.380 305.200,137.200 305.560,137.200 306.000 C 137.200 306.440,137.020 306.800,136.800 306.800 C 136.580 306.800,136.400 307.148,136.400 307.573 C 136.400 307.998,136.040 308.460,135.600 308.600 C 135.009 308.788,134.800 309.205,134.800 310.200 C 134.800 311.195,134.591 311.612,134.000 311.800 C 133.560 311.940,133.200 312.402,133.200 312.827 C 133.200 313.252,133.020 313.600,132.800 313.600 C 132.580 313.600,132.400 313.960,132.400 314.400 C 132.400 314.840,132.220 315.200,132.000 315.200 C 131.780 315.200,131.600 315.560,131.600 316.000 C 131.600 316.440,131.420 316.800,131.200 316.800 C 130.980 316.800,130.800 317.160,130.800 317.600 C 130.800 318.040,130.599 318.400,130.353 318.400 C 130.099 318.400,130.000 318.755,130.122 319.224 C 130.251 319.717,130.119 320.133,129.794 320.258 C 129.495 320.372,129.348 320.721,129.468 321.033 C 129.602 321.383,129.429 321.600,129.016 321.600 C 128.528 321.600,128.415 321.817,128.600 322.400 C 128.851 323.190,128.672 323.200,114.227 323.200 C 104.742 323.200,99.600 323.341,99.600 323.600 C 99.600 323.820,99.060 324.000,98.400 324.000 C 97.740 324.000,97.200 324.180,97.200 324.400 C 97.200 324.620,96.643 324.800,95.963 324.800 C 95.056 324.800,94.668 325.017,94.513 325.611 C 94.372 326.150,94.075 326.351,93.628 326.209 C 92.908 325.980,89.600 329.195,89.600 330.122 C 89.600 330.398,89.240 330.883,88.800 331.200 C 88.330 331.539,88.000 332.235,88.000 332.888 C 88.000 333.500,87.820 334.000,87.600 334.000 C 87.380 334.000,87.200 334.630,87.200 335.400 C 87.200 336.170,87.020 336.800,86.800 336.800 C 86.547 336.800,86.400 339.608,86.400 344.424 C 86.400 349.404,86.539 351.962,86.800 351.800 C 87.038 351.653,87.200 352.129,87.200 352.976 C 87.200 353.759,87.380 354.400,87.600 354.400 C 87.820 354.400,88.000 354.928,88.000 355.573 C 88.000 356.395,88.240 356.822,88.800 357.000 C 89.240 357.140,89.600 357.511,89.600 357.826 C 89.600 358.141,90.230 359.066,91.000 359.882 C 91.770 360.699,92.400 361.509,92.400 361.683 C 92.400 361.858,92.838 362.000,93.373 362.000 C 93.995 362.000,94.438 362.289,94.600 362.800 C 94.778 363.360,95.205 363.600,96.027 363.600 C 96.672 363.600,97.200 363.780,97.200 364.000 C 97.200 364.220,97.830 364.400,98.600 364.400 C 99.370 364.400,100.000 364.580,100.000 364.800 C 100.000 365.066,133.133 365.200,198.600 365.200 C 264.067 365.200,297.200 365.066,297.200 364.800 C 297.200 364.580,297.740 364.400,298.400 364.400 C 299.060 364.400,299.600 364.220,299.600 364.000 C 299.600 363.780,300.128 363.600,300.773 363.600 C 301.595 363.600,302.022 363.360,302.200 362.800 C 302.340 362.360,302.798 362.000,303.218 362.000 C 303.638 362.000,305.012 361.002,306.272 359.781 C 307.532 358.561,308.256 357.680,307.882 357.824 C 307.507 357.968,307.200 357.907,307.200 357.689 C 307.200 357.472,307.560 357.199,308.000 357.084 C 308.583 356.932,308.800 356.538,308.800 355.637 C 308.800 354.957,308.980 354.400,309.200 354.400 C 309.420 354.400,309.600 353.770,309.600 353.000 C 309.600 352.230,309.780 351.600,310.000 351.600 C 310.253 351.600,310.400 348.800,310.400 344.000 C 310.400 339.200,310.253 336.400,310.000 336.400 C 309.780 336.400,309.600 335.860,309.600 335.200 C 309.600 334.540,309.420 334.000,309.200 334.000 C 308.980 334.000,308.800 333.443,308.800 332.763 C 308.800 331.846,308.585 331.469,307.968 331.307 C 307.377 331.153,307.195 330.863,307.340 330.307 C 307.608 329.283,304.250 325.818,303.332 326.171 C 302.908 326.333,302.780 326.229,302.928 325.844 C 303.155 325.251,302.136 324.815,300.500 324.805 C 300.005 324.802,299.600 324.620,299.600 324.400 C 299.600 324.180,298.970 324.000,298.200 324.000 C 297.430 324.000,296.800 323.820,296.800 323.600 C 296.800 323.342,292.200 323.200,283.800 323.200 C 271.604 323.200,270.800 323.156,270.800 322.488 C 270.800 322.097,270.440 321.517,270.000 321.200 C 269.560 320.883,269.200 320.303,269.200 319.912 C 269.200 319.520,268.947 319.200,268.637 319.200 C 268.258 319.200,268.148 318.919,268.300 318.337 C 268.455 317.746,268.380 317.565,268.063 317.761 C 267.770 317.942,267.600 317.746,267.600 317.224 C 267.600 316.771,267.420 316.400,267.200 316.400 C 266.980 316.400,266.800 316.040,266.800 315.600 C 266.800 315.160,266.620 314.800,266.400 314.800 C 266.180 314.800,266.000 314.350,266.000 313.800 C 266.000 313.250,265.820 312.800,265.600 312.800 C 265.380 312.800,265.200 312.440,265.200 312.000 C 265.200 311.560,265.020 311.200,264.800 311.200 C 264.580 311.200,264.400 310.840,264.400 310.400 C 264.400 309.960,264.220 309.600,264.000 309.600 C 263.780 309.600,263.600 309.330,263.600 309.000 C 263.600 308.670,263.420 308.400,263.200 308.400 C 262.980 308.400,262.800 308.040,262.800 307.600 C 262.800 307.160,262.620 306.800,262.400 306.800 C 262.180 306.800,262.000 306.440,262.000 306.000 C 262.000 305.560,261.820 305.200,261.600 305.200 C 261.380 305.200,261.200 304.840,261.200 304.400 C 261.200 303.960,261.020 303.600,260.800 303.600 C 260.580 303.600,260.400 303.240,260.400 302.800 C 260.400 302.360,260.220 302.000,260.000 302.000 C 259.780 302.000,259.600 301.640,259.600 301.200 C 259.600 300.760,259.420 300.400,259.200 300.400 C 258.980 300.400,258.800 300.130,258.800 299.800 C 258.800 299.470,258.599 299.200,258.353 299.200 C 258.104 299.200,257.999 298.847,258.116 298.400 C 258.257 297.859,258.128 297.600,257.716 297.600 C 257.304 297.600,257.174 297.341,257.316 296.800 C 257.455 296.267,257.328 296.000,256.936 296.000 C 256.528 296.000,256.424 295.753,256.600 295.200 C 256.746 294.741,256.672 294.400,256.427 294.400 C 256.192 294.400,256.000 293.894,256.000 293.275 C 256.000 292.657,255.597 291.718,255.104 291.189 C 254.612 290.660,254.263 289.907,254.329 289.514 C 254.400 289.098,254.205 288.800,253.863 288.800 C 253.460 288.800,253.345 288.532,253.497 287.949 C 253.638 287.413,253.490 286.970,253.097 286.750 C 252.721 286.540,252.557 286.085,252.684 285.601 C 252.824 285.066,252.697 284.800,252.302 284.800 C 251.887 284.800,251.768 284.502,251.902 283.800 C 252.014 283.216,251.907 282.800,251.647 282.800 C 251.401 282.800,251.200 282.260,251.200 281.600 C 251.200 280.940,251.020 280.400,250.800 280.400 C 250.580 280.400,250.400 279.860,250.400 279.200 C 250.400 278.540,250.220 278.000,250.000 278.000 C 249.780 278.000,249.600 277.460,249.600 276.800 C 249.600 276.140,249.420 275.600,249.200 275.600 C 248.980 275.600,248.800 275.150,248.800 274.600 C 248.800 274.050,248.620 273.600,248.400 273.600 C 248.180 273.600,248.000 272.970,248.000 272.200 C 248.000 271.430,247.820 270.800,247.600 270.800 C 247.380 270.800,247.200 270.170,247.200 269.400 C 247.200 268.630,247.020 268.000,246.800 268.000 C 246.580 268.000,246.400 267.370,246.400 266.600 C 246.400 265.830,246.220 265.200,246.000 265.200 C 245.780 265.200,245.600 264.390,245.600 263.400 C 245.600 262.410,245.420 261.600,245.200 261.600 C 244.980 261.600,244.800 260.880,244.800 260.000 C 244.800 259.120,244.620 258.400,244.400 258.400 C 244.180 258.400,244.000 257.590,244.000 256.600 C 244.000 255.610,243.820 254.800,243.600 254.800 C 243.378 254.800,243.200 253.733,243.200 252.400 C 243.200 251.067,243.022 250.000,242.800 250.000 C 242.578 250.000,242.400 248.933,242.400 247.600 C 242.400 246.267,242.222 245.200,242.000 245.200 C 241.774 245.200,241.600 244.067,241.600 242.600 C 241.600 241.170,241.426 240.000,241.213 240.000 C 240.974 240.000,240.920 238.768,241.072 236.800 C 241.284 234.044,241.231 233.600,240.685 233.600 C 240.137 233.600,240.083 233.116,240.285 230.000 C 240.481 226.979,240.423 226.400,239.925 226.400 C 239.426 226.400,239.361 225.730,239.518 222.200 C 239.674 218.690,239.608 218.000,239.118 218.000 C 238.627 218.000,238.562 217.304,238.720 213.747 C 238.877 210.237,238.804 209.434,238.307 209.156 C 237.805 208.875,237.739 208.043,237.910 204.169 C 238.074 200.460,238.002 199.447,237.558 199.165 C 237.218 198.950,238.995 198.810,242.100 198.806 C 245.229 198.802,247.200 198.645,247.200 198.400 C 247.200 198.153,249.267 198.000,252.600 198.000 C 255.933 198.000,258.000 197.847,258.000 197.600 C 258.000 197.359,259.667 197.200,262.200 197.200 C 264.733 197.200,266.400 197.041,266.400 196.800 C 266.400 196.567,267.725 196.400,269.576 196.400 C 271.323 196.400,272.864 196.220,273.000 196.000 C 273.136 195.780,274.126 195.600,275.200 195.600 C 276.274 195.600,277.264 195.420,277.400 195.200 C 277.536 194.980,278.537 194.800,279.624 194.800 C 280.711 194.800,281.600 194.620,281.600 194.400 C 281.600 194.180,282.140 194.000,282.800 194.000 C 283.460 194.000,284.000 193.820,284.000 193.600 C 284.000 193.380,284.270 193.200,284.600 193.200 C 284.930 193.200,285.200 193.020,285.200 192.800 C 285.200 192.580,285.573 192.400,286.029 192.400 C 287.888 192.400,288.000 191.831,288.000 182.429 C 288.000 174.848,287.915 173.600,287.400 173.600 C 287.070 173.600,286.800 173.407,286.800 173.171 C 286.800 172.534,285.747 171.600,285.029 171.600 C 284.683 171.600,284.400 171.420,284.400 171.200 C 284.400 170.980,284.040 170.800,283.600 170.800 C 283.160 170.800,282.800 170.620,282.800 170.400 C 282.800 170.180,282.080 170.000,281.200 170.000 C 280.320 170.000,279.600 169.820,279.600 169.600 C 279.600 169.380,278.700 169.200,277.600 169.200 C 276.500 169.200,275.600 169.020,275.600 168.800 C 275.600 168.574,274.467 168.400,273.000 168.400 C 271.533 168.400,270.400 168.226,270.400 168.000 C 270.400 167.780,269.410 167.600,268.200 167.600 C 265.366 167.600,265.328 167.002,268.000 164.400 C 269.100 163.329,270.000 162.246,270.000 161.995 C 270.000 161.743,270.720 160.846,271.600 160.000 C 272.480 159.154,273.202 158.314,273.203 158.131 C 273.205 157.949,273.835 157.137,274.603 156.327 C 275.372 155.516,276.000 154.644,276.000 154.387 C 276.000 154.131,276.540 153.417,277.200 152.800 C 277.860 152.183,278.400 151.431,278.400 151.128 C 278.400 150.825,278.760 150.317,279.200 150.000 C 279.640 149.683,280.000 149.143,280.000 148.800 C 280.000 148.457,280.360 147.917,280.800 147.600 C 281.240 147.283,281.600 146.743,281.600 146.400 C 281.600 146.057,281.960 145.517,282.400 145.200 C 282.840 144.883,283.200 144.195,283.200 143.672 C 283.200 143.149,283.695 142.244,284.300 141.660 C 285.579 140.428,287.200 137.466,287.200 136.362 C 287.200 135.943,287.380 135.600,287.600 135.600 C 287.820 135.600,288.000 135.240,288.000 134.800 C 288.000 134.360,288.180 134.000,288.400 134.000 C 288.620 134.000,288.800 133.460,288.800 132.800 C 288.800 132.140,288.980 131.600,289.200 131.600 C 289.420 131.600,289.600 131.251,289.600 130.824 C 289.600 130.397,289.780 129.936,290.000 129.800 C 290.220 129.664,290.400 128.969,290.400 128.256 C 290.400 127.543,290.614 126.746,290.875 126.485 C 291.552 125.808,291.819 111.055,291.221 107.400 C 290.388 102.310,290.315 102.000,289.956 102.000 C 289.760 102.000,289.600 101.460,289.600 100.800 C 289.600 100.140,289.420 99.600,289.200 99.600 C 288.980 99.600,288.800 99.240,288.800 98.800 C 288.800 98.360,288.620 98.000,288.400 98.000 C 288.180 98.000,288.000 97.640,288.000 97.200 C 288.000 96.760,287.820 96.400,287.600 96.400 C 287.380 96.400,287.200 96.164,287.200 95.875 C 287.200 95.587,286.840 94.964,286.400 94.492 C 285.960 94.020,285.600 93.514,285.600 93.369 C 285.600 92.927,279.612 87.200,279.151 87.200 C 278.914 87.200,278.217 86.660,277.600 86.000 C 276.983 85.340,276.184 84.800,275.823 84.800 C 275.462 84.800,274.780 84.440,274.308 84.000 C 273.836 83.560,273.213 83.200,272.925 83.200 C 272.636 83.200,272.400 83.020,272.400 82.800 C 272.400 82.580,271.860 82.400,271.200 82.400 C 270.540 82.400,270.000 82.220,270.000 82.000 C 270.000 81.780,269.280 81.600,268.400 81.600 C 267.520 81.600,266.800 81.420,266.800 81.200 C 266.800 80.978,265.733 80.800,264.400 80.800 C 263.080 80.800,262.000 80.632,262.000 80.426 C 262.000 80.208,258.906 80.038,254.600 80.019 C 249.832 79.998,247.200 80.131,247.200 80.393 C 247.200 80.627,246.095 80.800,244.600 80.800 C 243.133 80.800,242.000 80.974,242.000 81.200 C 242.000 81.420,241.280 81.600,240.400 81.600 C 239.520 81.600,238.800 81.780,238.800 82.000 C 238.800 82.220,238.080 82.400,237.200 82.400 C 236.320 82.400,235.600 82.580,235.600 82.800 C 235.600 83.020,235.060 83.200,234.400 83.200 C 233.740 83.200,233.200 83.380,233.200 83.600 C 233.200 83.820,232.660 84.000,232.000 84.000 C 231.340 84.000,230.800 84.180,230.800 84.400 C 230.800 84.620,230.260 84.800,229.600 84.800 C 228.940 84.800,228.400 84.980,228.400 85.200 C 228.400 85.420,228.040 85.600,227.600 85.600 C 227.160 85.600,226.800 85.746,226.800 85.925 C 226.800 86.104,226.170 86.498,225.400 86.800 C 224.630 87.102,224.000 87.496,224.000 87.675 C 224.000 87.854,223.680 88.000,223.288 88.000 C 222.897 88.000,222.317 88.360,222.000 88.800 C 221.683 89.240,221.169 89.600,220.859 89.600 C 220.548 89.600,220.003 89.933,219.647 90.341 C 219.291 90.748,218.381 91.400,217.624 91.790 C 215.988 92.633,210.400 98.241,210.400 99.041 C 210.400 99.348,210.220 99.600,210.000 99.600 C 209.742 99.600,209.600 95.067,209.600 86.800 L 209.600 74.000 221.400 74.000 C 229.000 74.000,233.200 73.858,233.200 73.600 C 233.200 73.380,233.560 73.200,234.000 73.200 C 234.440 73.200,234.800 73.063,234.800 72.895 C 234.800 72.727,235.205 72.412,235.700 72.195 C 236.195 71.978,236.778 71.395,236.995 70.900 C 237.212 70.405,237.527 70.000,237.695 70.000 C 237.863 70.000,238.000 69.640,238.000 69.200 C 238.000 68.760,238.180 68.400,238.400 68.400 C 238.647 68.400,238.800 66.333,238.800 63.000 C 238.800 59.667,238.647 57.600,238.400 57.600 C 238.180 57.600,238.000 57.240,238.000 56.800 C 238.000 56.360,237.820 56.000,237.600 56.000 C 237.380 56.000,237.200 55.717,237.200 55.371 C 237.200 54.563,236.237 53.600,235.429 53.600 C 235.083 53.600,234.800 53.420,234.800 53.200 C 234.800 52.980,234.440 52.800,234.000 52.800 C 233.560 52.800,233.200 52.620,233.200 52.400 C 233.200 52.142,229.000 52.000,221.400 52.000 L 209.600 52.000 209.600 41.000 C 209.600 33.933,209.457 30.000,209.200 30.000 C 208.980 30.000,208.800 29.728,208.800 29.395 C 208.800 27.959,207.506 26.407,205.540 25.485 C 204.135 24.826,194.794 24.528,192.700 25.076 M201.418 32.982 L 202.400 33.964 202.400 46.582 L 202.400 59.200 215.678 59.200 L 228.956 59.200 230.078 60.275 C 231.522 61.658,231.639 64.081,230.330 65.474 L 229.461 66.400 215.930 66.400 L 202.400 66.400 202.400 115.829 C 202.400 171.597,202.754 166.400,198.960 166.400 C 194.778 166.400,195.200 172.083,195.200 115.738 L 195.200 66.400 180.982 66.400 L 166.764 66.400 165.782 65.418 C 164.398 64.034,164.438 61.821,165.875 60.322 L 166.950 59.200 181.075 59.200 L 195.200 59.200 195.200 46.722 L 195.200 34.244 196.275 33.122 C 197.709 31.625,199.999 31.563,201.418 32.982 M146.200 88.000 C 146.336 88.220,147.776 88.400,149.400 88.400 C 151.024 88.400,152.464 88.580,152.600 88.800 C 152.736 89.020,153.647 89.200,154.624 89.200 C 155.601 89.200,156.400 89.380,156.400 89.600 C 156.400 89.820,156.839 90.000,157.376 90.000 C 157.913 90.000,158.464 90.180,158.600 90.400 C 158.736 90.620,159.356 90.800,159.978 90.800 C 160.600 90.800,161.624 91.069,162.254 91.398 C 162.884 91.726,163.680 91.996,164.021 91.998 C 164.861 92.001,168.616 93.896,169.216 94.619 C 169.481 94.939,169.918 95.200,170.187 95.200 C 170.456 95.200,171.002 95.560,171.400 96.000 C 171.798 96.440,172.317 96.800,172.554 96.800 C 173.126 96.800,179.600 103.258,179.600 103.829 C 179.600 104.075,179.960 104.602,180.400 105.000 C 180.840 105.398,181.200 105.944,181.200 106.213 C 181.200 106.482,181.461 106.919,181.781 107.184 C 182.100 107.449,183.639 110.246,185.200 113.400 C 186.761 116.554,188.300 119.351,188.619 119.616 C 189.536 120.377,189.458 131.852,188.529 132.878 C 187.835 133.645,185.200 131.839,185.200 130.596 C 185.200 130.351,184.660 129.632,184.000 129.000 C 183.340 128.368,182.800 127.652,182.800 127.410 C 182.800 127.168,181.900 126.083,180.800 125.000 C 179.700 123.917,178.800 122.846,178.800 122.621 C 178.800 122.073,169.930 113.200,169.381 113.200 C 169.144 113.200,168.432 112.660,167.800 112.000 C 167.168 111.340,166.448 110.800,166.200 110.800 C 165.952 110.800,165.241 110.269,164.619 109.619 C 163.997 108.970,162.975 108.326,162.348 108.189 C 161.722 108.051,161.106 107.772,160.981 107.569 C 160.855 107.366,160.439 107.200,160.056 107.200 C 159.181 107.200,157.207 106.301,157.203 105.900 C 157.201 105.735,156.660 105.600,156.000 105.600 C 155.340 105.600,154.800 105.420,154.800 105.200 C 154.800 104.980,153.821 104.800,152.624 104.800 C 151.427 104.800,150.336 104.620,150.200 104.400 C 150.064 104.180,148.883 104.000,147.576 104.000 C 146.259 104.000,145.200 104.178,145.200 104.400 C 145.200 104.620,144.581 104.800,143.824 104.800 C 143.067 104.800,142.331 104.989,142.188 105.219 C 142.009 105.510,141.766 105.504,141.400 105.200 C 141.034 104.896,140.791 104.890,140.612 105.181 C 140.469 105.411,139.941 105.600,139.438 105.600 C 138.935 105.600,138.198 105.960,137.800 106.400 C 137.402 106.840,136.711 107.200,136.264 107.200 C 135.817 107.200,135.042 107.585,134.541 108.056 C 134.040 108.526,133.222 109.115,132.723 109.364 C 132.224 109.612,131.616 110.216,131.372 110.705 C 131.129 111.194,130.630 111.925,130.264 112.329 C 129.899 112.733,129.600 113.443,129.600 113.908 C 129.600 114.373,129.420 114.864,129.200 115.000 C 128.980 115.136,128.800 115.856,128.800 116.600 C 128.800 117.344,128.620 118.064,128.400 118.200 C 128.180 118.336,128.000 119.146,128.000 120.000 C 128.000 120.854,128.180 121.664,128.400 121.800 C 128.620 121.936,128.800 122.751,128.800 123.611 C 128.800 124.472,129.160 125.817,129.600 126.600 C 130.040 127.383,130.400 128.339,130.400 128.724 C 130.400 129.109,130.760 129.683,131.200 130.000 C 131.670 130.339,132.000 131.035,132.000 131.688 C 132.000 132.300,132.180 132.800,132.400 132.800 C 132.620 132.800,132.800 133.120,132.800 133.512 C 132.800 133.903,133.160 134.483,133.600 134.800 C 134.040 135.117,134.400 135.657,134.400 136.000 C 134.400 136.343,134.760 136.883,135.200 137.200 C 135.640 137.517,136.000 137.973,136.000 138.213 C 136.000 138.454,136.540 139.168,137.200 139.800 C 137.860 140.432,138.400 141.158,138.400 141.413 C 138.400 141.668,138.760 142.202,139.200 142.600 C 139.640 142.998,140.000 143.535,140.000 143.792 C 140.000 144.050,140.450 144.683,141.000 145.200 C 141.550 145.717,142.000 146.340,142.000 146.585 C 142.000 146.830,142.900 147.917,144.000 149.000 C 145.100 150.083,146.000 151.162,146.000 151.397 C 146.000 151.633,147.080 152.894,148.400 154.200 C 149.720 155.506,150.800 156.765,150.800 156.997 C 150.800 157.229,152.240 158.850,154.000 160.600 C 155.760 162.350,157.200 163.951,157.200 164.159 C 157.200 164.367,157.495 164.863,157.855 165.261 C 158.976 166.499,157.935 167.200,154.975 167.200 C 153.585 167.200,152.336 167.380,152.200 167.600 C 151.311 169.038,142.000 167.782,142.000 166.224 C 142.000 165.976,141.010 164.795,139.800 163.600 C 138.590 162.405,137.600 161.236,137.600 161.001 C 137.600 160.767,136.520 159.506,135.200 158.200 C 133.880 156.894,132.800 155.633,132.800 155.397 C 132.800 155.162,131.900 154.083,130.800 153.000 C 129.700 151.917,128.800 150.832,128.800 150.590 C 128.800 150.348,128.260 149.632,127.600 149.000 C 126.940 148.368,126.400 147.645,126.400 147.395 C 126.400 147.144,125.950 146.517,125.400 146.000 C 124.850 145.483,124.400 144.850,124.400 144.592 C 124.400 144.335,124.040 143.798,123.600 143.400 C 123.160 143.002,122.800 142.462,122.800 142.200 C 122.800 141.938,122.440 141.398,122.000 141.000 C 121.560 140.602,121.200 140.035,121.200 139.741 C 121.200 139.447,120.840 138.982,120.400 138.707 C 119.960 138.432,119.600 137.891,119.600 137.504 C 119.600 137.117,119.420 136.800,119.200 136.800 C 118.980 136.800,118.800 136.440,118.800 136.000 C 118.800 135.560,118.620 135.200,118.400 135.200 C 118.180 135.200,118.000 134.840,118.000 134.400 C 118.000 133.960,117.820 133.600,117.600 133.600 C 117.380 133.600,117.200 133.240,117.200 132.800 C 117.200 132.360,117.020 132.000,116.800 132.000 C 116.580 132.000,116.400 131.640,116.400 131.200 C 116.400 130.760,116.220 130.400,116.000 130.400 C 115.780 130.400,115.600 129.961,115.600 129.424 C 115.600 128.887,115.420 128.336,115.200 128.200 C 114.980 128.064,114.800 127.524,114.800 127.000 C 114.800 126.476,114.620 125.936,114.400 125.800 C 114.180 125.664,114.000 125.124,114.000 124.600 C 114.000 124.076,113.820 123.536,113.600 123.400 C 113.380 123.264,113.200 122.184,113.200 121.000 C 113.200 119.816,113.020 118.736,112.800 118.600 C 112.580 118.464,112.400 116.754,112.400 114.800 C 112.400 112.846,112.580 111.136,112.800 111.000 C 113.020 110.864,113.200 109.964,113.200 109.000 C 113.200 108.036,113.380 107.136,113.600 107.000 C 113.820 106.864,114.000 106.133,114.000 105.376 C 114.000 104.619,114.180 104.000,114.400 104.000 C 114.620 104.000,114.800 103.640,114.800 103.200 C 114.800 102.760,114.980 102.400,115.200 102.400 C 115.420 102.400,115.600 102.040,115.600 101.600 C 115.600 101.160,115.780 100.800,116.000 100.800 C 116.220 100.800,116.400 100.516,116.400 100.169 C 116.400 99.821,117.120 98.846,118.000 98.000 C 118.880 97.154,119.600 96.256,119.600 96.003 C 119.600 95.422,120.604 94.400,121.175 94.400 C 121.413 94.400,122.172 93.860,122.863 93.200 C 123.554 92.540,124.368 92.000,124.672 92.000 C 124.976 92.000,125.329 91.730,125.455 91.400 C 125.582 91.070,126.021 90.800,126.431 90.800 C 126.840 90.800,127.817 90.440,128.600 90.000 C 129.383 89.560,130.548 89.200,131.189 89.200 C 131.829 89.200,132.464 89.020,132.600 88.800 C 132.736 88.580,133.996 88.400,135.400 88.400 C 136.804 88.400,138.064 88.220,138.200 88.000 C 138.336 87.779,140.130 87.600,142.200 87.600 C 144.270 87.600,146.064 87.779,146.200 88.000 M262.600 88.800 C 262.736 89.020,263.456 89.200,264.200 89.200 C 264.944 89.200,265.664 89.380,265.800 89.600 C 265.936 89.820,266.476 90.000,267.000 90.000 C 267.524 90.000,268.064 90.180,268.200 90.400 C 268.336 90.620,268.876 90.800,269.400 90.800 C 269.924 90.800,270.461 90.975,270.593 91.189 C 270.726 91.403,271.501 91.881,272.317 92.251 C 273.922 92.979,278.800 97.484,278.800 98.239 C 278.800 98.494,279.061 98.919,279.381 99.184 C 280.139 99.813,282.000 103.558,282.000 104.455 C 282.000 104.839,282.180 105.264,282.400 105.400 C 282.620 105.536,282.800 106.256,282.800 107.000 C 282.800 107.744,282.980 108.464,283.200 108.600 C 283.441 108.749,283.600 111.530,283.600 115.600 C 283.600 119.670,283.441 122.451,283.200 122.600 C 282.980 122.736,282.800 123.456,282.800 124.200 C 282.800 124.944,282.620 125.664,282.400 125.800 C 282.180 125.936,282.000 126.476,282.000 127.000 C 282.000 127.524,281.820 128.064,281.600 128.200 C 281.380 128.336,281.201 128.752,281.202 129.124 C 281.205 129.976,276.452 139.535,275.510 140.571 C 275.125 140.994,274.705 141.669,274.578 142.071 C 274.450 142.472,274.178 142.800,273.973 142.800 C 273.768 142.800,273.600 143.120,273.600 143.512 C 273.600 143.903,273.240 144.483,272.800 144.800 C 272.360 145.117,272.000 145.625,272.000 145.928 C 272.000 146.231,271.460 146.983,270.800 147.600 C 270.140 148.217,269.600 148.933,269.600 149.192 C 269.600 149.451,268.880 150.354,268.000 151.200 C 267.120 152.046,266.400 152.893,266.400 153.084 C 266.400 153.274,265.500 154.317,264.400 155.400 C 263.300 156.483,262.400 157.562,262.400 157.797 C 262.400 158.031,261.230 159.383,259.800 160.800 C 258.370 162.217,257.200 163.556,257.200 163.775 C 257.200 165.260,253.384 168.000,251.315 168.000 C 250.152 168.000,249.200 167.820,249.200 167.600 C 249.200 167.353,247.150 167.200,243.849 167.200 C 235.826 167.200,235.789 167.523,244.900 157.862 C 246.825 155.820,248.400 154.016,248.400 153.853 C 248.400 153.689,249.480 152.496,250.800 151.200 C 252.120 149.904,253.200 148.640,253.200 148.391 C 253.200 148.141,253.920 147.246,254.800 146.400 C 255.680 145.554,256.400 144.660,256.400 144.413 C 256.400 144.166,256.850 143.514,257.400 142.964 C 257.950 142.414,258.400 141.819,258.400 141.641 C 258.400 141.464,258.940 140.754,259.600 140.063 C 260.260 139.372,260.800 138.575,260.800 138.292 C 260.800 138.009,261.160 137.517,261.600 137.200 C 262.040 136.883,262.400 136.303,262.400 135.912 C 262.400 135.520,262.580 135.200,262.800 135.200 C 263.020 135.200,263.200 134.958,263.200 134.662 C 263.200 134.366,263.560 133.798,264.000 133.400 C 264.440 133.002,264.800 132.282,264.800 131.800 C 264.800 131.318,265.160 130.598,265.600 130.200 C 266.040 129.802,266.400 128.969,266.400 128.350 C 266.400 127.731,266.760 126.583,267.200 125.800 C 268.085 124.224,268.424 115.600,267.600 115.600 C 267.380 115.600,267.200 115.240,267.200 114.800 C 267.200 114.360,267.064 114.000,266.898 114.000 C 266.731 114.000,266.346 113.415,266.042 112.700 C 265.403 111.200,263.662 109.200,262.995 109.200 C 262.744 109.200,262.117 108.750,261.600 108.200 C 261.083 107.650,260.368 107.200,260.010 107.200 C 259.171 107.200,257.207 106.290,257.203 105.900 C 257.201 105.735,256.480 105.600,255.600 105.600 C 254.720 105.600,254.000 105.420,254.000 105.200 C 254.000 104.956,252.133 104.800,249.200 104.800 C 246.267 104.800,244.400 104.956,244.400 105.200 C 244.400 105.420,243.961 105.600,243.424 105.600 C 242.887 105.600,242.331 105.789,242.188 106.019 C 242.009 106.310,241.766 106.304,241.400 106.000 C 241.034 105.696,240.791 105.690,240.612 105.981 C 240.469 106.211,240.039 106.400,239.655 106.400 C 238.853 106.400,234.916 108.288,234.579 108.835 C 234.454 109.036,234.031 109.200,233.638 109.200 C 232.594 109.200,230.699 110.230,229.610 111.390 C 229.088 111.945,228.469 112.400,228.235 112.400 C 227.680 112.400,215.600 124.460,215.600 125.014 C 215.600 125.247,214.880 126.141,214.000 127.000 C 213.120 127.859,212.400 128.742,212.400 128.962 C 212.400 130.155,209.858 131.996,209.126 131.333 C 207.739 130.078,208.071 120.306,209.600 117.400 C 210.260 116.145,210.800 114.799,210.800 114.408 C 210.800 114.018,211.072 113.472,211.405 113.196 C 211.738 112.920,212.545 111.572,213.200 110.200 C 213.855 108.828,214.662 107.480,214.995 107.204 C 215.328 106.928,215.600 106.488,215.600 106.226 C 215.600 105.964,216.140 105.232,216.800 104.600 C 217.460 103.968,218.000 103.264,218.000 103.036 C 218.000 102.477,222.861 97.600,223.419 97.600 C 223.662 97.600,224.286 97.147,224.806 96.593 C 225.911 95.418,233.486 91.600,234.714 91.600 C 235.175 91.600,235.664 91.420,235.800 91.200 C 235.936 90.980,236.656 90.800,237.400 90.800 C 238.144 90.800,238.864 90.620,239.000 90.400 C 239.136 90.180,239.856 90.000,240.600 90.000 C 241.344 90.000,242.064 89.820,242.200 89.600 C 242.336 89.380,243.247 89.200,244.224 89.200 C 245.201 89.200,246.000 89.020,246.000 88.800 C 246.000 88.546,248.992 88.400,254.176 88.400 C 259.196 88.400,262.448 88.554,262.600 88.800 M150.400 112.400 C 150.400 112.620,151.120 112.800,152.000 112.800 C 152.880 112.800,153.600 112.980,153.600 113.200 C 153.600 113.420,154.140 113.600,154.800 113.600 C 155.460 113.600,156.000 113.780,156.000 114.000 C 156.000 114.220,156.360 114.400,156.800 114.400 C 157.240 114.400,157.600 114.580,157.600 114.800 C 157.600 115.020,157.870 115.200,158.200 115.200 C 158.530 115.200,158.800 115.350,158.800 115.532 C 158.800 115.715,159.295 116.119,159.900 116.430 C 160.505 116.740,161.291 117.311,161.647 117.697 C 162.003 118.084,162.500 118.400,162.753 118.400 C 163.005 118.400,164.711 119.885,166.543 121.700 C 168.376 123.515,170.263 125.265,170.737 125.588 C 171.212 125.912,171.600 126.421,171.600 126.720 C 171.600 127.018,172.296 127.932,173.147 128.749 C 173.998 129.567,175.015 130.858,175.407 131.618 C 175.798 132.378,176.452 133.291,176.859 133.647 C 177.267 134.003,177.600 134.471,177.600 134.688 C 177.600 134.904,178.140 135.646,178.800 136.337 C 179.460 137.028,180.000 137.748,180.000 137.937 C 180.000 138.126,180.540 138.846,181.200 139.537 C 181.860 140.228,182.400 140.935,182.400 141.108 C 182.400 141.281,182.760 141.683,183.200 142.000 C 183.640 142.317,184.000 142.819,184.000 143.114 C 184.000 143.410,184.900 144.529,186.000 145.600 L 188.000 147.548 188.000 156.374 L 188.000 165.200 178.789 165.200 L 169.579 165.200 167.789 163.411 C 166.805 162.426,166.000 161.346,166.000 161.011 C 166.000 160.675,165.849 160.400,165.664 160.400 C 165.097 160.400,158.000 153.233,158.000 152.661 C 158.000 152.366,157.010 151.102,155.800 149.853 C 154.590 148.604,153.600 147.394,153.600 147.165 C 153.600 146.936,152.700 145.871,151.600 144.800 C 150.500 143.729,149.600 142.736,149.600 142.595 C 149.600 142.453,148.880 141.646,148.000 140.800 C 147.120 139.954,146.400 139.051,146.400 138.792 C 146.400 138.533,145.860 137.817,145.200 137.200 C 144.540 136.583,144.000 135.831,144.000 135.528 C 144.000 135.225,143.640 134.717,143.200 134.400 C 142.760 134.083,142.400 133.503,142.400 133.112 C 142.400 132.720,142.242 132.400,142.049 132.400 C 141.856 132.400,141.316 131.510,140.848 130.423 C 140.380 129.335,139.829 128.342,139.624 128.215 C 139.068 127.871,138.000 125.585,138.000 124.739 C 138.000 124.332,137.820 124.000,137.600 124.000 C 137.380 124.000,137.200 123.460,137.200 122.800 C 137.200 122.140,137.020 121.600,136.800 121.600 C 136.580 121.600,136.400 120.880,136.400 120.000 C 136.400 119.120,136.580 118.400,136.800 118.400 C 137.020 118.400,137.200 118.125,137.200 117.789 C 137.200 117.111,140.543 113.600,141.189 113.600 C 141.415 113.600,141.600 113.420,141.600 113.200 C 141.600 112.980,142.320 112.800,143.200 112.800 C 144.080 112.800,144.800 112.620,144.800 112.400 C 144.800 112.171,146.000 112.000,147.600 112.000 C 149.200 112.000,150.400 112.171,150.400 112.400 M253.600 113.200 C 253.600 113.420,254.100 113.600,254.712 113.600 C 255.365 113.600,256.061 113.930,256.400 114.400 C 256.717 114.840,257.285 115.200,257.661 115.200 C 258.038 115.200,258.460 115.560,258.600 116.000 C 258.740 116.440,259.022 116.800,259.227 116.800 C 259.432 116.800,259.600 117.340,259.600 118.000 C 259.600 118.660,259.780 119.200,260.000 119.200 C 260.220 119.200,260.400 119.549,260.400 119.976 C 260.400 120.403,260.220 120.864,260.000 121.000 C 259.780 121.136,259.600 121.867,259.600 122.624 C 259.600 123.381,259.440 124.000,259.245 124.000 C 259.049 124.000,258.771 124.630,258.626 125.400 C 258.482 126.170,258.192 126.800,257.982 126.800 C 257.772 126.800,257.600 127.160,257.600 127.600 C 257.600 128.040,257.420 128.400,257.200 128.400 C 256.980 128.400,256.800 128.720,256.800 129.112 C 256.800 129.503,256.440 130.083,256.000 130.400 C 255.560 130.717,255.200 131.297,255.200 131.688 C 255.200 132.080,255.020 132.400,254.800 132.400 C 254.580 132.400,254.400 132.688,254.400 133.040 C 254.400 133.391,253.860 134.183,253.200 134.800 C 252.540 135.417,252.000 136.137,252.000 136.400 C 252.000 136.663,251.460 137.383,250.800 138.000 C 250.140 138.617,249.600 139.341,249.600 139.611 C 249.600 139.880,248.700 140.917,247.600 141.914 C 246.500 142.912,245.600 143.886,245.600 144.078 C 245.600 144.270,245.015 145.023,244.300 145.752 C 242.309 147.781,241.200 149.164,241.200 149.616 C 241.200 149.841,239.220 151.994,236.800 154.400 C 234.380 156.806,232.400 158.873,232.400 158.994 C 232.400 159.114,231.053 160.560,229.406 162.206 L 226.413 165.200 218.006 165.200 L 209.600 165.200 209.600 155.569 L 209.600 145.937 211.200 144.400 C 212.080 143.554,212.800 142.622,212.800 142.328 C 212.800 142.033,213.160 141.568,213.600 141.293 C 214.040 141.018,214.400 140.597,214.400 140.357 C 214.400 140.117,214.940 139.417,215.600 138.800 C 216.260 138.183,216.800 137.467,216.800 137.208 C 216.800 136.949,217.520 136.046,218.400 135.200 C 219.280 134.354,220.000 133.454,220.000 133.200 C 220.000 132.946,220.720 132.046,221.600 131.200 C 222.480 130.354,223.200 129.462,223.200 129.217 C 223.200 128.726,224.282 127.443,226.350 125.481 C 227.092 124.776,228.844 123.075,230.242 121.700 C 231.641 120.325,232.986 119.200,233.232 119.200 C 233.478 119.200,234.183 118.660,234.800 118.000 C 235.417 117.340,236.209 116.800,236.560 116.800 C 236.912 116.800,237.200 116.620,237.200 116.400 C 237.200 116.180,237.560 116.000,238.000 116.000 C 238.440 116.000,238.800 115.854,238.800 115.675 C 238.800 115.496,239.430 115.102,240.200 114.800 C 240.970 114.498,241.600 114.104,241.600 113.925 C 241.600 113.746,242.140 113.600,242.800 113.600 C 243.460 113.600,244.000 113.420,244.000 113.200 C 244.000 112.956,245.867 112.800,248.800 112.800 C 251.733 112.800,253.600 112.956,253.600 113.200 M129.300 140.665 C 127.485 141.397,128.314 142.777,137.451 154.239 C 145.387 164.194,145.997 164.751,147.338 163.269 C 148.451 162.039,148.143 161.391,143.933 156.106 C 141.696 153.298,139.041 149.947,138.033 148.659 C 137.025 147.371,135.435 145.402,134.500 144.283 C 133.565 143.164,132.800 142.141,132.800 142.010 C 132.800 141.704,130.584 140.390,130.138 140.432 C 129.952 140.449,129.575 140.554,129.300 140.665 M241.600 175.147 C 256.957 176.012,266.806 176.996,277.200 178.704 L 279.000 179.000 279.119 181.995 C 279.282 186.074,279.088 186.666,277.503 186.923 C 262.564 189.345,246.855 190.488,218.313 191.232 C 179.438 192.244,125.066 189.288,122.513 186.023 C 121.865 185.195,121.856 180.329,122.500 179.543 C 123.722 178.052,141.867 176.014,161.200 175.196 C 166.590 174.968,171.990 174.719,173.200 174.643 C 178.032 174.340,234.678 174.757,241.600 175.147 M229.525 200.867 C 229.594 201.820,229.819 202.771,230.025 202.980 C 230.231 203.189,230.400 205.574,230.400 208.280 C 230.400 211.293,230.555 213.200,230.800 213.200 C 231.041 213.200,231.200 214.859,231.200 217.376 C 231.200 219.729,231.375 221.661,231.600 221.800 C 231.821 221.936,232.000 223.730,232.000 225.800 C 232.000 227.870,232.179 229.664,232.400 229.800 C 232.620 229.936,232.800 231.466,232.800 233.200 C 232.800 234.934,232.980 236.464,233.200 236.600 C 233.420 236.736,233.600 237.996,233.600 239.400 C 233.600 240.804,233.780 242.064,234.000 242.200 C 234.220 242.336,234.400 243.596,234.400 245.000 C 234.400 246.404,234.580 247.664,234.800 247.800 C 235.020 247.936,235.200 249.027,235.200 250.224 C 235.200 251.421,235.380 252.400,235.600 252.400 C 235.820 252.400,236.000 253.379,236.000 254.576 C 236.000 255.773,236.180 256.864,236.400 257.000 C 236.620 257.136,236.800 257.856,236.800 258.600 C 236.800 259.344,236.980 260.064,237.200 260.200 C 237.420 260.336,237.600 261.236,237.600 262.200 C 237.600 263.164,237.780 264.064,238.000 264.200 C 238.220 264.336,238.400 265.056,238.400 265.800 C 238.400 266.544,238.580 267.264,238.800 267.400 C 239.020 267.536,239.200 268.076,239.200 268.600 C 239.200 269.124,239.380 269.664,239.600 269.800 C 239.820 269.936,240.000 270.847,240.000 271.824 C 240.000 272.801,240.180 273.600,240.400 273.600 C 240.620 273.600,240.800 274.039,240.800 274.576 C 240.800 275.113,240.963 275.654,241.163 275.777 C 241.362 275.900,241.649 276.900,241.800 278.000 C 241.951 279.100,242.238 280.100,242.437 280.223 C 242.637 280.346,242.800 280.791,242.800 281.211 C 242.800 281.632,243.160 282.617,243.600 283.400 C 244.040 284.183,244.400 285.168,244.400 285.589 C 244.400 286.009,244.580 286.464,244.800 286.600 C 245.020 286.736,245.200 287.191,245.200 287.611 C 245.200 288.032,245.560 289.017,246.000 289.800 C 246.440 290.583,246.800 291.483,246.800 291.800 C 246.800 292.117,247.160 293.017,247.600 293.800 C 248.040 294.583,248.400 295.579,248.400 296.012 C 248.400 296.445,248.580 296.800,248.800 296.800 C 249.020 296.800,249.200 297.160,249.200 297.600 C 249.200 298.040,249.380 298.400,249.600 298.400 C 249.820 298.400,250.000 298.760,250.000 299.200 C 250.000 299.640,250.180 300.000,250.400 300.000 C 250.620 300.000,250.800 300.360,250.800 300.800 C 250.800 301.240,250.980 301.600,251.200 301.600 C 251.420 301.600,251.600 301.960,251.600 302.400 C 251.600 302.840,251.780 303.200,252.000 303.200 C 252.220 303.200,252.400 303.545,252.400 303.967 C 252.400 304.388,252.541 304.793,252.712 304.867 C 252.884 304.940,254.253 307.520,255.754 310.600 C 257.256 313.680,259.212 317.686,260.101 319.503 C 262.800 325.014,270.431 324.400,199.270 324.400 C 130.446 324.400,136.119 324.681,137.800 321.360 C 138.301 320.371,138.965 319.255,139.276 318.881 C 139.587 318.506,140.220 317.390,140.681 316.400 C 143.369 310.638,146.217 304.982,146.487 304.867 C 146.659 304.793,146.800 304.208,146.800 303.567 C 146.800 302.925,146.980 302.400,147.200 302.400 C 147.420 302.400,147.600 302.040,147.600 301.600 C 147.600 301.160,147.780 300.800,148.000 300.800 C 148.220 300.800,148.400 300.455,148.400 300.033 C 148.400 299.612,148.535 299.207,148.700 299.133 C 149.128 298.943,150.800 295.632,150.800 294.974 C 150.800 294.672,151.160 293.783,151.600 293.000 C 152.040 292.217,152.400 291.317,152.400 291.000 C 152.400 290.683,152.760 289.783,153.200 289.000 C 153.640 288.217,154.000 287.232,154.000 286.811 C 154.000 286.391,154.180 285.936,154.400 285.800 C 154.620 285.664,154.800 285.209,154.800 284.789 C 154.800 284.368,155.160 283.383,155.600 282.600 C 156.040 281.817,156.400 280.832,156.400 280.411 C 156.400 279.991,156.580 279.536,156.800 279.400 C 157.020 279.264,157.200 278.533,157.200 277.776 C 157.200 277.019,157.380 276.400,157.600 276.400 C 157.820 276.400,158.001 275.815,158.002 275.100 C 158.004 274.385,158.274 273.284,158.602 272.654 C 158.931 272.024,159.200 271.000,159.200 270.378 C 159.200 269.756,159.380 269.136,159.600 269.000 C 159.820 268.864,160.000 268.144,160.000 267.400 C 160.000 266.656,160.180 265.936,160.400 265.800 C 160.620 265.664,160.800 264.944,160.800 264.200 C 160.800 263.456,160.980 262.736,161.200 262.600 C 161.420 262.464,161.600 261.564,161.600 260.600 C 161.600 259.636,161.780 258.736,162.000 258.600 C 162.220 258.464,162.400 257.553,162.400 256.576 C 162.400 255.599,162.580 254.800,162.800 254.800 C 163.020 254.800,163.200 253.821,163.200 252.624 C 163.200 251.427,163.380 250.336,163.600 250.200 C 163.820 250.064,164.000 248.984,164.000 247.800 C 164.000 246.616,164.180 245.536,164.400 245.400 C 164.620 245.264,164.800 243.824,164.800 242.200 C 164.800 240.576,164.980 239.136,165.200 239.000 C 165.420 238.864,165.600 237.413,165.600 235.776 C 165.600 234.059,165.769 232.800,166.000 232.800 C 166.235 232.800,166.400 231.408,166.400 229.424 C 166.400 227.567,166.580 225.936,166.800 225.800 C 167.025 225.661,167.200 223.729,167.200 221.376 C 167.200 218.859,167.359 217.200,167.600 217.200 C 167.843 217.200,168.000 215.408,168.000 212.624 C 168.000 210.004,168.171 207.942,168.400 207.800 C 168.625 207.661,168.800 205.751,168.800 203.443 C 168.800 201.183,168.875 199.258,168.967 199.167 C 169.058 199.075,182.693 199.030,199.267 199.067 L 229.400 199.133 229.525 200.867 M181.116 212.300 C 180.038 213.540,179.733 216.219,178.941 231.400 C 178.826 233.600,178.568 235.571,178.366 235.780 C 178.165 235.989,178.000 237.618,178.000 239.400 C 178.000 241.182,177.834 242.811,177.631 243.020 C 177.428 243.229,177.167 244.660,177.051 246.200 C 176.598 252.187,174.738 262.923,173.146 268.733 C 172.344 271.661,172.040 272.776,171.247 275.700 C 170.836 277.217,169.704 280.647,169.234 281.800 C 169.054 282.240,168.541 283.680,168.094 285.000 C 166.319 290.239,165.139 293.275,163.756 296.161 C 163.450 296.800,163.200 297.477,163.200 297.666 C 163.200 297.854,162.864 298.772,162.454 299.704 C 162.043 300.637,161.206 302.660,160.592 304.200 C 159.979 305.740,159.064 307.931,158.559 309.068 C 157.414 311.644,157.603 314.008,158.952 313.987 C 160.749 313.960,161.018 313.489,165.691 302.200 C 166.146 301.100,166.852 299.437,167.259 298.504 C 167.667 297.572,168.000 296.661,168.000 296.479 C 168.000 296.298,168.360 295.405,168.800 294.494 C 169.240 293.584,169.600 292.648,169.600 292.414 C 169.600 292.180,169.756 291.677,169.946 291.295 C 170.137 290.913,170.515 289.970,170.787 289.200 C 171.059 288.430,171.897 286.090,172.650 284.000 C 175.057 277.312,178.254 265.249,179.646 257.600 C 181.018 250.064,182.042 241.585,182.781 231.655 C 183.016 228.495,183.285 225.787,183.378 225.635 C 184.024 224.590,183.714 213.189,183.019 212.420 C 182.113 211.420,181.892 211.406,181.116 212.300 M294.600 330.800 C 294.736 331.020,295.381 331.200,296.032 331.200 C 297.332 331.200,301.600 335.026,301.600 336.191 C 301.600 336.526,301.780 336.800,302.000 336.800 C 302.220 336.800,302.400 337.419,302.400 338.176 C 302.400 338.933,302.580 339.664,302.800 339.800 C 303.029 339.942,303.200 342.004,303.200 344.624 C 303.200 347.408,303.043 349.200,302.800 349.200 C 302.580 349.200,302.400 349.791,302.400 350.513 C 302.400 352.705,297.311 357.200,294.829 357.200 C 294.179 357.200,293.536 357.380,293.400 357.600 C 293.236 357.865,261.004 358.000,198.000 358.000 C 134.996 358.000,102.764 357.865,102.600 357.600 C 102.464 357.380,101.773 357.200,101.064 357.200 C 98.895 357.200,94.400 352.093,94.400 349.629 C 94.400 348.979,94.220 348.336,94.000 348.200 C 93.773 348.060,93.600 346.063,93.600 343.576 C 93.600 340.925,93.758 339.200,94.000 339.200 C 94.220 339.200,94.404 338.615,94.409 337.900 C 94.418 336.456,98.163 332.000,99.366 332.000 C 99.715 332.000,100.000 331.820,100.000 331.600 C 100.000 331.380,100.720 331.200,101.600 331.200 C 102.480 331.200,103.200 331.020,103.200 330.800 C 103.200 330.534,135.325 330.400,198.776 330.400 C 262.063 330.400,294.436 330.535,294.600 330.800 " stroke="none" fill="#040404" fill-rule="evenodd"></path><path id="path1" d="M196.275 33.122 L 195.200 34.244 195.200 46.722 L 195.200 59.200 181.075 59.200 L 166.950 59.200 165.875 60.322 C 164.438 61.821,164.398 64.034,165.782 65.418 L 166.764 66.400 180.982 66.400 L 195.200 66.400 195.200 115.738 C 195.200 172.083,194.778 166.400,198.960 166.400 C 202.754 166.400,202.400 171.597,202.400 115.829 L 202.400 66.400 215.930 66.400 L 229.461 66.400 230.330 65.474 C 231.639 64.081,231.522 61.658,230.078 60.275 L 228.956 59.200 215.678 59.200 L 202.400 59.200 202.400 46.582 L 202.400 33.964 201.418 32.982 C 199.999 31.563,197.709 31.625,196.275 33.122 M138.200 88.000 C 138.064 88.220,136.804 88.400,135.400 88.400 C 133.996 88.400,132.736 88.580,132.600 88.800 C 132.464 89.020,131.829 89.200,131.189 89.200 C 130.548 89.200,129.383 89.560,128.600 90.000 C 127.817 90.440,126.840 90.800,126.431 90.800 C 126.021 90.800,125.582 91.070,125.455 91.400 C 125.329 91.730,124.976 92.000,124.672 92.000 C 124.368 92.000,123.554 92.540,122.863 93.200 C 122.172 93.860,121.413 94.400,121.175 94.400 C 120.604 94.400,119.600 95.422,119.600 96.003 C 119.600 96.256,118.880 97.154,118.000 98.000 C 117.120 98.846,116.400 99.821,116.400 100.169 C 116.400 100.516,116.220 100.800,116.000 100.800 C 115.780 100.800,115.600 101.160,115.600 101.600 C 115.600 102.040,115.420 102.400,115.200 102.400 C 114.980 102.400,114.800 102.760,114.800 103.200 C 114.800 103.640,114.620 104.000,114.400 104.000 C 114.180 104.000,114.000 104.619,114.000 105.376 C 114.000 106.133,113.820 106.864,113.600 107.000 C 113.380 107.136,113.200 108.036,113.200 109.000 C 113.200 109.964,113.020 110.864,112.800 111.000 C 112.580 111.136,112.400 112.846,112.400 114.800 C 112.400 116.754,112.580 118.464,112.800 118.600 C 113.020 118.736,113.200 119.816,113.200 121.000 C 113.200 122.184,113.380 123.264,113.600 123.400 C 113.820 123.536,114.000 124.076,114.000 124.600 C 114.000 125.124,114.180 125.664,114.400 125.800 C 114.620 125.936,114.800 126.476,114.800 127.000 C 114.800 127.524,114.980 128.064,115.200 128.200 C 115.420 128.336,115.600 128.887,115.600 129.424 C 115.600 129.961,115.780 130.400,116.000 130.400 C 116.220 130.400,116.400 130.760,116.400 131.200 C 116.400 131.640,116.580 132.000,116.800 132.000 C 117.020 132.000,117.200 132.360,117.200 132.800 C 117.200 133.240,117.380 133.600,117.600 133.600 C 117.820 133.600,118.000 133.960,118.000 134.400 C 118.000 134.840,118.180 135.200,118.400 135.200 C 118.620 135.200,118.800 135.560,118.800 136.000 C 118.800 136.440,118.980 136.800,119.200 136.800 C 119.420 136.800,119.600 137.117,119.600 137.504 C 119.600 137.891,119.960 138.432,120.400 138.707 C 120.840 138.982,121.200 139.447,121.200 139.741 C 121.200 140.035,121.560 140.602,122.000 141.000 C 122.440 141.398,122.800 141.938,122.800 142.200 C 122.800 142.462,123.160 143.002,123.600 143.400 C 124.040 143.798,124.400 144.335,124.400 144.592 C 124.400 144.850,124.850 145.483,125.400 146.000 C 125.950 146.517,126.400 147.144,126.400 147.395 C 126.400 147.645,126.940 148.368,127.600 149.000 C 128.260 149.632,128.800 150.348,128.800 150.590 C 128.800 150.832,129.700 151.917,130.800 153.000 C 131.900 154.083,132.800 155.162,132.800 155.397 C 132.800 155.633,133.880 156.894,135.200 158.200 C 136.520 159.506,137.600 160.767,137.600 161.001 C 137.600 161.236,138.590 162.405,139.800 163.600 C 141.010 164.795,142.000 165.976,142.000 166.224 C 142.000 167.782,151.311 169.038,152.200 167.600 C 152.336 167.380,153.585 167.200,154.975 167.200 C 157.935 167.200,158.976 166.499,157.855 165.261 C 157.495 164.863,157.200 164.367,157.200 164.159 C 157.200 163.951,155.760 162.350,154.000 160.600 C 152.240 158.850,150.800 157.229,150.800 156.997 C 150.800 156.765,149.720 155.506,148.400 154.200 C 147.080 152.894,146.000 151.633,146.000 151.397 C 146.000 151.162,145.100 150.083,144.000 149.000 C 142.900 147.917,142.000 146.830,142.000 146.585 C 142.000 146.340,141.550 145.717,141.000 145.200 C 140.450 144.683,140.000 144.050,140.000 143.792 C 140.000 143.535,139.640 142.998,139.200 142.600 C 138.760 142.202,138.400 141.668,138.400 141.413 C 138.400 141.158,137.860 140.432,137.200 139.800 C 136.540 139.168,136.000 138.454,136.000 138.213 C 136.000 137.973,135.640 137.517,135.200 137.200 C 134.760 136.883,134.400 136.343,134.400 136.000 C 134.400 135.657,134.040 135.117,133.600 134.800 C 133.160 134.483,132.800 133.903,132.800 133.512 C 132.800 133.120,132.620 132.800,132.400 132.800 C 132.180 132.800,132.000 132.300,132.000 131.688 C 132.000 131.035,131.670 130.339,131.200 130.000 C 130.760 129.683,130.400 129.109,130.400 128.724 C 130.400 128.339,130.040 127.383,129.600 126.600 C 129.160 125.817,128.800 124.472,128.800 123.611 C 128.800 122.751,128.620 121.936,128.400 121.800 C 128.180 121.664,128.000 120.854,128.000 120.000 C 128.000 119.146,128.180 118.336,128.400 118.200 C 128.620 118.064,128.800 117.344,128.800 116.600 C 128.800 115.856,128.980 115.136,129.200 115.000 C 129.420 114.864,129.600 114.373,129.600 113.908 C 129.600 113.443,129.899 112.733,130.264 112.329 C 130.630 111.925,131.129 111.194,131.372 110.705 C 131.616 110.216,132.224 109.612,132.723 109.364 C 133.222 109.115,134.040 108.526,134.541 108.056 C 135.042 107.585,135.817 107.200,136.264 107.200 C 136.711 107.200,137.402 106.840,137.800 106.400 C 138.198 105.960,138.935 105.600,139.438 105.600 C 139.941 105.600,140.469 105.411,140.612 105.181 C 140.791 104.890,141.034 104.896,141.400 105.200 C 141.766 105.504,142.009 105.510,142.188 105.219 C 142.331 104.989,143.067 104.800,143.824 104.800 C 144.581 104.800,145.200 104.620,145.200 104.400 C 145.200 104.178,146.259 104.000,147.576 104.000 C 148.883 104.000,150.064 104.180,150.200 104.400 C 150.336 104.620,151.427 104.800,152.624 104.800 C 153.821 104.800,154.800 104.980,154.800 105.200 C 154.800 105.420,155.340 105.600,156.000 105.600 C 156.660 105.600,157.201 105.735,157.203 105.900 C 157.207 106.301,159.181 107.200,160.056 107.200 C 160.439 107.200,160.855 107.366,160.981 107.569 C 161.106 107.772,161.722 108.051,162.348 108.189 C 162.975 108.326,163.997 108.970,164.619 109.619 C 165.241 110.269,165.952 110.800,166.200 110.800 C 166.448 110.800,167.168 111.340,167.800 112.000 C 168.432 112.660,169.144 113.200,169.381 113.200 C 169.930 113.200,178.800 122.073,178.800 122.621 C 178.800 122.846,179.700 123.917,180.800 125.000 C 181.900 126.083,182.800 127.168,182.800 127.410 C 182.800 127.652,183.340 128.368,184.000 129.000 C 184.660 129.632,185.200 130.351,185.200 130.596 C 185.200 131.839,187.835 133.645,188.529 132.878 C 189.458 131.852,189.536 120.377,188.619 119.616 C 188.300 119.351,186.761 116.554,185.200 113.400 C 183.639 110.246,182.100 107.449,181.781 107.184 C 181.461 106.919,181.200 106.482,181.200 106.213 C 181.200 105.944,180.840 105.398,180.400 105.000 C 179.960 104.602,179.600 104.075,179.600 103.829 C 179.600 103.258,173.126 96.800,172.554 96.800 C 172.317 96.800,171.798 96.440,171.400 96.000 C 171.002 95.560,170.456 95.200,170.187 95.200 C 169.918 95.200,169.481 94.939,169.216 94.619 C 168.616 93.896,164.861 92.001,164.021 91.998 C 163.680 91.996,162.884 91.726,162.254 91.398 C 161.624 91.069,160.600 90.800,159.978 90.800 C 159.356 90.800,158.736 90.620,158.600 90.400 C 158.464 90.180,157.913 90.000,157.376 90.000 C 156.839 90.000,156.400 89.820,156.400 89.600 C 156.400 89.380,155.601 89.200,154.624 89.200 C 153.647 89.200,152.736 89.020,152.600 88.800 C 152.464 88.580,151.024 88.400,149.400 88.400 C 147.776 88.400,146.336 88.220,146.200 88.000 C 146.064 87.779,144.270 87.600,142.200 87.600 C 140.130 87.600,138.336 87.779,138.200 88.000 M246.000 88.800 C 246.000 89.020,245.201 89.200,244.224 89.200 C 243.247 89.200,242.336 89.380,242.200 89.600 C 242.064 89.820,241.344 90.000,240.600 90.000 C 239.856 90.000,239.136 90.180,239.000 90.400 C 238.864 90.620,238.144 90.800,237.400 90.800 C 236.656 90.800,235.936 90.980,235.800 91.200 C 235.664 91.420,235.175 91.600,234.714 91.600 C 233.486 91.600,225.911 95.418,224.806 96.593 C 224.286 97.147,223.662 97.600,223.419 97.600 C 222.861 97.600,218.000 102.477,218.000 103.036 C 218.000 103.264,217.460 103.968,216.800 104.600 C 216.140 105.232,215.600 105.964,215.600 106.226 C 215.600 106.488,215.328 106.928,214.995 107.204 C 214.662 107.480,213.855 108.828,213.200 110.200 C 212.545 111.572,211.738 112.920,211.405 113.196 C 211.072 113.472,210.800 114.018,210.800 114.408 C 210.800 114.799,210.260 116.145,209.600 117.400 C 208.071 120.306,207.739 130.078,209.126 131.333 C 209.858 131.996,212.400 130.155,212.400 128.962 C 212.400 128.742,213.120 127.859,214.000 127.000 C 214.880 126.141,215.600 125.247,215.600 125.014 C 215.600 124.460,227.680 112.400,228.235 112.400 C 228.469 112.400,229.088 111.945,229.610 111.390 C 230.699 110.230,232.594 109.200,233.638 109.200 C 234.031 109.200,234.454 109.036,234.579 108.835 C 234.916 108.288,238.853 106.400,239.655 106.400 C 240.039 106.400,240.469 106.211,240.612 105.981 C 240.791 105.690,241.034 105.696,241.400 106.000 C 241.766 106.304,242.009 106.310,242.188 106.019 C 242.331 105.789,242.887 105.600,243.424 105.600 C 243.961 105.600,244.400 105.420,244.400 105.200 C 244.400 104.956,246.267 104.800,249.200 104.800 C 252.133 104.800,254.000 104.956,254.000 105.200 C 254.000 105.420,254.720 105.600,255.600 105.600 C 256.480 105.600,257.201 105.735,257.203 105.900 C 257.207 106.290,259.171 107.200,260.010 107.200 C 260.368 107.200,261.083 107.650,261.600 108.200 C 262.117 108.750,262.744 109.200,262.995 109.200 C 263.662 109.200,265.403 111.200,266.042 112.700 C 266.346 113.415,266.731 114.000,266.898 114.000 C 267.064 114.000,267.200 114.360,267.200 114.800 C 267.200 115.240,267.380 115.600,267.600 115.600 C 268.424 115.600,268.085 124.224,267.200 125.800 C 266.760 126.583,266.400 127.731,266.400 128.350 C 266.400 128.969,266.040 129.802,265.600 130.200 C 265.160 130.598,264.800 131.318,264.800 131.800 C 264.800 132.282,264.440 133.002,264.000 133.400 C 263.560 133.798,263.200 134.366,263.200 134.662 C 263.200 134.958,263.020 135.200,262.800 135.200 C 262.580 135.200,262.400 135.520,262.400 135.912 C 262.400 136.303,262.040 136.883,261.600 137.200 C 261.160 137.517,260.800 138.009,260.800 138.292 C 260.800 138.575,260.260 139.372,259.600 140.063 C 258.940 140.754,258.400 141.464,258.400 141.641 C 258.400 141.819,257.950 142.414,257.400 142.964 C 256.850 143.514,256.400 144.166,256.400 144.413 C 256.400 144.660,255.680 145.554,254.800 146.400 C 253.920 147.246,253.200 148.141,253.200 148.391 C 253.200 148.640,252.120 149.904,250.800 151.200 C 249.480 152.496,248.400 153.689,248.400 153.853 C 248.400 154.016,246.825 155.820,244.900 157.862 C 235.789 167.523,235.826 167.200,243.849 167.200 C 247.150 167.200,249.200 167.353,249.200 167.600 C 249.200 167.820,250.152 168.000,251.315 168.000 C 253.384 168.000,257.200 165.260,257.200 163.775 C 257.200 163.556,258.370 162.217,259.800 160.800 C 261.230 159.383,262.400 158.031,262.400 157.797 C 262.400 157.562,263.300 156.483,264.400 155.400 C 265.500 154.317,266.400 153.274,266.400 153.084 C 266.400 152.893,267.120 152.046,268.000 151.200 C 268.880 150.354,269.600 149.451,269.600 149.192 C 269.600 148.933,270.140 148.217,270.800 147.600 C 271.460 146.983,272.000 146.231,272.000 145.928 C 272.000 145.625,272.360 145.117,272.800 144.800 C 273.240 144.483,273.600 143.903,273.600 143.512 C 273.600 143.120,273.768 142.800,273.973 142.800 C 274.178 142.800,274.450 142.472,274.578 142.071 C 274.705 141.669,275.125 140.994,275.510 140.571 C 276.452 139.535,281.205 129.976,281.202 129.124 C 281.201 128.752,281.380 128.336,281.600 128.200 C 281.820 128.064,282.000 127.524,282.000 127.000 C 282.000 126.476,282.180 125.936,282.400 125.800 C 282.620 125.664,282.800 124.944,282.800 124.200 C 282.800 123.456,282.980 122.736,283.200 122.600 C 283.441 122.451,283.600 119.670,283.600 115.600 C 283.600 111.530,283.441 108.749,283.200 108.600 C 282.980 108.464,282.800 107.744,282.800 107.000 C 282.800 106.256,282.620 105.536,282.400 105.400 C 282.180 105.264,282.000 104.839,282.000 104.455 C 282.000 103.558,280.139 99.813,279.381 99.184 C 279.061 98.919,278.800 98.494,278.800 98.239 C 278.800 97.484,273.922 92.979,272.317 92.251 C 271.501 91.881,270.726 91.403,270.593 91.189 C 270.461 90.975,269.924 90.800,269.400 90.800 C 268.876 90.800,268.336 90.620,268.200 90.400 C 268.064 90.180,267.524 90.000,267.000 90.000 C 266.476 90.000,265.936 89.820,265.800 89.600 C 265.664 89.380,264.944 89.200,264.200 89.200 C 263.456 89.200,262.736 89.020,262.600 88.800 C 262.448 88.554,259.196 88.400,254.176 88.400 C 248.992 88.400,246.000 88.546,246.000 88.800 M131.638 141.086 C 132.277 141.464,132.800 141.879,132.800 142.010 C 132.800 142.141,133.565 143.164,134.500 144.283 C 135.435 145.402,137.025 147.371,138.033 148.659 C 139.041 149.947,141.696 153.298,143.933 156.106 C 148.143 161.391,148.451 162.039,147.338 163.269 C 145.997 164.751,145.387 164.194,137.451 154.239 C 128.314 142.777,127.485 141.397,129.300 140.665 C 130.146 140.324,130.436 140.376,131.638 141.086 M130.000 168.000 C 130.000 168.220,130.270 168.400,130.600 168.400 C 130.930 168.400,131.200 168.220,131.200 168.000 C 131.200 167.780,130.930 167.600,130.600 167.600 C 130.270 167.600,130.000 167.780,130.000 168.000 M270.400 168.000 C 270.400 168.220,270.850 168.400,271.400 168.400 C 271.950 168.400,272.400 168.220,272.400 168.000 C 272.400 167.780,271.950 167.600,271.400 167.600 C 270.850 167.600,270.400 167.780,270.400 168.000 M275.600 168.800 C 275.600 169.020,275.870 169.200,276.200 169.200 C 276.530 169.200,276.800 169.020,276.800 168.800 C 276.800 168.580,276.530 168.400,276.200 168.400 C 275.870 168.400,275.600 168.580,275.600 168.800 M120.800 169.600 C 120.800 169.820,121.070 170.000,121.400 170.000 C 121.730 170.000,122.000 169.820,122.000 169.600 C 122.000 169.380,121.730 169.200,121.400 169.200 C 121.070 169.200,120.800 169.380,120.800 169.600 M279.600 169.600 C 279.600 169.820,279.870 170.000,280.200 170.000 C 280.530 170.000,280.800 169.820,280.800 169.600 C 280.800 169.380,280.530 169.200,280.200 169.200 C 279.870 169.200,279.600 169.380,279.600 169.600 M282.800 170.400 C 282.800 170.620,283.070 170.800,283.400 170.800 C 283.730 170.800,284.000 170.620,284.000 170.400 C 284.000 170.180,283.730 170.000,283.400 170.000 C 283.070 170.000,282.800 170.180,282.800 170.400 M116.000 171.200 C 116.000 171.420,116.270 171.600,116.600 171.600 C 116.930 171.600,117.200 171.420,117.200 171.200 C 117.200 170.980,116.930 170.800,116.600 170.800 C 116.270 170.800,116.000 170.980,116.000 171.200 M284.400 171.200 C 284.400 171.420,284.670 171.600,285.000 171.600 C 285.330 171.600,285.600 171.420,285.600 171.200 C 285.600 170.980,285.330 170.800,285.000 170.800 C 284.670 170.800,284.400 170.980,284.400 171.200 M114.100 172.198 C 113.515 172.863,113.434 174.000,113.973 174.000 C 114.178 174.000,114.460 173.640,114.600 173.200 C 114.740 172.760,115.022 172.400,115.227 172.400 C 115.432 172.400,115.600 172.220,115.600 172.000 C 115.600 171.417,114.681 171.539,114.100 172.198 M286.000 172.000 C 286.000 172.220,286.180 172.400,286.400 172.400 C 286.620 172.400,286.800 172.670,286.800 173.000 C 286.800 173.330,287.070 173.600,287.400 173.600 C 288.158 173.600,288.172 172.915,287.429 172.171 C 286.768 171.510,286.000 171.418,286.000 172.000 M173.200 174.643 C 171.990 174.719,166.590 174.968,161.200 175.196 C 141.867 176.014,123.722 178.052,122.500 179.543 C 121.856 180.329,121.865 185.195,122.513 186.023 C 122.969 186.606,124.919 187.043,131.298 187.990 C 148.657 190.566,187.829 192.026,218.313 191.232 C 246.855 190.488,262.564 189.345,277.503 186.923 C 279.088 186.666,279.282 186.074,279.119 181.995 L 279.000 179.000 277.200 178.704 C 266.806 176.996,256.957 176.012,241.600 175.147 C 234.678 174.757,178.032 174.340,173.200 174.643 M115.200 192.800 C 115.200 193.020,115.470 193.200,115.800 193.200 C 116.130 193.200,116.400 193.020,116.400 192.800 C 116.400 192.580,116.130 192.400,115.800 192.400 C 115.470 192.400,115.200 192.580,115.200 192.800 M285.200 192.800 C 285.200 193.020,285.470 193.200,285.800 193.200 C 286.130 193.200,286.400 193.020,286.400 192.800 C 286.400 192.580,286.130 192.400,285.800 192.400 C 285.470 192.400,285.200 192.580,285.200 192.800 M116.800 193.600 C 116.800 193.820,117.070 194.000,117.400 194.000 C 117.730 194.000,118.000 193.820,118.000 193.600 C 118.000 193.380,117.730 193.200,117.400 193.200 C 117.070 193.200,116.800 193.380,116.800 193.600 M123.200 195.200 C 123.200 195.420,123.470 195.600,123.800 195.600 C 124.130 195.600,124.400 195.420,124.400 195.200 C 124.400 194.980,124.130 194.800,123.800 194.800 C 123.470 194.800,123.200 194.980,123.200 195.200 M128.400 196.000 C 128.400 196.220,128.670 196.400,129.000 196.400 C 129.330 196.400,129.600 196.220,129.600 196.000 C 129.600 195.780,129.330 195.600,129.000 195.600 C 128.670 195.600,128.400 195.780,128.400 196.000 M134.000 196.800 C 134.000 197.020,134.360 197.200,134.800 197.200 C 135.240 197.200,135.600 197.020,135.600 196.800 C 135.600 196.580,135.240 196.400,134.800 196.400 C 134.360 196.400,134.000 196.580,134.000 196.800 M266.400 196.800 C 266.400 197.020,266.670 197.200,267.000 197.200 C 267.330 197.200,267.600 197.020,267.600 196.800 C 267.600 196.580,267.330 196.400,267.000 196.400 C 266.670 196.400,266.400 196.580,266.400 196.800 M142.000 197.600 C 142.000 197.820,142.360 198.000,142.800 198.000 C 143.240 198.000,143.600 197.820,143.600 197.600 C 143.600 197.380,143.240 197.200,142.800 197.200 C 142.360 197.200,142.000 197.380,142.000 197.600 M258.000 197.600 C 258.000 197.820,258.360 198.000,258.800 198.000 C 259.240 198.000,259.600 197.820,259.600 197.600 C 259.600 197.380,259.240 197.200,258.800 197.200 C 258.360 197.200,258.000 197.380,258.000 197.600 M152.000 198.400 C 152.000 198.620,152.540 198.800,153.200 198.800 C 153.860 198.800,154.400 198.620,154.400 198.400 C 154.400 198.180,153.860 198.000,153.200 198.000 C 152.540 198.000,152.000 198.180,152.000 198.400 M247.200 198.400 C 247.200 198.620,247.740 198.800,248.400 198.800 C 249.060 198.800,249.600 198.620,249.600 198.400 C 249.600 198.180,249.060 198.000,248.400 198.000 C 247.740 198.000,247.200 198.180,247.200 198.400 M168.967 199.167 C 168.875 199.258,168.800 201.183,168.800 203.443 C 168.800 205.751,168.625 207.661,168.400 207.800 C 168.171 207.942,168.000 210.004,168.000 212.624 C 168.000 215.408,167.843 217.200,167.600 217.200 C 167.359 217.200,167.200 218.859,167.200 221.376 C 167.200 223.729,167.025 225.661,166.800 225.800 C 166.580 225.936,166.400 227.567,166.400 229.424 C 166.400 231.408,166.235 232.800,166.000 232.800 C 165.769 232.800,165.600 234.059,165.600 235.776 C 165.600 237.413,165.420 238.864,165.200 239.000 C 164.980 239.136,164.800 240.576,164.800 242.200 C 164.800 243.824,164.620 245.264,164.400 245.400 C 164.180 245.536,164.000 246.616,164.000 247.800 C 164.000 248.984,163.820 250.064,163.600 250.200 C 163.380 250.336,163.200 251.427,163.200 252.624 C 163.200 253.821,163.020 254.800,162.800 254.800 C 162.580 254.800,162.400 255.599,162.400 256.576 C 162.400 257.553,162.220 258.464,162.000 258.600 C 161.780 258.736,161.600 259.636,161.600 260.600 C 161.600 261.564,161.420 262.464,161.200 262.600 C 160.980 262.736,160.800 263.456,160.800 264.200 C 160.800 264.944,160.620 265.664,160.400 265.800 C 160.180 265.936,160.000 266.656,160.000 267.400 C 160.000 268.144,159.820 268.864,159.600 269.000 C 159.380 269.136,159.200 269.756,159.200 270.378 C 159.200 271.000,158.931 272.024,158.602 272.654 C 158.274 273.284,158.004 274.385,158.002 275.100 C 158.001 275.815,157.820 276.400,157.600 276.400 C 157.380 276.400,157.200 277.019,157.200 277.776 C 157.200 278.533,157.020 279.264,156.800 279.400 C 156.580 279.536,156.400 279.991,156.400 280.411 C 156.400 280.832,156.040 281.817,155.600 282.600 C 155.160 283.383,154.800 284.368,154.800 284.789 C 154.800 285.209,154.620 285.664,154.400 285.800 C 154.180 285.936,154.000 286.391,154.000 286.811 C 154.000 287.232,153.640 288.217,153.200 289.000 C 152.760 289.783,152.400 290.683,152.400 291.000 C 152.400 291.317,152.040 292.217,151.600 293.000 C 151.160 293.783,150.800 294.672,150.800 294.974 C 150.800 295.632,149.128 298.943,148.700 299.133 C 148.535 299.207,148.400 299.612,148.400 300.033 C 148.400 300.455,148.220 300.800,148.000 300.800 C 147.780 300.800,147.600 301.160,147.600 301.600 C 147.600 302.040,147.420 302.400,147.200 302.400 C 146.980 302.400,146.800 302.925,146.800 303.567 C 146.800 304.208,146.659 304.793,146.487 304.867 C 146.217 304.982,143.369 310.638,140.681 316.400 C 140.220 317.390,139.587 318.506,139.276 318.881 C 138.965 319.255,138.301 320.371,137.800 321.360 C 136.119 324.681,130.446 324.400,199.270 324.400 C 270.431 324.400,262.800 325.014,260.101 319.503 C 259.212 317.686,257.256 313.680,255.754 310.600 C 254.253 307.520,252.884 304.940,252.712 304.867 C 252.541 304.793,252.400 304.388,252.400 303.967 C 252.400 303.545,252.220 303.200,252.000 303.200 C 251.780 303.200,251.600 302.840,251.600 302.400 C 251.600 301.960,251.420 301.600,251.200 301.600 C 250.980 301.600,250.800 301.240,250.800 300.800 C 250.800 300.360,250.620 300.000,250.400 300.000 C 250.180 300.000,250.000 299.640,250.000 299.200 C 250.000 298.760,249.820 298.400,249.600 298.400 C 249.380 298.400,249.200 298.040,249.200 297.600 C 249.200 297.160,249.020 296.800,248.800 296.800 C 248.580 296.800,248.400 296.445,248.400 296.012 C 248.400 295.579,248.040 294.583,247.600 293.800 C 247.160 293.017,246.800 292.117,246.800 291.800 C 246.800 291.483,246.440 290.583,246.000 289.800 C 245.560 289.017,245.200 288.032,245.200 287.611 C 245.200 287.191,245.020 286.736,244.800 286.600 C 244.580 286.464,244.400 286.009,244.400 285.589 C 244.400 285.168,244.040 284.183,243.600 283.400 C 243.160 282.617,242.800 281.632,242.800 281.211 C 242.800 280.791,242.637 280.346,242.437 280.223 C 242.238 280.100,241.951 279.100,241.800 278.000 C 241.649 276.900,241.362 275.900,241.163 275.777 C 240.963 275.654,240.800 275.113,240.800 274.576 C 240.800 274.039,240.620 273.600,240.400 273.600 C 240.180 273.600,240.000 272.801,240.000 271.824 C 240.000 270.847,239.820 269.936,239.600 269.800 C 239.380 269.664,239.200 269.124,239.200 268.600 C 239.200 268.076,239.020 267.536,238.800 267.400 C 238.580 267.264,238.400 266.544,238.400 265.800 C 238.400 265.056,238.220 264.336,238.000 264.200 C 237.780 264.064,237.600 263.164,237.600 262.200 C 237.600 261.236,237.420 260.336,237.200 260.200 C 236.980 260.064,236.800 259.344,236.800 258.600 C 236.800 257.856,236.620 257.136,236.400 257.000 C 236.180 256.864,236.000 255.773,236.000 254.576 C 236.000 253.379,235.820 252.400,235.600 252.400 C 235.380 252.400,235.200 251.421,235.200 250.224 C 235.200 249.027,235.020 247.936,234.800 247.800 C 234.580 247.664,234.400 246.404,234.400 245.000 C 234.400 243.596,234.220 242.336,234.000 242.200 C 233.780 242.064,233.600 240.804,233.600 239.400 C 233.600 237.996,233.420 236.736,233.200 236.600 C 232.980 236.464,232.800 234.934,232.800 233.200 C 232.800 231.466,232.620 229.936,232.400 229.800 C 232.179 229.664,232.000 227.870,232.000 225.800 C 232.000 223.730,231.821 221.936,231.600 221.800 C 231.375 221.661,231.200 219.729,231.200 217.376 C 231.200 214.859,231.041 213.200,230.800 213.200 C 230.555 213.200,230.400 211.293,230.400 208.280 C 230.400 205.574,230.231 203.189,230.025 202.980 C 229.819 202.771,229.594 201.820,229.525 200.867 L 229.400 199.133 199.267 199.067 C 182.693 199.030,169.058 199.075,168.967 199.167 M160.400 201.800 C 160.400 202.796,160.561 203.213,160.900 203.100 C 161.175 203.008,161.400 202.423,161.400 201.800 C 161.400 201.177,161.175 200.592,160.900 200.500 C 160.561 200.387,160.400 200.804,160.400 201.800 M237.673 207.869 C 237.858 209.426,238.800 209.564,238.800 208.033 C 238.800 207.180,238.607 206.800,238.173 206.800 C 237.729 206.800,237.584 207.111,237.673 207.869 M159.856 210.678 C 159.323 211.210,159.595 213.200,160.200 213.200 C 160.597 213.200,160.800 212.803,160.800 212.024 C 160.800 210.849,160.340 210.193,159.856 210.678 M183.019 212.420 C 183.714 213.189,184.024 224.590,183.378 225.635 C 183.285 225.787,183.016 228.495,182.781 231.655 C 181.643 246.952,180.005 257.792,177.227 268.400 C 175.087 276.574,174.045 280.125,172.650 284.000 C 171.897 286.090,171.059 288.430,170.787 289.200 C 170.515 289.970,170.137 290.913,169.946 291.295 C 169.756 291.677,169.600 292.180,169.600 292.414 C 169.600 292.648,169.240 293.584,168.800 294.494 C 168.360 295.405,168.000 296.298,168.000 296.479 C 168.000 296.661,167.667 297.572,167.259 298.504 C 166.852 299.437,166.146 301.100,165.691 302.200 C 161.018 313.489,160.749 313.960,158.952 313.987 C 157.603 314.008,157.414 311.644,158.559 309.068 C 159.064 307.931,159.979 305.740,160.592 304.200 C 161.206 302.660,162.043 300.637,162.454 299.704 C 162.864 298.772,163.200 297.854,163.200 297.666 C 163.200 297.477,163.450 296.800,163.756 296.161 C 165.139 293.275,166.319 290.239,168.094 285.000 C 168.541 283.680,169.054 282.240,169.234 281.800 C 169.704 280.647,170.836 277.217,171.247 275.700 C 172.040 272.776,172.344 271.661,173.146 268.733 C 174.738 262.923,176.598 252.187,177.051 246.200 C 177.167 244.660,177.428 243.229,177.631 243.020 C 177.834 242.811,178.000 241.182,178.000 239.400 C 178.000 237.618,178.165 235.989,178.366 235.780 C 178.568 235.571,178.826 233.600,178.941 231.400 C 179.733 216.219,180.038 213.540,181.116 212.300 C 181.892 211.406,182.113 211.420,183.019 212.420 M238.667 216.267 C 238.163 216.770,238.400 218.000,239.000 218.000 C 239.373 218.000,239.600 217.622,239.600 217.000 C 239.600 216.029,239.211 215.723,238.667 216.267 M159.067 220.267 C 158.920 220.413,158.800 220.878,158.800 221.300 C 158.800 222.337,159.766 221.968,159.928 220.869 C 160.052 220.028,159.613 219.721,159.067 220.267 M239.200 225.600 C 239.200 226.044,239.467 226.400,239.800 226.400 C 240.133 226.400,240.400 226.044,240.400 225.600 C 240.400 225.156,240.133 224.800,239.800 224.800 C 239.467 224.800,239.200 225.156,239.200 225.600 M158.400 228.600 C 158.400 229.150,158.580 229.600,158.800 229.600 C 159.020 229.600,159.200 229.150,159.200 228.600 C 159.200 228.050,159.020 227.600,158.800 227.600 C 158.580 227.600,158.400 228.050,158.400 228.600 M240.000 232.600 C 240.000 233.219,240.227 233.600,240.596 233.600 C 240.986 233.600,241.163 233.256,241.108 232.600 C 241.063 232.050,240.795 231.600,240.513 231.600 C 240.231 231.600,240.000 232.050,240.000 232.600 M157.600 235.600 C 157.600 236.040,157.780 236.400,158.000 236.400 C 158.220 236.400,158.400 236.040,158.400 235.600 C 158.400 235.160,158.220 234.800,158.000 234.800 C 157.780 234.800,157.600 235.160,157.600 235.600 M240.800 239.000 C 240.800 239.550,240.980 240.000,241.200 240.000 C 241.420 240.000,241.600 239.550,241.600 239.000 C 241.600 238.450,241.420 238.000,241.200 238.000 C 240.980 238.000,240.800 238.450,240.800 239.000 M156.800 241.400 C 156.800 241.950,156.980 242.400,157.200 242.400 C 157.420 242.400,157.600 241.950,157.600 241.400 C 157.600 240.850,157.420 240.400,157.200 240.400 C 156.980 240.400,156.800 240.850,156.800 241.400 M241.600 244.200 C 241.600 244.750,241.780 245.200,242.000 245.200 C 242.220 245.200,242.400 244.750,242.400 244.200 C 242.400 243.650,242.220 243.200,242.000 243.200 C 241.780 243.200,241.600 243.650,241.600 244.200 M242.400 249.400 C 242.400 249.730,242.580 250.000,242.800 250.000 C 243.020 250.000,243.200 249.730,243.200 249.400 C 243.200 249.070,243.020 248.800,242.800 248.800 C 242.580 248.800,242.400 249.070,242.400 249.400 M155.200 251.400 C 155.200 251.950,155.380 252.400,155.600 252.400 C 155.820 252.400,156.000 251.950,156.000 251.400 C 156.000 250.850,155.820 250.400,155.600 250.400 C 155.380 250.400,155.200 250.850,155.200 251.400 M243.200 253.800 C 243.200 254.350,243.380 254.800,243.600 254.800 C 243.820 254.800,244.000 254.350,244.000 253.800 C 244.000 253.250,243.820 252.800,243.600 252.800 C 243.380 252.800,243.200 253.250,243.200 253.800 M154.400 255.800 C 154.400 256.130,154.580 256.400,154.800 256.400 C 155.020 256.400,155.200 256.130,155.200 255.800 C 155.200 255.470,155.020 255.200,154.800 255.200 C 154.580 255.200,154.400 255.470,154.400 255.800 M244.000 257.600 C 244.000 258.040,244.180 258.400,244.400 258.400 C 244.620 258.400,244.800 258.040,244.800 257.600 C 244.800 257.160,244.620 256.800,244.400 256.800 C 244.180 256.800,244.000 257.160,244.000 257.600 M244.800 261.000 C 244.800 261.330,244.980 261.600,245.200 261.600 C 245.420 261.600,245.600 261.330,245.600 261.000 C 245.600 260.670,245.420 260.400,245.200 260.400 C 244.980 260.400,244.800 260.670,244.800 261.000 M152.800 262.800 C 152.800 263.240,152.980 263.600,153.200 263.600 C 153.420 263.600,153.600 263.240,153.600 262.800 C 153.600 262.360,153.420 262.000,153.200 262.000 C 152.980 262.000,152.800 262.360,152.800 262.800 M245.600 264.400 C 245.600 264.840,245.780 265.200,246.000 265.200 C 246.220 265.200,246.400 264.840,246.400 264.400 C 246.400 263.960,246.220 263.600,246.000 263.600 C 245.780 263.600,245.600 263.960,245.600 264.400 M152.000 265.800 C 152.000 266.130,152.180 266.400,152.400 266.400 C 152.620 266.400,152.800 266.130,152.800 265.800 C 152.800 265.470,152.620 265.200,152.400 265.200 C 152.180 265.200,152.000 265.470,152.000 265.800 M246.400 267.400 C 246.400 267.730,246.580 268.000,246.800 268.000 C 247.020 268.000,247.200 267.730,247.200 267.400 C 247.200 267.070,247.020 266.800,246.800 266.800 C 246.580 266.800,246.400 267.070,246.400 267.400 M151.200 269.000 C 151.200 269.330,151.380 269.600,151.600 269.600 C 151.820 269.600,152.000 269.330,152.000 269.000 C 152.000 268.670,151.820 268.400,151.600 268.400 C 151.380 268.400,151.200 268.670,151.200 269.000 M150.400 272.200 C 150.400 272.530,150.580 272.800,150.800 272.800 C 151.020 272.800,151.200 272.530,151.200 272.200 C 151.200 271.870,151.020 271.600,150.800 271.600 C 150.580 271.600,150.400 271.870,150.400 272.200 M248.000 273.000 C 248.000 273.330,248.180 273.600,248.400 273.600 C 248.620 273.600,248.800 273.330,248.800 273.000 C 248.800 272.670,248.620 272.400,248.400 272.400 C 248.180 272.400,248.000 272.670,248.000 273.000 M148.000 279.000 C 148.000 279.330,148.180 279.600,148.400 279.600 C 148.620 279.600,148.800 279.330,148.800 279.000 C 148.800 278.670,148.620 278.400,148.400 278.400 C 148.180 278.400,148.000 278.670,148.000 279.000 M250.400 279.800 C 250.400 280.130,250.580 280.400,250.800 280.400 C 251.020 280.400,251.200 280.130,251.200 279.800 C 251.200 279.470,251.020 279.200,250.800 279.200 C 250.580 279.200,250.400 279.470,250.400 279.800 M147.200 281.400 C 147.200 281.730,147.380 282.000,147.600 282.000 C 147.820 282.000,148.000 281.730,148.000 281.400 C 148.000 281.070,147.820 280.800,147.600 280.800 C 147.380 280.800,147.200 281.070,147.200 281.400 M251.200 282.200 C 251.200 282.530,251.380 282.800,251.600 282.800 C 251.820 282.800,252.000 282.530,252.000 282.200 C 252.000 281.870,251.820 281.600,251.600 281.600 C 251.380 281.600,251.200 281.870,251.200 282.200 M145.600 285.400 C 145.600 285.767,145.793 286.002,146.030 285.923 C 146.267 285.845,146.460 285.609,146.460 285.400 C 146.460 285.191,146.267 284.955,146.030 284.877 C 145.793 284.798,145.600 285.033,145.600 285.400 M252.678 285.856 C 252.358 286.175,252.719 286.800,253.224 286.800 C 253.431 286.800,253.600 286.530,253.600 286.200 C 253.600 285.581,253.128 285.405,252.678 285.856 M144.000 289.433 C 144.000 289.782,144.214 289.995,144.475 289.908 C 145.217 289.661,145.340 288.800,144.633 288.800 C 144.285 288.800,144.000 289.085,144.000 289.433 M254.278 289.856 C 253.958 290.175,254.319 290.800,254.824 290.800 C 255.031 290.800,255.200 290.530,255.200 290.200 C 255.200 289.581,254.728 289.405,254.278 289.856 M142.656 292.678 C 142.205 293.128,142.381 293.600,143.000 293.600 C 143.330 293.600,143.600 293.431,143.600 293.224 C 143.600 292.719,142.975 292.358,142.656 292.678 M141.854 294.602 C 141.715 294.965,141.856 295.200,142.213 295.200 C 142.860 295.200,143.007 294.575,142.442 294.226 C 142.245 294.104,141.981 294.274,141.854 294.602 M256.656 295.078 C 256.205 295.528,256.381 296.000,257.000 296.000 C 257.330 296.000,257.600 295.831,257.600 295.624 C 257.600 295.119,256.975 294.758,256.656 295.078 M141.200 296.200 C 141.200 296.530,141.380 296.800,141.600 296.800 C 141.820 296.800,142.000 296.530,142.000 296.200 C 142.000 295.870,141.820 295.600,141.600 295.600 C 141.380 295.600,141.200 295.870,141.200 296.200 M257.200 297.000 C 257.200 297.330,257.464 297.600,257.787 297.600 C 258.145 297.600,258.285 297.365,258.145 297.000 C 258.018 296.670,257.754 296.400,257.557 296.400 C 257.361 296.400,257.200 296.670,257.200 297.000 M258.000 298.600 C 258.000 298.930,258.180 299.200,258.400 299.200 C 258.620 299.200,258.800 298.930,258.800 298.600 C 258.800 298.270,258.620 298.000,258.400 298.000 C 258.180 298.000,258.000 298.270,258.000 298.600 M134.000 311.000 C 134.000 311.330,134.180 311.600,134.400 311.600 C 134.620 311.600,134.800 311.330,134.800 311.000 C 134.800 310.670,134.620 310.400,134.400 310.400 C 134.180 310.400,134.000 310.670,134.000 311.000 M266.000 314.200 C 266.000 314.530,266.180 314.800,266.400 314.800 C 266.620 314.800,266.800 314.530,266.800 314.200 C 266.800 313.870,266.620 313.600,266.400 313.600 C 266.180 313.600,266.000 313.870,266.000 314.200 M266.800 315.800 C 266.800 316.130,266.980 316.400,267.200 316.400 C 267.420 316.400,267.600 316.130,267.600 315.800 C 267.600 315.470,267.420 315.200,267.200 315.200 C 266.980 315.200,266.800 315.470,266.800 315.800 M129.200 319.800 C 129.200 320.167,129.393 320.402,129.630 320.323 C 129.867 320.245,130.060 320.009,130.060 319.800 C 130.060 319.591,129.867 319.356,129.630 319.277 C 129.393 319.198,129.200 319.433,129.200 319.800 M128.400 321.200 C 128.400 321.420,128.670 321.600,129.000 321.600 C 129.330 321.600,129.600 321.420,129.600 321.200 C 129.600 320.980,129.330 320.800,129.000 320.800 C 128.670 320.800,128.400 320.980,128.400 321.200 M127.600 322.800 C 127.600 323.020,127.870 323.200,128.200 323.200 C 128.530 323.200,128.800 323.020,128.800 322.800 C 128.800 322.580,128.530 322.400,128.200 322.400 C 127.870 322.400,127.600 322.580,127.600 322.800 M296.800 323.600 C 296.800 323.820,297.070 324.000,297.400 324.000 C 297.730 324.000,298.000 323.820,298.000 323.600 C 298.000 323.380,297.730 323.200,297.400 323.200 C 297.070 323.200,296.800 323.380,296.800 323.600 M93.657 325.563 C 93.255 325.813,93.236 325.975,93.584 326.190 C 94.133 326.529,94.545 326.229,94.342 325.638 C 94.258 325.396,93.976 325.365,93.657 325.563 M307.200 330.600 C 307.200 330.930,307.464 331.200,307.787 331.200 C 308.145 331.200,308.285 330.965,308.145 330.600 C 308.018 330.270,307.754 330.000,307.557 330.000 C 307.361 330.000,307.200 330.270,307.200 330.600 M103.200 330.800 C 103.200 331.020,102.480 331.200,101.600 331.200 C 100.720 331.200,100.000 331.380,100.000 331.600 C 100.000 331.820,99.715 332.000,99.366 332.000 C 98.163 332.000,94.418 336.456,94.409 337.900 C 94.404 338.615,94.220 339.200,94.000 339.200 C 93.758 339.200,93.600 340.925,93.600 343.576 C 93.600 346.063,93.773 348.060,94.000 348.200 C 94.220 348.336,94.400 348.979,94.400 349.629 C 94.400 352.093,98.895 357.200,101.064 357.200 C 101.773 357.200,102.464 357.380,102.600 357.600 C 102.764 357.865,134.996 358.000,198.000 358.000 C 261.004 358.000,293.236 357.865,293.400 357.600 C 293.536 357.380,294.179 357.200,294.829 357.200 C 297.311 357.200,302.400 352.705,302.400 350.513 C 302.400 349.791,302.580 349.200,302.800 349.200 C 303.043 349.200,303.200 347.408,303.200 344.624 C 303.200 342.004,303.029 339.942,302.800 339.800 C 302.580 339.664,302.400 338.933,302.400 338.176 C 302.400 337.419,302.220 336.800,302.000 336.800 C 301.780 336.800,301.600 336.526,301.600 336.191 C 301.600 335.026,297.332 331.200,296.032 331.200 C 295.381 331.200,294.736 331.020,294.600 330.800 C 294.436 330.535,262.063 330.400,198.776 330.400 C 135.325 330.400,103.200 330.534,103.200 330.800 M86.400 336.200 C 86.400 336.530,86.580 336.800,86.800 336.800 C 87.020 336.800,87.200 336.530,87.200 336.200 C 87.200 335.870,87.020 335.600,86.800 335.600 C 86.580 335.600,86.400 335.870,86.400 336.200 M309.600 352.200 C 309.600 352.530,309.780 352.800,310.000 352.800 C 310.220 352.800,310.400 352.530,310.400 352.200 C 310.400 351.870,310.220 351.600,310.000 351.600 C 309.780 351.600,309.600 351.870,309.600 352.200 M93.200 362.400 C 93.200 362.620,93.470 362.800,93.800 362.800 C 94.130 362.800,94.400 362.620,94.400 362.400 C 94.400 362.180,94.130 362.000,93.800 362.000 C 93.470 362.000,93.200 362.180,93.200 362.400 M302.400 362.400 C 302.400 362.620,302.670 362.800,303.000 362.800 C 303.330 362.800,303.600 362.620,303.600 362.400 C 303.600 362.180,303.330 362.000,303.000 362.000 C 302.670 362.000,302.400 362.180,302.400 362.400 M98.800 364.800 C 98.800 365.020,99.070 365.200,99.400 365.200 C 99.730 365.200,100.000 365.020,100.000 364.800 C 100.000 364.580,99.730 364.400,99.400 364.400 C 99.070 364.400,98.800 364.580,98.800 364.800 " stroke="none" fill="#fcfcfc" fill-rule="evenodd"></path></g></svg>