<?xml version="1.0" standalone="no"?>
<!DOCTYPE svg PUBLIC "-//W3C//DTD SVG 20010904//EN"
 "http://www.w3.org/TR/2001/REC-SVG-20010904/DTD/svg10.dtd">
<svg version="1.0" xmlns="http://www.w3.org/2000/svg"
 width="512.000000pt" height="512.000000pt" viewBox="0 0 512.000000 512.000000"
 preserveAspectRatio="xMidYMid meet">

<g transform="translate(0.000000,512.000000) scale(0.100000,-0.100000)"
fill="#000000" stroke="none">
<path d="M2483 4763 c-42 -58 -83 -153 -92 -212 -9 -54 -5 -209 5 -220 2 -2
30 0 62 6 69 13 102 3 102 -29 0 -13 -4 -29 -9 -37 -5 -7 -66 -26 -137 -42
-71 -16 -159 -40 -197 -55 -76 -29 -186 -99 -264 -167 -46 -39 -61 -46 -110
-52 -101 -11 -104 -14 -102 -97 1 -40 -3 -84 -9 -98 -5 -14 -57 -97 -115 -185
-57 -88 -145 -231 -195 -317 l-91 -157 15 -43 c22 -63 65 -121 105 -140 44
-22 119 -30 184 -20 49 7 50 8 143 127 51 66 97 129 102 141 12 29 46 34 222
34 168 0 273 17 356 56 65 32 166 124 193 176 21 41 49 50 84 24 18 -13 18
-19 7 -77 -6 -35 -14 -89 -18 -119 -10 -86 -51 -217 -94 -300 -59 -111 -149
-225 -330 -415 -299 -314 -385 -421 -454 -566 -71 -148 -80 -194 -81 -414 l0
-190 765 4 c421 2 769 7 773 11 4 3 10 54 13 111 3 57 11 136 19 174 7 39 21
120 30 180 52 347 101 562 195 855 38 118 79 254 90 302 82 347 21 748 -153
1008 -76 114 -232 246 -412 349 -139 80 -150 68 -45 -50 39 -44 70 -88 70 -99
0 -35 -12 -50 -40 -50 -25 0 -61 37 -276 288 -136 158 -257 298 -269 310 l-22
24 -20 -29z m774 -571 c94 -79 201 -200 243 -276 84 -153 140 -378 140 -567 0
-119 -10 -162 -38 -157 -15 3 -17 19 -19 137 -3 259 -78 500 -204 658 -27 34
-84 92 -127 129 -83 71 -97 88 -88 110 9 24 33 16 93 -34z m-1210 -297 c77
-13 98 -70 33 -92 -51 -17 -175 -16 -210 2 -37 19 -41 58 -7 76 51 28 84 30
184 14z m899 -698 c6 -16 -60 -176 -136 -329 -105 -211 -178 -308 -459 -612
-91 -98 -190 -210 -219 -249 -109 -144 -156 -273 -168 -467 -7 -115 -17 -137
-49 -110 -18 15 -19 71 -5 190 31 250 108 376 455 740 232 243 359 434 470
705 53 129 63 145 86 145 11 0 22 -6 25 -13z"/>
<path d="M2276 1080 l-509 -5 -17 -70 c-38 -159 -91 -204 -275 -235 -38 -7
-80 -19 -93 -27 -24 -15 -54 -72 -45 -86 5 -9 2335 3 2403 12 45 6 45 6 43 46
-2 57 -19 65 -135 65 -123 0 -177 13 -218 53 -44 43 -76 128 -83 223 l-2 29
-280 0 c-154 0 -509 -2 -789 -5z m-345 -129 c-17 -55 -31 -81 -64 -114 -63
-61 -168 -151 -186 -158 -22 -9 -40 8 -34 31 5 18 82 90 151 140 33 24 82 109
82 142 0 10 9 27 21 39 19 19 23 20 36 6 14 -14 13 -23 -6 -86z"/>
</g>
</svg>
