<?xml version="1.0" encoding="UTF-8"?>
<!DOCTYPE svg PUBLIC "-//W3C//DTD SVG 1.1//EN" "http://www.w3.org/Graphics/SVG/1.1/DTD/svg11.dtd">
<svg xmlns="http://www.w3.org/2000/svg" version="1.1" width="512px" height="512px" style="shape-rendering:geometricPrecision; text-rendering:geometricPrecision; image-rendering:optimizeQuality; fill-rule:evenodd; clip-rule:evenodd" xmlns:xlink="http://www.w3.org/1999/xlink">
<g><path style="opacity:0.995" fill="#fbfbfb" d="M 388.5,401.5 C 373.529,402.434 358.529,402.768 343.5,402.5C 343.767,409.804 346.1,416.304 350.5,422C 351.448,422.483 352.448,422.649 353.5,422.5C 362.568,422.119 371.568,422.619 380.5,424C 387.414,428.328 390.08,434.494 388.5,442.5C 394.514,443.257 400.514,444.091 406.5,445C 416.728,450.266 419.228,458.099 414,468.5C 412.629,470.041 411.129,471.375 409.5,472.5C 409.44,471.957 409.107,471.624 408.5,471.5C 406.333,472.792 404,473.625 401.5,474C 381.329,474.168 361.329,474.668 341.5,475.5C 277.5,476.344 213.334,477.01 149,477.5C 133.134,477.609 117.3,477.109 101.5,476C 91.5911,470.605 89.0911,462.772 94,452.5C 95.9384,449.894 98.4384,448.061 101.5,447C 108.115,445.892 114.782,445.225 121.5,445C 122.385,436.209 126.718,429.876 134.5,426C 140.798,424.54 147.131,423.207 153.5,422C 160.511,418.832 164.178,413.332 164.5,405.5C 151.496,405.667 138.496,405.5 125.5,405C 121.995,404.881 118.995,403.714 116.5,401.5C 111.592,394.072 111.259,386.405 115.5,378.5C 117.649,376.254 120.316,374.754 123.5,374C 137.163,373.5 150.829,373.333 164.5,373.5C 161.658,348.208 165.825,324.208 177,301.5C 183.594,291.33 190.928,281.663 199,272.5C 214.033,257.135 228.7,241.468 243,225.5C 250.611,215.611 256.111,204.611 259.5,192.5C 259.333,191.833 259.167,191.167 259,190.5C 251.829,196.119 243.663,199.619 234.5,201C 221.509,201.937 208.509,202.77 195.5,203.5C 188.827,212.829 181.827,221.829 174.5,230.5C 174.44,229.957 174.107,229.624 173.5,229.5C 164.282,231.314 154.949,231.98 145.5,231.5C 139.143,230.733 133.977,227.733 130,222.5C 125.859,215.214 122.525,207.547 120,199.5C 118.546,193.406 120.879,189.739 127,188.5C 137.982,168.531 150.148,149.365 163.5,131C 158.958,113.197 165.958,104.53 184.5,105C 196.424,92.7017 210.758,84.535 227.5,80.5C 223.955,58.3391 229.289,38.6724 243.5,21.5C 248.118,17.3981 252.451,17.7314 256.5,22.5C 264.02,30.8525 271.354,39.3525 278.5,48C 303.703,57.2593 326.37,70.5926 346.5,88C 364.916,108.214 375.416,132.047 378,159.5C 380.127,179.388 378.794,199.055 374,218.5C 356.197,268.016 345.363,319.016 341.5,371.5C 355.837,371.333 370.171,371.5 384.5,372C 393.397,373.567 398.063,378.9 398.5,388C 397.734,393.2 395.401,397.533 391.5,401C 390.552,401.483 389.552,401.649 388.5,401.5 Z"/></g>
<g><path style="opacity:1" fill="#030202" d="M 249.5,32.5 C 267.635,52.8066 285.635,73.3066 303.5,94C 309.336,95.4938 311.502,93.3271 310,87.5C 305.62,81.9081 301.12,76.4081 296.5,71C 297.025,70.3076 297.692,69.8076 298.5,69.5C 352.264,95.6779 375.097,138.678 367,198.5C 362.916,218.738 357.249,238.404 350,257.5C 340.695,295.845 333.862,334.345 329.5,373C 278.268,374.464 227.102,374.63 176,373.5C 170.978,343.252 177.978,316.252 197,292.5C 213.202,274.12 229.868,256.12 247,238.5C 264.526,217.75 273.526,193.75 274,166.5C 271.757,164.718 269.257,164.218 266.5,165C 259.199,177.65 248.532,185.983 234.5,190C 219.539,191.23 204.539,191.897 189.5,192C 182.579,201.929 175.246,211.595 167.5,221C 149.047,226.444 137.38,219.944 132.5,201.5C 145.511,178.802 159.011,156.468 173,134.5C 173.333,129.167 173.667,123.833 174,118.5C 179.678,116.475 185.511,114.975 191.5,114C 208.56,97.3908 229.06,87.8908 253,85.5C 255.547,83.4314 256.047,80.9314 254.5,78C 249.162,77.6849 243.828,77.8516 238.5,78.5C 235.389,61.3983 239.055,46.065 249.5,32.5 Z"/></g>
<g><path style="opacity:1" fill="#e4e4e4" d="M 315.5,87.5 C 317.655,87.372 319.655,87.872 321.5,89C 346.366,107.554 360.199,132.388 363,163.5C 363.667,171.833 363.667,180.167 363,188.5C 362.693,191.876 360.86,193.21 357.5,192.5C 359.807,166.198 354.64,141.531 342,118.5C 335,108.833 326.667,100.5 317,93.5C 315.872,91.6547 315.372,89.6547 315.5,87.5 Z"/></g>
<g><path style="opacity:1" fill="#f8f8f8" d="M 194.5,120.5 C 199.091,121.638 203.757,122.471 208.5,123C 211.006,124.516 211.84,126.682 211,129.5C 202.295,133.002 193.461,133.336 184.5,130.5C 183.359,128.579 183.192,126.579 184,124.5C 187.321,122.385 190.821,121.051 194.5,120.5 Z"/></g>
<g><path style="opacity:1" fill="#eaeaea" d="M 289.5,190.5 C 293.138,189.737 294.638,191.07 294,194.5C 285.042,218.768 272.708,241.101 257,261.5C 244.367,275.801 231.367,289.801 218,303.5C 201.621,321.964 193.954,343.63 195,368.5C 193.506,369.747 192.006,369.747 190.5,368.5C 187.991,343.531 194.824,321.531 211,302.5C 227.37,285.132 243.37,267.466 259,249.5C 271.267,230.968 281.433,211.301 289.5,190.5 Z"/></g>
<g><path style="opacity:0.71" fill="#cacaca" d="M 174.5,230.5 C 164.797,232.662 155.131,232.995 145.5,231.5C 154.949,231.98 164.282,231.314 173.5,229.5C 174.107,229.624 174.44,229.957 174.5,230.5 Z"/></g>
<g><path style="opacity:0.71" fill="#d2d2d2" d="M 115.5,378.5 C 111.259,386.405 111.592,394.072 116.5,401.5C 112.669,398.493 111.002,394.493 111.5,389.5C 110.913,385.03 112.246,381.363 115.5,378.5 Z"/></g>
<g><path style="opacity:1" fill="#070607" d="M 225.5,402.5 C 261.502,402.333 297.502,402.5 333.5,403C 334.531,408.485 335.698,413.985 337,419.5C 338.889,425.436 342.722,429.603 348.5,432C 357.124,433.131 365.79,433.798 374.5,434C 378.66,437.124 379.326,440.791 376.5,445C 295.5,445.519 214.5,446.019 133.5,446.5C 133.047,442.574 134.38,439.408 137.5,437C 144.35,434.801 151.35,433.135 158.5,432C 165.974,429.86 170.807,425.026 173,417.5C 173.918,412.902 175.084,408.402 176.5,404C 193.005,403.831 209.338,403.331 225.5,402.5 Z"/></g>
<g><path style="opacity:1" fill="#eaeaea" d="M 191.5,406.5 C 193.022,407.191 194.022,408.358 194.5,410C 193.307,415.919 191.14,421.419 188,426.5C 181.551,431.648 175.384,437.148 169.5,443C 164.667,444.833 163.167,443.333 165,438.5C 170.376,433.456 176.042,428.789 182,424.5C 185.3,419.604 187.633,414.27 189,408.5C 189.995,407.934 190.828,407.267 191.5,406.5 Z"/></g>
<g><path style="opacity:0.804" fill="#d1d1d1" d="M 388.5,401.5 C 387.737,402.268 386.737,402.768 385.5,403C 371.821,403.167 358.154,403.667 344.5,404.5C 345.359,408.578 346.526,412.578 348,416.5C 349.36,419.023 351.193,421.023 353.5,422.5C 352.448,422.649 351.448,422.483 350.5,422C 346.1,416.304 343.767,409.804 343.5,402.5C 358.529,402.768 373.529,402.434 388.5,401.5 Z"/></g>
<g><path style="opacity:0.738" fill="#cccccc" d="M 409.5,472.5 C 407.363,473.787 405.03,474.621 402.5,475C 382.169,475.5 361.836,475.667 341.5,475.5C 361.329,474.668 381.329,474.168 401.5,474C 404,473.625 406.333,472.792 408.5,471.5C 409.107,471.624 409.44,471.957 409.5,472.5 Z"/></g>
</svg>
