<?xml version="1.0" standalone="no"?>
<!DOCTYPE svg PUBLIC "-//W3C//DTD SVG 20010904//EN"
 "http://www.w3.org/TR/2001/REC-SVG-20010904/DTD/svg10.dtd">
<svg version="1.0" xmlns="http://www.w3.org/2000/svg"
 width="512.000000pt" height="512.000000pt" viewBox="0 0 512.000000 512.000000"
 preserveAspectRatio="xMidYMid meet">

<g transform="translate(0.000000,512.000000) scale(0.100000,-0.100000)"
fill="#000000" stroke="none">
<path d="M1430 4487 c0 -7 7 -38 16 -68 56 -189 225 -369 460 -487 290 -146
710 -194 1065 -122 417 85 739 324 823 609 9 30 16 61 16 68 0 10 -39 13 -190
13 l-190 0 0 -195 0 -195 -310 0 -310 0 0 195 0 195 -205 0 -205 0 0 -195 0
-195 -300 0 -300 0 0 195 0 195 -185 0 c-146 0 -185 -3 -185 -13z m206 -157
c86 -200 185 -287 418 -369 98 -34 103 -37 95 -59 -10 -27 -7 -27 -139 22
-240 89 -347 195 -441 434 -7 19 -5 24 14 31 12 5 23 8 23 7 1 0 14 -30 30
-66z"/>
<path d="M2048 3671 c-6 -97 -23 -126 -88 -154 -35 -14 -50 -28 -55 -45 -3
-13 -5 -26 -3 -27 2 -2 62 0 133 5 162 11 969 12 1130 0 66 -4 122 -6 123 -5
2 2 1 17 -3 34 -4 20 -13 31 -24 31 -39 0 -82 23 -97 52 -9 17 -18 63 -21 103
l-6 72 -73 -19 c-134 -34 -263 -48 -444 -48 -191 0 -318 15 -468 55 -52 14
-95 25 -97 25 -1 0 -4 -36 -7 -79z"/>
<path d="M1896 3188 c-2 -7 -9 -114 -16 -238 -25 -493 -66 -794 -169 -1245
l-18 -80 869 0 c767 0 867 2 863 15 -2 8 -20 112 -39 230 -66 400 -96 750 -96
1118 l0 212 -42 -7 c-56 -10 -1215 -10 -1291 0 -43 5 -58 4 -61 -5z m184 -170
c0 -200 -27 -566 -56 -753 -13 -87 -86 -449 -100 -497 -5 -15 -54 -27 -54 -14
0 3 13 62 30 133 76 331 105 550 122 931 l12 262 23 0 c22 0 23 -4 23 -62z"/>
<path d="M1508 1311 c-142 -149 -169 -288 -88 -459 l29 -62 1070 0 1070 0 21
29 c11 17 35 60 53 98 28 60 32 78 32 153 0 73 -4 93 -28 140 -15 30 -51 81
-80 113 l-53 59 -978 1 -978 2 -70 -74z m221 -3 c18 -11 15 -16 -35 -78 -91
-113 -112 -189 -91 -327 8 -52 7 -53 -17 -53 -22 0 -26 6 -33 48 -15 88 -7
175 21 237 22 49 119 185 132 185 2 0 13 -5 23 -12z"/>
<path d="M1246 674 c-12 -11 -16 -36 -16 -94 0 -58 4 -83 16 -94 14 -14 145
-16 1294 -16 1149 0 1280 2 1294 16 23 22 23 166 0 188 -14 14 -145 16 -1294
16 -1149 0 -1280 -2 -1294 -16z"/>
</g>
</svg>
