<?xml version="1.0" standalone="no"?>
<!DOCTYPE svg PUBLIC "-//W3C//DTD SVG 20010904//EN"
 "http://www.w3.org/TR/2001/REC-SVG-20010904/DTD/svg10.dtd">
<svg version="1.0" xmlns="http://www.w3.org/2000/svg"
 width="512.000000pt" height="512.000000pt" viewBox="0 0 512.000000 512.000000"
 preserveAspectRatio="xMidYMid meet">

<g transform="translate(0.000000,512.000000) scale(0.100000,-0.100000)"
fill="#000000" stroke="none">
<path d="M1320 4548 c1 -276 220 -559 552 -716 l78 -37 0 -80 c0 -44 -4 -85
-8 -90 -4 -6 -26 -19 -50 -29 -46 -21 -73 -56 -92 -123 -13 -41 -13 -41 -77
-53 -85 -16 -123 -47 -123 -100 0 -54 38 -84 129 -100 l69 -13 -4 -56 c-2 -31
-11 -166 -20 -301 -19 -296 -45 -537 -79 -726 -33 -181 -101 -493 -108 -500
-3 -4 -64 -10 -134 -15 -208 -14 -248 -25 -268 -73 -17 -39 -2 -82 35 -101 23
-12 165 -35 218 -35 8 0 -7 -23 -32 -51 -59 -65 -114 -177 -126 -256 -13 -77
0 -171 34 -247 l24 -54 -57 -4 c-68 -5 -111 -31 -136 -84 -26 -55 -18 -227 12
-270 49 -68 -47 -64 1383 -64 1430 0 1334 -4 1383 64 19 26 23 47 25 133 6
163 -33 215 -164 221 l-71 4 33 66 c85 169 66 354 -51 492 l-38 45 113 12
c157 16 190 33 190 97 0 38 -10 55 -42 72 -26 13 -70 19 -325 40 l-62 5 -10
52 c-22 106 -61 357 -80 507 -33 256 -42 390 -48 715 l-6 311 77 12 c97 17
136 46 136 102 0 55 -38 84 -130 101 l-70 12 -11 41 c-17 69 -19 74 -40 100
-13 17 -34 28 -59 32 -44 7 -50 19 -50 110 l0 60 58 23 c193 78 385 223 488
367 83 116 133 260 134 382 l0 52 -295 0 -295 0 0 -195 0 -195 -210 0 -210 0
0 195 0 195 -305 0 -305 0 0 -195 0 -195 -200 0 -200 0 0 195 0 195 -290 0
-290 0 0 -52z m480 -243 l0 -195 300 0 300 0 0 195 0 195 205 0 205 0 0 -195
0 -195 310 0 310 0 0 195 0 195 194 0 194 0 -13 -57 c-29 -122 -97 -235 -200
-331 -486 -455 -1484 -455 -1970 0 -103 96 -171 209 -200 331 l-13 57 189 0
189 0 0 -195z m587 -620 c210 -28 450 -15 658 34 47 12 88 21 89 21 2 0 6 -33
9 -74 3 -40 12 -87 21 -104 15 -29 58 -52 97 -52 11 0 20 -11 24 -31 4 -17 5
-32 3 -34 -1 -1 -57 1 -123 5 -161 12 -968 11 -1130 0 -71 -5 -131 -7 -133 -5
-2 1 0 14 3 27 5 17 20 31 55 45 66 28 83 57 88 157 l4 81 111 -27 c60 -16
161 -35 224 -43z m223 -500 c327 0 614 3 638 8 l42 7 0 -212 c0 -368 30 -718
96 -1118 19 -118 37 -222 39 -230 4 -13 -96 -15 -863 -15 l-869 0 18 80 c103
451 144 752 169 1245 7 124 14 231 16 238 3 9 18 10 61 5 32 -5 326 -8 653 -8z
m977 -1862 c29 -32 65 -83 80 -113 24 -47 28 -67 28 -140 0 -75 -4 -93 -32
-153 -18 -38 -42 -81 -53 -98 l-21 -29 -1070 0 -1070 0 -29 62 c-81 171 -54
310 88 459 l70 74 978 -2 978 -1 53 -59z m247 -649 c23 -22 23 -166 0 -188
-14 -14 -145 -16 -1294 -16 -1149 0 -1280 2 -1294 16 -23 22 -23 166 0 188 14
14 145 16 1294 16 1149 0 1280 -2 1294 -16z"/>
<path d="M1583 4389 c-19 -7 -21 -12 -14 -31 50 -127 115 -232 179 -289 60
-53 156 -106 262 -145 132 -49 129 -49 139 -22 8 22 3 25 -95 59 -233 82 -332
169 -418 369 -16 36 -29 66 -30 66 0 1 -11 -2 -23 -7z"/>
<path d="M2022 2818 c-17 -381 -46 -600 -122 -931 -17 -71 -30 -130 -30 -133
0 -13 49 -1 54 14 14 48 87 410 100 497 29 187 56 553 56 753 0 58 -1 62 -23
62 l-23 0 -12 -262z"/>
<path d="M1651 1256 c-95 -119 -122 -218 -98 -358 7 -42 11 -48 33 -48 24 0
25 1 17 53 -21 138 0 214 91 327 50 62 53 67 35 78 -10 7 -21 12 -23 12 -2 0
-27 -29 -55 -64z"/>
</g>
</svg>
