<?xml version="1.0" encoding="UTF-8"?>
<!DOCTYPE svg PUBLIC "-//W3C//DTD SVG 1.1//EN" "http://www.w3.org/Graphics/SVG/1.1/DTD/svg11.dtd">
<svg xmlns="http://www.w3.org/2000/svg" version="1.1" width="512px" height="512px" style="shape-rendering:geometricPrecision; text-rendering:geometricPrecision; image-rendering:optimizeQuality; fill-rule:evenodd; clip-rule:evenodd" xmlns:xlink="http://www.w3.org/1999/xlink">
<g><path style="opacity:0.939" fill="#040404" d="M 331.5,387.5 C 343.066,398.429 354.9,408.429 367,417.5C 368.246,421.73 367.08,425.064 363.5,427.5C 365.687,430.179 367.187,433.179 368,436.5C 368.95,443.629 368.45,450.629 366.5,457.5C 364.803,458.364 363.637,459.697 363,461.5C 360.707,463.372 358.207,464.872 355.5,466C 288.833,466.667 222.167,466.667 155.5,466C 143.225,459.895 139.059,450.061 143,436.5C 143.988,432.268 146.155,428.768 149.5,426C 145.147,424.283 143.48,421.283 144.5,417C 158.596,406.738 171.596,395.238 183.5,382.5C 184.306,373.548 184.806,364.548 185,355.5C 186.5,354.333 188,353.167 189.5,352C 196.333,351.337 201.833,348.503 206,343.5C 209.757,328.793 212.923,313.96 215.5,299C 215.043,298.586 214.709,298.086 214.5,297.5C 217.83,276.403 219.497,255.403 219.5,234.5C 210.698,233.974 202.031,232.474 193.5,230C 191.024,228.691 189.024,226.858 187.5,224.5C 188.693,222.473 190.36,220.973 192.5,220C 197.435,218.362 202.435,217.029 207.5,216C 208.009,213.43 209.009,211.097 210.5,209C 213.793,208.174 217.126,207.674 220.5,207.5C 220.5,201.167 220.5,194.833 220.5,188.5C 217.523,187.929 214.69,186.929 212,185.5C 211.251,184.365 211.417,183.365 212.5,182.5C 213.833,181.5 215.167,180.5 216.5,179.5C 201.76,165.293 197.926,148.627 205,129.5C 214.182,110.967 225.016,93.4668 237.5,77C 234.037,75.0353 231.037,72.5353 228.5,69.5C 226.706,64.2508 227.372,59.4175 230.5,55C 243.415,46.1437 257.415,44.1437 272.5,49C 289.841,56.9831 290.841,66.3164 275.5,77C 280.078,82.8233 284.412,88.8233 288.5,95C 280.027,103.473 271.527,111.973 263,120.5C 262.202,122.259 262.369,123.926 263.5,125.5C 272.5,116.833 281.5,108.167 290.5,99.5C 298.428,109.949 304.928,121.282 310,133.5C 316.037,151.825 311.537,167.325 296.5,180C 297.833,181.333 299.167,182.667 300.5,184C 297.811,186.854 294.477,188.687 290.5,189.5C 290.508,194.721 290.675,200.054 291,205.5C 294.872,207.411 299.039,208.744 303.5,209.5C 304.167,211.5 304.833,213.5 305.5,215.5C 311.98,217.204 318.314,219.371 324.5,222C 325.574,222.739 326.241,223.739 326.5,225C 324.968,227.117 322.968,228.784 320.5,230C 310.907,232.478 301.24,234.311 291.5,235.5C 291.167,238 290.833,240.5 290.5,243C 291.106,266.997 293.272,290.83 297,314.5C 299.038,325.035 301.705,335.369 305,345.5C 309.438,349.128 314.605,351.295 320.5,352C 321.931,352.465 323.097,353.299 324,354.5C 324.333,362.833 324.667,371.167 325,379.5C 327.031,382.355 329.197,385.022 331.5,387.5 Z"/></g>
<g><path style="opacity:0.995" fill="#f9f9f9" d="M 252.5,55.5 C 258.272,55.5898 263.938,56.4232 269.5,58C 272.576,58.911 274.909,60.7443 276.5,63.5C 274.024,66.9097 270.69,69.0763 266.5,70C 258.743,72.0732 251.076,71.7398 243.5,69C 237.386,67.3924 236.053,64.3924 239.5,60C 243.715,57.7632 248.048,56.2632 252.5,55.5 Z"/></g>
<g><path style="opacity:0.995" fill="#fcfcfc" d="M 248.5,78.5 C 253.844,78.334 259.177,78.5006 264.5,79C 268.743,83.4075 272.409,88.2408 275.5,93.5C 268.519,101.649 261.352,109.649 254,117.5C 250.554,123.86 251.72,129.36 257.5,134C 261.5,134.667 265.5,134.667 269.5,134C 275.987,127.679 282.321,121.179 288.5,114.5C 296.377,124.292 301.044,135.458 302.5,148C 302.436,154.95 300.27,161.117 296,166.5C 291.833,170.667 287.667,174.833 283.5,179C 265.497,178.35 247.497,178.35 229.5,179C 226.035,174.533 222.202,170.367 218,166.5C 211.834,159.294 209.834,150.96 212,141.5C 213.553,134.836 215.887,128.503 219,122.5C 228.241,107.428 238.074,92.7609 248.5,78.5 Z"/></g>
<g><path style="opacity:0.98" fill="#0b0b0b" d="M 251.5,89.5 C 254.076,89.7218 254.91,91.0551 254,93.5C 243.491,106.514 234.491,120.514 227,135.5C 222.561,147.98 225.228,158.647 235,167.5C 235.49,168.793 235.657,170.127 235.5,171.5C 232.386,170.909 229.886,169.242 228,166.5C 220.94,158.815 218.607,149.815 221,139.5C 228.519,121.163 238.685,104.497 251.5,89.5 Z"/></g>
<g><path style="opacity:0.988" fill="#f9f9f9" d="M 231.5,189.5 C 247.503,189.333 263.503,189.5 279.5,190C 280.641,195.75 280.807,201.584 280,207.5C 263.907,208.658 247.741,208.824 231.5,208C 230.186,201.834 230.186,195.667 231.5,189.5 Z"/></g>
<g><path style="opacity:0.996" fill="#fdfdfd" d="M 230.5,234.5 C 247.077,234.175 263.577,234.508 280,235.5C 280.365,273.179 285.198,310.179 294.5,346.5C 294.167,347.167 293.833,347.833 293.5,348.5C 280.741,347.004 267.907,346.337 255,346.5C 242.229,346.33 229.562,346.997 217,348.5C 215.482,346.386 215.149,344.053 216,341.5C 219.799,330.182 222.466,318.515 224,306.5C 226.833,282.504 228.999,258.504 230.5,234.5 Z"/></g>
<g><path style="opacity:0.99" fill="#fefefe" d="M 242.5,354.5 C 266.368,354.122 290.034,355.955 313.5,360C 316.133,367.074 314.133,372.74 307.5,377C 274.229,382.51 240.895,382.843 207.5,378C 197.737,376.577 193.903,371.077 196,361.5C 196.833,360.667 197.667,359.833 198.5,359C 213.265,356.932 227.932,355.432 242.5,354.5 Z"/></g>
<g><path style="opacity:0.987" fill="#fdfdfd" d="M 194.5,384.5 C 226.995,389.696 259.662,390.863 292.5,388C 299.557,387.159 306.557,385.992 313.5,384.5C 315.405,385.065 317.071,386.065 318.5,387.5C 328.746,398.271 339.746,408.105 351.5,417C 354.362,420.287 353.695,422.62 349.5,424C 287.5,424.667 225.5,424.667 163.5,424C 160.76,422.95 159.26,421.117 159,418.5C 164.513,412.34 170.68,407.006 177.5,402.5C 183.498,396.834 189.165,390.834 194.5,384.5 Z"/></g>
<g><path style="opacity:0.004" fill="#000000" d="M 331.5,386.5 C 332.833,387.167 332.833,387.167 331.5,386.5 Z"/></g>
<g><path style="opacity:0.988" fill="#0c0c0c" d="M 200.5,392.5 C 201.5,392.5 202.5,392.5 203.5,392.5C 201.62,400.732 197.287,407.566 190.5,413C 185.678,415.672 181.011,418.505 176.5,421.5C 172.946,420.95 172.613,419.617 175.5,417.5C 180.85,414.492 185.85,410.992 190.5,407C 194.213,402.399 197.547,397.565 200.5,392.5 Z"/></g>
<g><path style="opacity:0.975" fill="#fdfdfd" d="M 158.5,432.5 C 165.228,435.699 171.895,439.199 178.5,443C 183.13,444.599 187.797,446.099 192.5,447.5C 196.995,447.52 201.662,447.354 206.5,447C 219.897,443.534 233.23,439.867 246.5,436C 254.215,435.238 261.881,435.571 269.5,437C 284.173,441.004 299.007,444.171 314,446.5C 321.455,446.293 328.622,444.793 335.5,442C 341.243,439.045 347.077,436.212 353,433.5C 354.711,433.439 356.044,434.106 357,435.5C 359.263,442.005 358.929,448.338 356,454.5C 354.933,455.191 353.766,455.691 352.5,456C 287.833,456.667 223.167,456.667 158.5,456C 153.947,453.905 151.947,450.238 152.5,445C 151.969,439.338 153.969,435.171 158.5,432.5 Z"/></g>
<g><path style="opacity:0.966" fill="#fdfdfd" d="M 182.5,432.5 C 195.326,432.021 207.993,432.521 220.5,434C 208.393,439.725 196.06,440.391 183.5,436C 181.627,435.047 181.294,433.88 182.5,432.5 Z"/></g>
<g><path style="opacity:0.901" fill="#fdfdfd" d="M 296.5,432.5 C 307.996,432.023 319.329,432.523 330.5,434C 325.561,436.733 320.228,437.9 314.5,437.5C 308.404,437.381 302.404,436.548 296.5,435C 295.402,434.23 295.402,433.397 296.5,432.5 Z"/></g>
</svg>
