<svg id="svg" version="1.1" xmlns="http://www.w3.org/2000/svg" xmlns:xlink="http://www.w3.org/1999/xlink" width="400" height="400" viewBox="0, 0, 400,400"><g id="svgg"><path id="path0" d="M200.000 81.200 C 200.000 81.420,199.021 81.600,197.824 81.600 C 196.627 81.600,195.536 81.780,195.400 82.000 C 195.264 82.220,194.364 82.400,193.400 82.400 C 192.436 82.400,191.536 82.580,191.400 82.800 C 191.264 83.020,190.801 83.200,190.371 83.200 C 189.941 83.200,189.277 83.369,188.895 83.576 C 188.513 83.783,186.662 84.677,184.782 85.563 C 182.903 86.448,180.936 87.629,180.413 88.187 C 179.889 88.744,179.316 89.200,179.140 89.200 C 178.674 89.200,171.200 96.647,171.200 97.111 C 171.200 97.326,170.928 97.728,170.595 98.004 C 170.262 98.280,169.443 99.697,168.775 101.153 C 168.106 102.609,167.388 104.113,167.180 104.495 C 166.971 104.877,166.800 105.541,166.800 105.971 C 166.800 106.401,166.620 106.864,166.400 107.000 C 166.180 107.136,166.000 107.676,166.000 108.200 C 166.000 108.724,165.820 109.264,165.600 109.400 C 165.380 109.536,165.200 110.616,165.200 111.800 C 165.200 112.984,165.020 114.064,164.800 114.200 C 164.580 114.336,164.400 115.686,164.400 117.200 C 164.400 118.714,164.580 120.064,164.800 120.200 C 165.020 120.336,165.200 121.416,165.200 122.600 C 165.200 123.784,165.380 124.864,165.600 125.000 C 165.820 125.136,166.000 125.676,166.000 126.200 C 166.000 126.724,166.180 127.264,166.400 127.400 C 166.620 127.536,166.800 127.999,166.800 128.429 C 166.800 128.859,166.971 129.523,167.180 129.905 C 167.388 130.287,168.106 131.791,168.775 133.247 C 169.443 134.703,170.262 136.120,170.595 136.396 C 170.928 136.672,171.200 137.058,171.200 137.254 C 171.200 137.870,178.760 145.200,179.395 145.200 C 179.728 145.200,180.000 145.380,180.000 145.600 C 180.000 145.820,180.248 146.000,180.551 146.000 C 180.854 146.000,181.334 146.279,181.616 146.620 C 181.899 146.961,182.956 147.599,183.965 148.038 C 184.974 148.478,186.492 149.189,187.338 149.619 C 188.184 150.048,189.208 150.400,189.614 150.400 C 190.020 150.400,190.464 150.580,190.600 150.800 C 190.736 151.020,191.276 151.200,191.800 151.200 C 192.324 151.200,192.864 151.380,193.000 151.600 C 193.136 151.820,193.856 152.000,194.600 152.000 C 195.344 152.000,196.064 152.180,196.200 152.400 C 196.336 152.620,197.247 152.800,198.224 152.800 C 199.201 152.800,200.000 152.980,200.000 153.200 C 200.000 153.438,201.525 153.600,203.776 153.600 C 205.863 153.600,207.663 153.421,207.800 153.200 C 207.936 152.980,208.836 152.800,209.800 152.800 C 210.764 152.800,211.664 152.620,211.800 152.400 C 211.936 152.180,212.476 152.000,213.000 152.000 C 213.524 152.000,214.064 151.820,214.200 151.600 C 214.336 151.380,214.979 151.200,215.629 151.200 C 216.279 151.200,217.123 151.044,217.505 150.854 C 219.883 149.670,222.892 148.400,223.321 148.400 C 223.597 148.400,224.083 148.040,224.400 147.600 C 224.717 147.160,225.257 146.800,225.600 146.800 C 225.943 146.800,226.483 146.440,226.800 146.000 C 227.117 145.560,227.622 145.200,227.921 145.200 C 228.552 145.200,235.581 138.018,235.592 137.362 C 235.597 137.121,235.925 136.630,236.322 136.271 C 236.719 135.911,237.293 134.983,237.597 134.209 C 237.901 133.434,238.296 132.800,238.475 132.800 C 238.654 132.800,238.800 132.440,238.800 132.000 C 238.800 131.560,238.980 131.200,239.200 131.200 C 239.420 131.200,239.600 130.840,239.600 130.400 C 239.600 129.960,239.780 129.600,240.000 129.600 C 240.220 129.600,240.400 129.060,240.400 128.400 C 240.400 127.740,240.580 127.200,240.800 127.200 C 241.020 127.200,241.200 126.660,241.200 126.000 C 241.200 125.340,241.380 124.800,241.600 124.800 C 241.820 124.800,242.000 123.821,242.000 122.624 C 242.000 121.427,242.180 120.336,242.400 120.200 C 242.620 120.064,242.800 118.714,242.800 117.200 C 242.800 115.686,242.620 114.336,242.400 114.200 C 242.180 114.064,242.000 112.973,242.000 111.776 C 242.000 110.579,241.820 109.600,241.600 109.600 C 241.380 109.600,241.200 109.060,241.200 108.400 C 241.200 107.740,241.020 107.200,240.800 107.200 C 240.580 107.200,240.400 106.660,240.400 106.000 C 240.400 105.340,240.220 104.800,240.000 104.800 C 239.780 104.800,239.600 104.440,239.600 104.000 C 239.600 103.560,239.420 103.200,239.200 103.200 C 238.980 103.200,238.800 102.840,238.800 102.400 C 238.800 101.960,238.620 101.600,238.400 101.600 C 238.180 101.600,238.000 101.240,238.000 100.800 C 238.000 100.360,237.820 100.000,237.600 100.000 C 237.380 100.000,237.200 99.758,237.200 99.462 C 237.200 99.166,236.840 98.598,236.400 98.200 C 235.960 97.802,235.599 97.279,235.598 97.038 C 235.595 96.429,228.587 89.200,227.999 89.200 C 227.736 89.200,227.017 88.660,226.400 88.000 C 225.783 87.340,224.991 86.800,224.640 86.800 C 224.288 86.800,224.000 86.620,224.000 86.400 C 224.000 86.180,223.640 86.000,223.200 86.000 C 222.760 86.000,222.400 85.820,222.400 85.600 C 222.400 85.380,222.040 85.200,221.600 85.200 C 221.160 85.200,220.800 85.036,220.800 84.835 C 220.800 84.634,220.081 84.349,219.202 84.200 C 218.323 84.052,217.503 83.766,217.378 83.565 C 217.254 83.364,216.724 83.200,216.200 83.200 C 215.676 83.200,215.136 83.020,215.000 82.800 C 214.864 82.580,214.144 82.400,213.400 82.400 C 212.656 82.400,211.936 82.220,211.800 82.000 C 211.664 81.780,210.584 81.600,209.400 81.600 C 208.216 81.600,207.136 81.420,207.000 81.200 C 206.864 80.980,205.233 80.800,203.376 80.800 C 201.392 80.800,200.000 80.965,200.000 81.200 M172.800 154.400 C 172.800 154.620,172.026 154.800,171.080 154.800 C 169.245 154.800,168.330 155.351,168.674 156.249 C 168.814 156.613,169.549 156.800,170.843 156.800 C 171.919 156.800,172.800 156.980,172.800 157.200 C 172.800 157.420,173.779 157.600,174.976 157.600 C 176.173 157.600,177.264 157.780,177.400 158.000 C 177.536 158.220,178.976 158.400,180.600 158.400 C 182.224 158.400,183.664 158.580,183.800 158.800 C 183.937 159.022,185.508 159.176,187.324 159.146 C 189.126 159.116,190.173 159.010,189.651 158.911 C 189.129 158.812,188.089 158.387,187.339 157.966 C 186.589 157.545,185.736 157.200,185.443 157.200 C 185.150 157.200,183.511 156.480,181.800 155.600 C 178.666 153.988,172.800 153.206,172.800 154.400 M227.600 154.400 C 227.600 154.620,227.240 154.800,226.800 154.800 C 226.360 154.800,226.000 154.980,226.000 155.200 C 226.000 155.420,225.640 155.600,225.200 155.600 C 224.760 155.600,224.400 155.780,224.400 156.000 C 224.400 156.220,223.860 156.400,223.200 156.400 C 222.540 156.400,222.000 156.580,222.000 156.800 C 222.000 157.020,221.640 157.200,221.200 157.200 C 220.760 157.200,220.400 157.380,220.400 157.600 C 220.400 157.820,220.040 158.000,219.600 158.000 C 219.160 158.000,218.800 158.169,218.800 158.376 C 218.800 158.583,218.125 158.822,217.300 158.909 L 215.800 159.066 217.476 159.133 C 218.398 159.170,219.264 159.020,219.400 158.800 C 219.539 158.575,221.471 158.400,223.824 158.400 C 226.341 158.400,228.000 158.241,228.000 158.000 C 228.000 157.780,228.979 157.600,230.176 157.600 C 231.373 157.600,232.464 157.420,232.600 157.200 C 232.736 156.980,233.625 156.800,234.575 156.800 C 236.471 156.800,237.502 156.062,236.710 155.270 C 236.452 155.012,235.477 154.800,234.544 154.800 C 233.611 154.800,232.736 154.620,232.600 154.400 C 232.464 154.180,231.283 154.000,229.976 154.000 C 228.659 154.000,227.600 154.178,227.600 154.400 M192.100 167.065 C 191.825 167.176,191.600 167.792,191.600 168.433 C 191.600 169.075,191.420 169.600,191.200 169.600 C 190.959 169.600,190.800 171.259,190.800 173.776 C 190.800 176.129,190.625 178.061,190.400 178.200 C 190.180 178.336,190.000 179.956,190.000 181.800 C 190.000 183.644,189.820 185.264,189.600 185.400 C 189.380 185.536,189.200 186.987,189.200 188.624 C 189.200 190.341,189.031 191.600,188.800 191.600 C 188.575 191.600,188.400 192.725,188.400 194.176 C 188.400 195.593,188.220 196.864,188.000 197.000 C 187.780 197.136,187.600 198.216,187.600 199.400 C 187.600 200.584,187.420 201.664,187.200 201.800 C 186.980 201.936,186.800 202.836,186.800 203.800 C 186.800 204.764,186.620 205.664,186.400 205.800 C 186.180 205.936,186.000 206.847,186.000 207.824 C 186.000 208.801,185.820 209.600,185.600 209.600 C 185.380 209.600,185.200 210.320,185.200 211.200 C 185.200 212.080,185.038 212.800,184.841 212.800 C 184.643 212.800,184.355 214.061,184.200 215.602 C 184.045 217.142,183.757 218.503,183.559 218.625 C 183.362 218.747,183.200 219.276,183.200 219.800 C 183.200 220.324,183.020 220.864,182.800 221.000 C 182.580 221.136,182.400 221.676,182.400 222.200 C 182.400 222.724,182.220 223.264,182.000 223.400 C 181.780 223.536,181.600 224.076,181.600 224.600 C 181.600 225.124,181.420 225.664,181.200 225.800 C 180.980 225.936,180.800 226.476,180.800 227.000 C 180.800 227.524,180.620 228.064,180.400 228.200 C 180.180 228.336,180.000 228.876,180.000 229.400 C 180.000 229.924,179.820 230.464,179.600 230.600 C 179.380 230.736,179.200 231.276,179.200 231.800 C 179.200 232.324,179.020 232.864,178.800 233.000 C 178.580 233.136,178.400 233.687,178.400 234.224 C 178.400 234.761,178.220 235.200,178.000 235.200 C 177.780 235.200,177.600 235.740,177.600 236.400 C 177.600 237.060,177.420 237.600,177.200 237.600 C 176.980 237.600,176.800 237.960,176.800 238.400 C 176.800 238.840,176.620 239.200,176.400 239.200 C 176.180 239.200,176.000 239.740,176.000 240.400 C 176.000 241.060,175.820 241.600,175.600 241.600 C 175.380 241.600,175.200 241.960,175.200 242.400 C 175.200 242.840,175.020 243.200,174.800 243.200 C 174.580 243.200,174.400 243.555,174.400 243.988 C 174.400 244.421,174.060 245.381,173.645 246.120 C 172.907 247.433,172.907 247.475,173.640 247.932 C 174.938 248.743,229.755 248.588,230.571 247.771 C 231.269 247.073,231.425 245.600,230.800 245.600 C 230.580 245.600,230.400 245.240,230.400 244.800 C 230.400 244.360,230.220 244.000,230.000 244.000 C 229.780 244.000,229.600 243.640,229.600 243.200 C 229.600 242.760,229.420 242.400,229.200 242.400 C 228.980 242.400,228.800 241.860,228.800 241.200 C 228.800 240.540,228.620 240.000,228.400 240.000 C 228.180 240.000,228.000 239.460,228.000 238.800 C 228.000 238.140,227.820 237.600,227.600 237.600 C 227.380 237.600,227.200 237.240,227.200 236.800 C 227.200 236.360,227.020 236.000,226.800 236.000 C 226.580 236.000,226.400 235.561,226.400 235.024 C 226.400 234.487,226.220 233.936,226.000 233.800 C 225.780 233.664,225.600 233.209,225.600 232.789 C 225.600 232.368,225.240 231.383,224.800 230.600 C 224.360 229.817,224.000 228.832,224.000 228.411 C 224.000 227.991,223.820 227.536,223.600 227.400 C 223.380 227.264,223.200 226.724,223.200 226.200 C 223.200 225.676,223.020 225.136,222.800 225.000 C 222.580 224.864,222.400 224.313,222.400 223.776 C 222.400 223.239,222.220 222.800,222.000 222.800 C 221.780 222.800,221.600 221.900,221.600 220.800 C 221.600 219.700,221.420 218.800,221.200 218.800 C 220.980 218.800,220.800 218.440,220.800 218.000 C 220.800 217.560,220.620 217.200,220.400 217.200 C 220.180 217.200,220.000 216.581,220.000 215.824 C 220.000 215.067,219.820 214.336,219.600 214.200 C 219.380 214.064,219.200 213.344,219.200 212.600 C 219.200 211.856,219.020 211.136,218.800 211.000 C 218.580 210.864,218.400 209.964,218.400 209.000 C 218.400 208.036,218.220 207.136,218.000 207.000 C 217.780 206.864,217.600 205.964,217.600 205.000 C 217.600 204.036,217.420 203.136,217.200 203.000 C 216.980 202.864,216.800 201.964,216.800 201.000 C 216.800 200.036,216.638 199.147,216.440 199.025 C 216.243 198.903,215.951 196.549,215.792 193.795 C 215.633 191.041,215.345 188.690,215.152 188.570 C 214.958 188.451,214.800 186.844,214.800 185.000 C 214.800 183.156,214.620 181.536,214.400 181.400 C 214.179 181.263,214.000 179.463,214.000 177.376 C 214.000 175.125,213.838 173.600,213.600 173.600 C 213.370 173.600,213.200 172.360,213.200 170.680 C 213.200 168.942,213.006 167.566,212.720 167.280 C 212.240 166.800,193.248 166.602,192.100 167.065 M187.600 255.200 C 187.600 255.456,183.875 255.600,177.224 255.600 C 170.737 255.600,166.755 255.750,166.600 256.000 C 166.455 256.235,164.129 256.400,160.976 256.400 C 157.659 256.400,155.600 256.553,155.600 256.800 C 155.600 257.035,154.208 257.200,152.224 257.200 C 150.367 257.200,148.736 257.380,148.600 257.600 C 148.464 257.820,147.769 258.000,147.056 258.000 C 146.343 258.000,145.548 258.212,145.290 258.470 C 144.498 259.262,145.529 260.000,147.425 260.000 C 148.375 260.000,149.264 260.180,149.400 260.400 C 149.536 260.620,151.167 260.800,153.024 260.800 C 155.008 260.800,156.400 260.965,156.400 261.200 C 156.400 261.445,158.325 261.600,161.376 261.600 C 164.263 261.600,166.457 261.768,166.600 262.000 C 166.755 262.251,170.863 262.400,177.600 262.400 C 184.337 262.400,188.445 262.549,188.600 262.800 C 188.757 263.054,193.930 263.200,202.800 263.200 C 211.670 263.200,216.843 263.054,217.000 262.800 C 217.155 262.550,221.137 262.400,227.624 262.400 C 234.275 262.400,238.000 262.256,238.000 262.000 C 238.000 261.753,240.059 261.600,243.376 261.600 C 246.529 261.600,248.855 261.435,249.000 261.200 C 249.136 260.980,250.767 260.800,252.624 260.800 C 254.608 260.800,256.000 260.635,256.000 260.400 C 256.000 260.180,256.643 260.000,257.429 260.000 C 258.214 260.000,259.087 259.770,259.369 259.489 C 260.153 258.704,259.146 258.000,257.240 258.000 C 256.364 258.000,255.536 257.820,255.400 257.600 C 255.264 257.380,253.644 257.200,251.800 257.200 C 249.956 257.200,248.336 257.020,248.200 256.800 C 248.057 256.568,245.863 256.400,242.976 256.400 C 239.925 256.400,238.000 256.245,238.000 256.000 C 238.000 255.743,234.141 255.600,227.224 255.600 C 220.471 255.600,216.355 255.451,216.200 255.200 C 216.043 254.946,210.796 254.800,201.776 254.800 C 192.592 254.800,187.600 254.941,187.600 255.200 M155.310 271.900 C 153.496 273.715,151.852 275.200,151.656 275.200 C 151.158 275.200,144.255 282.306,143.947 283.136 C 143.807 283.511,143.222 284.172,142.647 284.604 C 142.071 285.036,141.600 285.667,141.600 286.007 C 141.600 286.346,141.240 286.883,140.800 287.200 C 140.360 287.517,140.000 288.097,140.000 288.488 C 140.000 288.880,139.820 289.200,139.600 289.200 C 139.380 289.200,139.200 289.560,139.200 290.000 C 139.200 290.440,139.020 290.800,138.800 290.800 C 138.580 290.800,138.400 291.340,138.400 292.000 C 138.400 292.660,138.220 293.200,138.000 293.200 C 137.780 293.200,137.600 293.740,137.600 294.400 C 137.600 295.060,137.420 295.600,137.200 295.600 C 136.980 295.600,136.800 296.039,136.800 296.576 C 136.800 297.113,136.620 297.664,136.400 297.800 C 136.180 297.936,136.000 298.656,136.000 299.400 C 136.000 300.144,135.820 300.864,135.600 301.000 C 135.380 301.136,135.200 302.011,135.200 302.944 C 135.200 303.877,134.996 304.844,134.746 305.094 C 134.407 305.433,134.450 305.707,134.917 306.174 C 135.745 307.003,267.893 307.147,268.720 306.320 C 269.302 305.738,269.353 304.142,268.800 303.800 C 268.580 303.664,268.400 302.764,268.400 301.800 C 268.400 300.836,268.220 299.936,268.000 299.800 C 267.780 299.664,267.600 299.111,267.600 298.571 C 267.600 298.031,267.438 297.277,267.239 296.895 C 267.040 296.513,266.653 295.390,266.377 294.400 C 265.725 292.053,262.958 286.229,262.195 285.596 C 261.868 285.324,261.600 284.891,261.600 284.632 C 261.600 284.374,260.880 283.459,260.000 282.600 C 259.120 281.741,258.400 280.856,258.400 280.634 C 258.400 280.089,255.144 276.800,254.604 276.800 C 254.368 276.800,253.106 275.720,251.800 274.400 C 250.494 273.080,249.231 272.000,248.994 272.000 C 248.756 272.000,247.859 271.280,247.000 270.400 L 245.438 268.800 238.942 268.800 C 235.044 268.800,232.348 268.960,232.200 269.200 C 231.869 269.736,172.400 269.754,172.400 269.218 C 172.400 268.995,169.533 268.787,165.505 268.718 L 158.609 268.600 155.310 271.900 M149.400 314.800 C 149.242 315.055,143.727 315.200,134.171 315.200 C 122.953 315.200,118.964 315.325,118.295 315.699 C 116.501 316.698,113.600 319.765,113.600 320.661 C 113.600 321.152,113.420 321.664,113.200 321.800 C 112.971 321.942,112.800 324.004,112.800 326.624 C 112.800 329.408,112.957 331.200,113.200 331.200 C 113.420 331.200,113.600 331.826,113.600 332.591 C 113.600 334.145,116.819 338.000,118.117 338.000 C 118.492 338.000,118.800 338.180,118.800 338.400 C 118.800 338.665,141.925 338.800,187.376 338.800 C 232.663 338.800,256.037 338.664,256.200 338.400 C 256.358 338.145,261.806 338.000,271.229 338.000 C 282.282 338.000,286.237 337.874,286.905 337.502 C 288.744 336.478,292.000 333.034,292.000 332.114 C 292.000 331.611,292.180 331.200,292.400 331.200 C 292.643 331.200,292.800 329.400,292.800 326.600 C 292.800 323.800,292.643 322.000,292.400 322.000 C 292.180 322.000,292.000 321.365,292.000 320.589 C 292.000 318.993,289.654 316.284,287.218 315.069 C 285.626 314.275,149.888 314.010,149.400 314.800 " stroke="none" fill="#fcfcfc" fill-rule="evenodd"></path><path id="path1" d="M194.800 73.600 C 194.800 73.820,193.990 74.000,193.000 74.000 C 192.010 74.000,191.200 74.159,191.200 74.354 C 191.200 74.549,190.213 74.831,189.006 74.982 C 187.800 75.133,186.709 75.423,186.583 75.628 C 186.456 75.833,185.924 76.000,185.400 76.000 C 184.876 76.000,184.336 76.180,184.200 76.400 C 184.064 76.620,183.603 76.800,183.176 76.800 C 182.749 76.800,182.400 76.980,182.400 77.200 C 182.400 77.420,182.040 77.600,181.600 77.600 C 181.160 77.600,180.800 77.780,180.800 78.000 C 180.800 78.220,180.440 78.400,180.000 78.400 C 179.560 78.400,179.200 78.546,179.200 78.725 C 179.200 78.904,178.552 79.305,177.759 79.616 C 176.967 79.927,175.899 80.680,175.385 81.291 C 174.872 81.901,174.258 82.400,174.022 82.400 C 173.515 82.400,164.400 91.432,164.400 91.934 C 164.400 92.122,164.040 92.602,163.600 93.000 C 163.160 93.398,162.800 93.966,162.800 94.262 C 162.800 94.558,162.620 94.800,162.400 94.800 C 162.180 94.800,162.000 95.160,162.000 95.600 C 162.000 96.040,161.820 96.400,161.600 96.400 C 161.380 96.400,161.200 96.760,161.200 97.200 C 161.200 97.640,161.020 98.000,160.800 98.000 C 160.580 98.000,160.400 98.360,160.400 98.800 C 160.400 99.240,160.220 99.600,160.000 99.600 C 159.780 99.600,159.600 99.949,159.600 100.376 C 159.600 100.803,159.433 101.256,159.228 101.383 C 159.023 101.509,158.733 102.600,158.582 103.806 C 158.431 105.013,158.149 106.000,157.954 106.000 C 157.759 106.000,157.600 106.810,157.600 107.800 C 157.600 108.790,157.420 109.600,157.200 109.600 C 156.947 109.600,156.800 112.467,156.800 117.400 C 156.800 122.333,156.947 125.200,157.200 125.200 C 157.420 125.200,157.600 125.920,157.600 126.800 C 157.600 127.680,157.759 128.400,157.954 128.400 C 158.149 128.400,158.431 129.387,158.582 130.594 C 158.733 131.800,159.023 132.891,159.228 133.017 C 159.433 133.144,159.600 133.597,159.600 134.024 C 159.600 134.451,159.780 134.800,160.000 134.800 C 160.220 134.800,160.400 135.160,160.400 135.600 C 160.400 136.040,160.580 136.400,160.800 136.400 C 161.020 136.400,161.200 136.760,161.200 137.200 C 161.200 137.640,161.380 138.000,161.600 138.000 C 161.820 138.000,162.000 138.360,162.000 138.800 C 162.000 139.240,162.180 139.600,162.400 139.600 C 162.620 139.600,162.800 139.830,162.800 140.112 C 162.800 140.393,163.160 140.883,163.600 141.200 C 164.040 141.517,164.400 142.019,164.400 142.314 C 164.400 142.610,165.300 143.729,166.400 144.800 C 168.811 147.148,168.820 147.200,166.800 147.200 C 165.920 147.200,165.200 147.380,165.200 147.600 C 165.200 147.820,164.480 148.000,163.600 148.000 C 162.720 148.000,162.000 148.180,162.000 148.400 C 162.000 148.620,161.676 148.800,161.280 148.800 C 160.386 148.800,158.407 149.694,158.403 150.100 C 158.401 150.265,158.040 150.400,157.600 150.400 C 157.160 150.400,156.800 150.580,156.800 150.800 C 156.800 151.020,156.524 151.200,156.187 151.200 C 154.766 151.200,152.800 153.870,152.800 155.800 C 152.800 157.730,154.766 160.400,156.187 160.400 C 156.524 160.400,156.800 160.580,156.800 160.800 C 156.800 161.020,157.160 161.200,157.600 161.200 C 158.040 161.200,158.400 161.380,158.400 161.600 C 158.400 161.820,158.850 162.000,159.400 162.000 C 159.950 162.000,160.400 162.180,160.400 162.400 C 160.400 162.620,160.940 162.800,161.600 162.800 C 162.260 162.800,162.800 162.980,162.800 163.200 C 162.800 163.420,163.340 163.600,164.000 163.600 C 164.660 163.600,165.200 163.780,165.200 164.000 C 165.200 164.220,165.920 164.400,166.800 164.400 C 167.680 164.400,168.400 164.580,168.400 164.800 C 168.400 165.022,169.467 165.200,170.800 165.200 C 172.133 165.200,173.200 165.378,173.200 165.600 C 173.200 165.820,174.190 166.000,175.400 166.000 C 176.610 166.000,177.600 166.180,177.600 166.400 C 177.600 166.629,178.800 166.800,180.400 166.800 L 183.200 166.800 183.200 169.200 C 183.200 170.533,183.022 171.600,182.800 171.600 C 182.561 171.600,182.400 173.133,182.400 175.400 C 182.400 177.667,182.239 179.200,182.000 179.200 C 181.763 179.200,181.600 180.667,181.600 182.800 C 181.600 184.933,181.437 186.400,181.200 186.400 C 180.971 186.400,180.800 187.600,180.800 189.200 C 180.800 190.800,180.629 192.000,180.400 192.000 C 180.174 192.000,180.000 193.133,180.000 194.600 C 180.000 196.067,179.826 197.200,179.600 197.200 C 179.378 197.200,179.200 198.267,179.200 199.600 C 179.200 200.933,179.022 202.000,178.800 202.000 C 178.580 202.000,178.400 202.900,178.400 204.000 C 178.400 205.100,178.220 206.000,178.000 206.000 C 177.780 206.000,177.600 206.619,177.600 207.376 C 177.600 208.133,177.420 208.864,177.200 209.000 C 176.980 209.136,176.800 209.856,176.800 210.600 C 176.800 211.344,176.620 212.064,176.400 212.200 C 176.180 212.336,176.000 213.031,176.000 213.744 C 176.000 214.457,175.821 215.219,175.602 215.438 C 175.384 215.656,175.088 216.952,174.946 218.318 C 174.803 219.683,174.532 220.800,174.343 220.800 C 174.154 220.800,174.000 221.340,174.000 222.000 C 174.000 222.660,173.820 223.200,173.600 223.200 C 173.380 223.200,173.200 223.639,173.200 224.176 C 173.200 224.713,173.020 225.264,172.800 225.400 C 172.580 225.536,172.400 226.087,172.400 226.624 C 172.400 227.161,172.220 227.600,172.000 227.600 C 171.780 227.600,171.600 227.960,171.600 228.400 C 171.600 228.840,171.420 229.200,171.200 229.200 C 170.980 229.200,170.800 229.740,170.800 230.400 C 170.800 231.060,170.620 231.600,170.400 231.600 C 170.180 231.600,170.000 232.140,170.000 232.800 C 170.000 233.460,169.820 234.000,169.600 234.000 C 169.380 234.000,169.200 234.540,169.200 235.200 C 169.200 235.860,169.020 236.400,168.800 236.400 C 168.580 236.400,168.400 236.760,168.400 237.200 C 168.400 237.640,168.220 238.000,168.000 238.000 C 167.780 238.000,167.600 238.540,167.600 239.200 C 167.600 239.860,167.420 240.400,167.200 240.400 C 166.980 240.400,166.800 240.760,166.800 241.200 C 166.800 241.640,166.620 242.000,166.400 242.000 C 166.180 242.000,166.000 242.450,166.000 243.000 C 166.000 243.550,165.820 244.000,165.600 244.000 C 165.380 244.000,165.200 244.360,165.200 244.800 C 165.200 245.240,165.020 245.600,164.800 245.600 C 164.580 245.600,164.400 246.140,164.400 246.800 L 164.400 248.000 161.000 248.000 C 159.000 248.000,157.600 248.165,157.600 248.400 C 157.600 248.640,156.000 248.800,153.600 248.800 C 151.200 248.800,149.600 248.960,149.600 249.200 C 149.600 249.429,148.400 249.600,146.800 249.600 C 145.200 249.600,144.000 249.771,144.000 250.000 C 144.000 250.220,143.190 250.400,142.200 250.400 C 141.210 250.400,140.400 250.580,140.400 250.800 C 140.400 251.020,139.860 251.200,139.200 251.200 C 138.540 251.200,138.000 251.380,138.000 251.600 C 138.000 251.820,137.640 252.000,137.200 252.000 C 136.430 252.000,136.400 252.267,136.400 259.000 C 136.400 265.733,136.430 266.000,137.200 266.000 C 137.640 266.000,138.000 266.180,138.000 266.400 C 138.000 266.620,138.540 266.800,139.200 266.800 C 139.860 266.800,140.400 266.980,140.400 267.200 C 140.400 267.420,141.210 267.600,142.200 267.600 C 143.190 267.600,144.000 267.780,144.000 268.000 C 144.000 268.220,144.360 268.400,144.800 268.400 C 145.917 268.400,145.834 268.587,143.835 270.586 C 142.864 271.557,141.951 272.723,141.808 273.176 C 141.664 273.629,141.371 274.000,141.156 274.000 C 140.942 274.000,140.500 274.225,140.175 274.500 C 138.046 276.299,137.200 277.181,137.200 277.600 C 137.200 277.863,136.660 278.583,136.000 279.200 C 135.340 279.817,134.800 280.609,134.800 280.960 C 134.800 281.312,134.620 281.600,134.400 281.600 C 134.180 281.600,134.000 281.920,134.000 282.312 C 134.000 282.703,133.640 283.283,133.200 283.600 C 132.760 283.917,132.400 284.497,132.400 284.888 C 132.400 285.280,132.220 285.600,132.000 285.600 C 131.780 285.600,131.600 286.140,131.600 286.800 C 131.600 287.460,131.420 288.000,131.200 288.000 C 130.980 288.000,130.800 288.360,130.800 288.800 C 130.800 289.240,130.620 289.600,130.400 289.600 C 130.180 289.600,130.000 290.140,130.000 290.800 C 130.000 291.460,129.820 292.000,129.600 292.000 C 129.380 292.000,129.200 292.450,129.200 293.000 C 129.200 293.550,129.020 294.000,128.800 294.000 C 128.580 294.000,128.400 294.900,128.400 296.000 C 128.400 297.100,128.220 298.000,128.000 298.000 C 127.780 298.000,127.600 298.720,127.600 299.600 C 127.600 300.480,127.420 301.200,127.200 301.200 C 126.980 301.200,126.800 302.023,126.800 303.029 C 126.800 305.814,126.426 306.000,120.829 306.000 C 116.267 306.000,116.000 306.044,116.000 306.800 C 116.000 307.422,115.733 307.600,114.800 307.600 C 114.140 307.600,113.600 307.777,113.600 307.992 C 113.600 308.208,113.166 308.494,112.634 308.627 C 111.473 308.919,107.600 312.872,107.600 313.766 C 107.600 314.115,107.420 314.400,107.200 314.400 C 106.980 314.400,106.800 314.760,106.800 315.200 C 106.800 315.640,106.620 316.000,106.400 316.000 C 106.180 316.000,106.000 316.360,106.000 316.800 C 106.000 317.240,105.820 317.600,105.600 317.600 C 105.345 317.600,105.200 321.000,105.200 327.000 C 105.200 333.000,105.345 336.400,105.600 336.400 C 105.820 336.400,106.000 336.900,106.000 337.512 C 106.000 338.165,106.330 338.861,106.800 339.200 C 107.240 339.517,107.600 340.000,107.600 340.272 C 107.600 340.991,111.457 344.800,112.184 344.800 C 112.523 344.800,112.800 344.980,112.800 345.200 C 112.800 345.420,113.160 345.600,113.600 345.600 C 114.040 345.600,114.400 345.780,114.400 346.000 C 114.400 346.220,114.760 346.400,115.200 346.400 C 115.640 346.400,116.000 346.580,116.000 346.800 C 116.000 347.065,145.200 347.200,202.800 347.200 C 289.333 347.200,289.600 347.198,289.600 346.400 C 289.600 345.834,289.867 345.600,290.512 345.600 C 291.013 345.600,291.683 345.240,292.000 344.800 C 292.317 344.360,292.813 344.000,293.102 344.000 C 293.390 344.000,294.225 343.415,294.955 342.700 C 295.686 341.985,296.670 341.135,297.142 340.812 C 297.614 340.488,298.000 339.903,298.000 339.512 C 298.000 339.120,298.180 338.800,298.400 338.800 C 298.620 338.800,298.800 338.440,298.800 338.000 C 298.800 337.560,298.980 337.200,299.200 337.200 C 299.420 337.200,299.600 336.840,299.600 336.400 C 299.600 335.960,299.780 335.600,300.000 335.600 C 300.255 335.600,300.400 332.200,300.400 326.200 C 300.400 320.200,300.255 316.800,300.000 316.800 C 299.780 316.800,299.600 316.300,299.600 315.688 C 299.600 315.035,299.270 314.339,298.800 314.000 C 298.360 313.683,298.000 313.181,298.000 312.886 C 298.000 312.068,294.053 308.400,293.173 308.400 C 292.748 308.400,292.400 308.220,292.400 308.000 C 292.400 307.780,292.130 307.600,291.800 307.600 C 291.470 307.600,291.200 307.420,291.200 307.200 C 291.200 306.980,290.840 306.800,290.400 306.800 C 289.960 306.800,289.600 306.620,289.600 306.400 C 289.600 306.151,287.333 306.000,283.600 306.000 C 277.867 306.000,277.600 305.964,277.600 305.200 C 277.600 304.760,277.420 304.400,277.200 304.400 C 276.980 304.400,276.800 303.500,276.800 302.400 C 276.800 301.300,276.620 300.400,276.400 300.400 C 276.180 300.400,276.000 299.500,276.000 298.400 C 276.000 297.300,275.841 296.400,275.646 296.400 C 275.451 296.400,275.163 295.370,275.006 294.111 C 274.849 292.851,274.482 291.481,274.190 291.065 C 273.899 290.649,273.749 290.077,273.857 289.795 C 273.966 289.512,273.862 289.162,273.627 289.017 C 273.392 288.872,273.200 288.403,273.200 287.976 C 273.200 287.549,273.020 287.200,272.800 287.200 C 272.580 287.200,272.400 286.840,272.400 286.400 C 272.400 285.960,272.220 285.600,272.000 285.600 C 271.780 285.600,271.600 285.240,271.600 284.800 C 271.600 284.360,271.420 284.000,271.200 284.000 C 270.980 284.000,270.800 283.640,270.800 283.200 C 270.800 282.760,270.620 282.400,270.400 282.400 C 270.180 282.400,270.000 282.112,270.000 281.760 C 270.000 281.409,269.460 280.617,268.800 280.000 C 268.140 279.383,267.600 278.663,267.600 278.400 C 267.600 278.137,267.060 277.417,266.400 276.800 C 265.740 276.183,265.200 275.567,265.200 275.431 C 265.200 275.000,260.838 270.800,260.391 270.800 C 259.956 270.800,258.000 269.015,258.000 268.618 C 258.000 268.498,258.540 268.400,259.200 268.400 C 259.860 268.400,260.400 268.220,260.400 268.000 C 260.400 267.780,261.300 267.600,262.400 267.600 C 263.500 267.600,264.400 267.420,264.400 267.200 C 264.400 266.980,264.940 266.800,265.600 266.800 C 266.260 266.800,266.800 266.620,266.800 266.400 C 266.800 266.180,267.160 266.000,267.600 266.000 C 268.370 266.000,268.400 265.733,268.400 259.000 C 268.400 252.267,268.370 252.000,267.600 252.000 C 267.160 252.000,266.800 251.820,266.800 251.600 C 266.800 251.380,266.260 251.200,265.600 251.200 C 264.940 251.200,264.400 251.020,264.400 250.800 C 264.400 250.580,263.500 250.400,262.400 250.400 C 261.300 250.400,260.400 250.220,260.400 250.000 C 260.400 249.774,259.267 249.600,257.800 249.600 C 256.333 249.600,255.200 249.426,255.200 249.200 C 255.200 248.958,253.467 248.800,250.800 248.800 C 248.133 248.800,246.400 248.642,246.400 248.400 C 246.400 248.169,245.133 248.000,243.400 248.000 C 240.667 248.000,240.400 247.929,240.400 247.200 C 240.400 246.760,240.220 246.400,240.000 246.400 C 239.780 246.400,239.600 246.045,239.600 245.612 C 239.600 245.179,239.240 244.183,238.800 243.400 C 238.360 242.617,238.000 241.621,238.000 241.188 C 238.000 240.755,237.820 240.400,237.600 240.400 C 237.380 240.400,237.200 240.040,237.200 239.600 C 237.200 239.160,237.020 238.800,236.800 238.800 C 236.580 238.800,236.400 238.260,236.400 237.600 C 236.400 236.940,236.220 236.400,236.000 236.400 C 235.780 236.400,235.600 236.040,235.600 235.600 C 235.600 235.160,235.420 234.800,235.200 234.800 C 234.980 234.800,234.800 234.260,234.800 233.600 C 234.800 232.940,234.620 232.400,234.400 232.400 C 234.180 232.400,234.000 232.040,234.000 231.600 C 234.000 231.160,233.820 230.800,233.600 230.800 C 233.380 230.800,233.200 230.260,233.200 229.600 C 233.200 228.940,233.020 228.400,232.800 228.400 C 232.580 228.400,232.400 227.860,232.400 227.200 C 232.400 226.540,232.220 226.000,232.000 226.000 C 231.780 226.000,231.600 225.550,231.600 225.000 C 231.600 224.450,231.420 224.000,231.200 224.000 C 230.980 224.000,230.800 223.460,230.800 222.800 C 230.800 222.140,230.620 221.600,230.400 221.600 C 230.180 221.600,230.000 221.060,230.000 220.400 C 230.000 219.740,229.820 219.200,229.600 219.200 C 229.380 219.200,229.200 218.660,229.200 218.000 C 229.200 217.340,229.020 216.800,228.800 216.800 C 228.580 216.800,228.400 216.080,228.400 215.200 C 228.400 214.320,228.220 213.600,228.000 213.600 C 227.780 213.600,227.600 212.880,227.600 212.000 C 227.600 211.120,227.420 210.400,227.200 210.400 C 226.980 210.400,226.800 209.770,226.800 209.000 C 226.800 208.230,226.620 207.600,226.400 207.600 C 226.180 207.600,226.000 206.700,226.000 205.600 C 226.000 204.500,225.848 203.600,225.663 203.600 C 225.362 203.600,224.721 198.639,224.137 191.800 C 224.025 190.480,223.768 189.229,223.566 189.020 C 223.365 188.811,223.200 187.337,223.200 185.744 C 223.200 184.151,223.020 182.736,222.800 182.600 C 222.580 182.464,222.400 180.833,222.400 178.976 C 222.400 176.992,222.235 175.600,222.000 175.600 C 221.760 175.600,221.600 174.000,221.600 171.600 C 221.600 169.200,221.440 167.600,221.200 167.600 C 220.980 167.600,220.800 167.420,220.800 167.200 C 220.800 166.965,222.200 166.800,224.200 166.800 C 226.200 166.800,227.600 166.635,227.600 166.400 C 227.600 166.171,228.800 166.000,230.400 166.000 C 232.000 166.000,233.200 165.829,233.200 165.600 C 233.200 165.380,234.100 165.200,235.200 165.200 C 236.300 165.200,237.200 165.020,237.200 164.800 C 237.200 164.580,237.920 164.400,238.800 164.400 C 239.680 164.400,240.400 164.220,240.400 164.000 C 240.400 163.780,241.030 163.600,241.800 163.600 C 242.570 163.600,243.200 163.420,243.200 163.200 C 243.200 162.980,243.740 162.800,244.400 162.800 C 245.060 162.800,245.600 162.620,245.600 162.400 C 245.600 162.180,245.960 162.000,246.400 162.000 C 246.840 162.000,247.200 161.820,247.200 161.600 C 247.200 161.380,247.560 161.200,248.000 161.200 C 248.440 161.200,248.800 161.020,248.800 160.800 C 248.800 160.580,249.076 160.400,249.413 160.400 C 250.834 160.400,252.800 157.730,252.800 155.800 C 252.800 153.870,250.834 151.200,249.413 151.200 C 249.076 151.200,248.800 151.020,248.800 150.800 C 248.800 150.580,248.440 150.400,248.000 150.400 C 247.560 150.400,247.200 150.220,247.200 150.000 C 247.200 149.780,246.660 149.600,246.000 149.600 C 245.340 149.600,244.800 149.420,244.800 149.200 C 244.800 148.980,244.260 148.800,243.600 148.800 C 242.940 148.800,242.400 148.620,242.400 148.400 C 242.400 148.180,241.950 148.000,241.400 148.000 C 240.850 148.000,240.400 147.820,240.400 147.600 C 240.400 147.380,240.040 147.200,239.600 147.200 C 238.526 147.200,238.581 147.003,240.100 145.408 C 242.036 143.375,242.400 142.886,242.400 142.313 C 242.400 142.027,242.760 141.568,243.200 141.293 C 243.640 141.018,244.000 140.525,244.000 140.197 C 244.000 139.868,244.180 139.600,244.400 139.600 C 244.620 139.600,244.800 139.240,244.800 138.800 C 244.800 138.360,244.980 138.000,245.200 138.000 C 245.420 138.000,245.600 137.640,245.600 137.200 C 245.600 136.760,245.780 136.400,246.000 136.400 C 246.220 136.400,246.400 136.040,246.400 135.600 C 246.400 135.160,246.580 134.800,246.800 134.800 C 247.020 134.800,247.200 134.440,247.200 134.000 C 247.200 133.560,247.380 133.200,247.600 133.200 C 247.820 133.200,248.000 132.660,248.000 132.000 C 248.000 131.340,248.180 130.800,248.400 130.800 C 248.620 130.800,248.800 130.260,248.800 129.600 C 248.800 128.940,248.980 128.400,249.200 128.400 C 249.420 128.400,249.600 127.601,249.600 126.624 C 249.600 125.647,249.780 124.736,250.000 124.600 C 250.244 124.449,250.400 121.396,250.400 116.776 C 250.400 111.992,250.253 109.200,250.000 109.200 C 249.780 109.200,249.600 108.480,249.600 107.600 C 249.600 106.720,249.420 106.000,249.200 106.000 C 248.980 106.000,248.800 105.460,248.800 104.800 C 248.800 104.140,248.620 103.600,248.400 103.600 C 248.180 103.600,248.000 103.060,248.000 102.400 C 248.000 101.740,247.820 101.200,247.600 101.200 C 247.380 101.200,247.200 100.840,247.200 100.400 C 247.200 99.960,247.020 99.600,246.800 99.600 C 246.580 99.600,246.400 99.240,246.400 98.800 C 246.400 98.360,246.220 98.000,246.000 98.000 C 245.780 98.000,245.600 97.640,245.600 97.200 C 245.600 96.760,245.420 96.400,245.200 96.400 C 244.980 96.400,244.800 96.040,244.800 95.600 C 244.800 95.160,244.620 94.800,244.400 94.800 C 244.180 94.800,244.000 94.480,244.000 94.088 C 244.000 93.697,243.640 93.117,243.200 92.800 C 242.760 92.483,242.400 92.076,242.400 91.895 C 242.400 91.146,233.835 82.400,233.102 82.400 C 232.813 82.400,232.317 82.040,232.000 81.600 C 231.683 81.160,231.143 80.800,230.800 80.800 C 230.457 80.800,229.917 80.440,229.600 80.000 C 229.283 79.560,228.703 79.200,228.312 79.200 C 227.920 79.200,227.600 79.020,227.600 78.800 C 227.600 78.580,227.255 78.400,226.833 78.400 C 226.412 78.400,226.007 78.265,225.933 78.100 C 225.715 77.609,222.384 76.000,221.586 76.000 C 221.180 76.000,220.744 75.833,220.617 75.628 C 220.491 75.423,219.400 75.133,218.194 74.982 C 216.987 74.831,216.000 74.549,216.000 74.354 C 216.000 74.159,215.100 74.000,214.000 74.000 C 212.900 74.000,212.000 73.820,212.000 73.600 C 212.000 73.346,208.867 73.200,203.400 73.200 C 197.933 73.200,194.800 73.346,194.800 73.600 M207.000 80.800 C 207.136 81.020,208.216 81.200,209.400 81.200 C 210.584 81.200,211.664 81.380,211.800 81.600 C 211.936 81.820,212.656 82.000,213.400 82.000 C 214.144 82.000,214.864 82.180,215.000 82.400 C 215.136 82.620,215.676 82.800,216.200 82.800 C 216.724 82.800,217.264 82.980,217.400 83.200 C 217.536 83.420,218.087 83.600,218.624 83.600 C 219.161 83.600,219.600 83.780,219.600 84.000 C 219.600 84.220,219.960 84.400,220.400 84.400 C 220.840 84.400,221.200 84.580,221.200 84.800 C 221.200 85.020,221.560 85.200,222.000 85.200 C 222.440 85.200,222.800 85.380,222.800 85.600 C 222.800 85.820,223.160 86.000,223.600 86.000 C 224.040 86.000,224.400 86.180,224.400 86.400 C 224.400 86.620,224.639 86.800,224.930 86.800 C 225.222 86.800,225.883 87.250,226.400 87.800 C 226.917 88.350,227.533 88.802,227.770 88.804 C 228.420 88.810,236.000 96.243,236.000 96.874 C 236.000 97.176,236.360 97.683,236.800 98.000 C 237.240 98.317,237.600 98.897,237.600 99.288 C 237.600 99.680,237.780 100.000,238.000 100.000 C 238.220 100.000,238.400 100.360,238.400 100.800 C 238.400 101.240,238.580 101.600,238.800 101.600 C 239.020 101.600,239.200 101.960,239.200 102.400 C 239.200 102.840,239.335 103.201,239.500 103.203 C 239.901 103.207,240.800 105.181,240.800 106.056 C 240.800 106.439,240.980 106.864,241.200 107.000 C 241.420 107.136,241.600 107.676,241.600 108.200 C 241.600 108.724,241.780 109.264,242.000 109.400 C 242.220 109.536,242.400 110.616,242.400 111.800 C 242.400 112.984,242.580 114.064,242.800 114.200 C 243.020 114.336,243.200 115.686,243.200 117.200 C 243.200 118.714,243.020 120.064,242.800 120.200 C 242.580 120.336,242.400 121.416,242.400 122.600 C 242.400 123.784,242.220 124.864,242.000 125.000 C 241.780 125.136,241.600 125.676,241.600 126.200 C 241.600 126.724,241.420 127.264,241.200 127.400 C 240.980 127.536,240.800 128.087,240.800 128.624 C 240.800 129.161,240.620 129.600,240.400 129.600 C 240.180 129.600,240.000 129.960,240.000 130.400 C 240.000 130.840,239.820 131.200,239.600 131.200 C 239.380 131.200,239.200 131.560,239.200 132.000 C 239.200 132.440,239.020 132.800,238.800 132.800 C 238.580 132.800,238.400 133.160,238.400 133.600 C 238.400 134.040,238.220 134.400,238.000 134.400 C 237.780 134.400,237.600 134.720,237.600 135.112 C 237.600 135.503,237.240 136.083,236.800 136.400 C 236.360 136.717,236.000 137.158,236.000 137.381 C 236.000 137.935,228.725 145.200,228.170 145.200 C 227.925 145.200,227.398 145.560,227.000 146.000 C 226.602 146.440,226.074 146.800,225.826 146.800 C 225.579 146.800,225.117 147.160,224.800 147.600 C 224.483 148.040,223.903 148.400,223.512 148.400 C 223.120 148.400,222.800 148.580,222.800 148.800 C 222.800 149.020,222.440 149.200,222.000 149.200 C 221.560 149.200,221.200 149.380,221.200 149.600 C 221.200 149.820,220.840 150.000,220.400 150.000 C 219.960 150.000,219.600 150.180,219.600 150.400 C 219.600 150.620,219.060 150.800,218.400 150.800 C 217.740 150.800,217.200 150.980,217.200 151.200 C 217.200 151.420,216.581 151.600,215.824 151.600 C 215.067 151.600,214.336 151.780,214.200 152.000 C 214.064 152.220,213.524 152.400,213.000 152.400 C 212.476 152.400,211.936 152.580,211.800 152.800 C 211.664 153.020,210.764 153.200,209.800 153.200 C 208.836 153.200,207.936 153.380,207.800 153.600 C 207.663 153.821,205.863 154.000,203.776 154.000 C 201.525 154.000,200.000 153.838,200.000 153.600 C 200.000 153.380,199.100 153.200,198.000 153.200 C 196.900 153.200,196.000 153.020,196.000 152.800 C 196.000 152.580,195.381 152.400,194.624 152.400 C 193.867 152.400,193.136 152.220,193.000 152.000 C 192.864 151.780,192.324 151.600,191.800 151.600 C 191.276 151.600,190.736 151.420,190.600 151.200 C 190.464 150.980,190.040 150.800,189.659 150.800 C 188.900 150.800,182.366 147.622,181.276 146.723 C 180.904 146.416,180.060 145.914,179.400 145.606 C 178.010 144.958,171.200 138.440,171.200 137.757 C 171.200 137.505,170.940 137.082,170.623 136.819 C 169.877 136.200,166.400 129.202,166.400 128.321 C 166.400 127.950,166.220 127.536,166.000 127.400 C 165.780 127.264,165.600 126.724,165.600 126.200 C 165.600 125.676,165.420 125.136,165.200 125.000 C 164.980 124.864,164.800 123.773,164.800 122.576 C 164.800 121.379,164.620 120.400,164.400 120.400 C 164.167 120.400,164.000 119.067,164.000 117.200 C 164.000 115.333,164.167 114.000,164.400 114.000 C 164.620 114.000,164.800 113.021,164.800 111.824 C 164.800 110.627,164.980 109.536,165.200 109.400 C 165.420 109.264,165.600 108.724,165.600 108.200 C 165.600 107.676,165.780 107.136,166.000 107.000 C 166.220 106.864,166.400 106.450,166.400 106.079 C 166.400 105.198,169.877 98.200,170.623 97.581 C 170.940 97.318,171.200 96.902,171.200 96.659 C 171.200 96.077,178.451 88.800,179.030 88.800 C 179.275 88.800,179.795 88.447,180.185 88.016 C 181.018 87.096,189.496 82.800,190.479 82.800 C 190.850 82.800,191.264 82.620,191.400 82.400 C 191.536 82.180,192.447 82.000,193.424 82.000 C 194.401 82.000,195.200 81.820,195.200 81.600 C 195.200 81.378,196.267 81.200,197.600 81.200 C 198.933 81.200,200.000 81.022,200.000 80.800 C 200.000 80.565,201.392 80.400,203.376 80.400 C 205.233 80.400,206.864 80.580,207.000 80.800 M180.439 154.630 C 181.187 154.976,182.492 155.606,183.338 156.030 C 184.184 156.453,185.123 156.800,185.426 156.800 C 185.728 156.800,186.589 157.145,187.339 157.566 C 188.089 157.987,189.092 158.392,189.567 158.466 C 190.043 158.540,190.470 158.780,190.516 159.000 C 190.631 159.550,184.394 159.754,183.858 159.218 C 183.628 158.988,182.137 158.800,180.544 158.800 C 178.951 158.800,177.536 158.620,177.400 158.400 C 177.264 158.180,176.184 158.000,175.000 158.000 C 173.816 158.000,172.736 157.820,172.600 157.600 C 172.464 157.380,171.631 157.200,170.748 157.200 C 169.842 157.200,168.877 156.934,168.532 156.589 C 167.576 155.633,168.552 154.800,170.625 154.800 C 171.575 154.800,172.464 154.620,172.600 154.400 C 173.005 153.745,178.900 153.918,180.439 154.630 M233.000 154.400 C 233.136 154.620,234.011 154.800,234.944 154.800 C 237.081 154.800,237.857 155.453,236.933 156.475 C 236.493 156.960,235.709 157.200,234.562 157.200 C 233.619 157.200,232.736 157.380,232.600 157.600 C 232.464 157.820,231.373 158.000,230.176 158.000 C 228.979 158.000,228.000 158.180,228.000 158.400 C 228.000 158.641,226.360 158.800,223.880 158.800 C 221.491 158.800,219.580 158.980,219.333 159.227 C 218.810 159.750,215.800 159.557,215.800 159.000 C 215.800 158.780,216.340 158.548,217.000 158.484 C 217.660 158.420,219.280 157.857,220.600 157.234 C 221.920 156.610,223.810 155.774,224.800 155.376 C 225.790 154.978,226.771 154.506,226.980 154.326 C 227.524 153.859,232.705 153.922,233.000 154.400 M212.720 166.880 C 213.005 167.165,213.200 168.537,213.200 170.256 C 213.200 171.849,213.380 173.264,213.600 173.400 C 213.820 173.536,214.000 175.246,214.000 177.200 C 214.000 179.154,214.180 180.864,214.400 181.000 C 214.620 181.136,214.800 182.756,214.800 184.600 C 214.800 186.444,214.980 188.064,215.200 188.200 C 215.420 188.336,215.600 189.607,215.600 191.024 C 215.600 192.475,215.775 193.600,216.000 193.600 C 216.225 193.600,216.400 194.725,216.400 196.176 C 216.400 197.593,216.580 198.864,216.800 199.000 C 217.020 199.136,217.200 200.036,217.200 201.000 C 217.200 201.964,217.380 202.864,217.600 203.000 C 217.820 203.136,218.000 204.036,218.000 205.000 C 218.000 205.964,218.180 206.864,218.400 207.000 C 218.620 207.136,218.800 208.036,218.800 209.000 C 218.800 209.964,218.980 210.864,219.200 211.000 C 219.420 211.136,219.600 211.867,219.600 212.624 C 219.600 213.381,219.780 214.000,220.000 214.000 C 220.220 214.000,220.400 214.720,220.400 215.600 C 220.400 216.480,220.580 217.200,220.800 217.200 C 221.020 217.200,221.200 217.560,221.200 218.000 C 221.200 218.440,221.380 218.800,221.600 218.800 C 221.820 218.800,222.000 219.599,222.000 220.576 C 222.000 221.553,222.180 222.464,222.400 222.600 C 222.620 222.736,222.800 223.276,222.800 223.800 C 222.800 224.324,222.980 224.864,223.200 225.000 C 223.420 225.136,223.600 225.676,223.600 226.200 C 223.600 226.724,223.780 227.264,224.000 227.400 C 224.220 227.536,224.400 227.991,224.400 228.411 C 224.400 228.832,224.760 229.817,225.200 230.600 C 225.640 231.383,226.000 232.368,226.000 232.789 C 226.000 233.209,226.180 233.664,226.400 233.800 C 226.620 233.936,226.800 234.376,226.800 234.778 C 226.800 235.180,227.069 236.024,227.398 236.654 C 227.726 237.284,227.996 238.194,227.998 238.676 C 227.999 239.158,228.180 239.664,228.400 239.800 C 228.620 239.936,228.800 240.487,228.800 241.024 C 228.800 241.561,228.980 242.000,229.200 242.000 C 229.420 242.000,229.600 242.360,229.600 242.800 C 229.600 243.240,229.780 243.600,230.000 243.600 C 230.220 243.600,230.400 243.960,230.400 244.400 C 230.400 244.840,230.591 245.200,230.824 245.200 C 231.070 245.200,231.196 245.832,231.124 246.700 L 231.000 248.200 202.351 248.303 C 170.611 248.416,172.075 248.535,173.363 245.953 C 173.713 245.251,174.000 244.440,174.000 244.151 C 174.000 243.861,174.360 242.983,174.800 242.200 C 175.240 241.417,175.600 240.547,175.600 240.268 C 175.600 239.541,176.544 237.607,176.900 237.603 C 177.065 237.601,177.200 237.060,177.200 236.400 C 177.200 235.740,177.380 235.200,177.600 235.200 C 177.820 235.200,178.000 234.660,178.000 234.000 C 178.000 233.340,178.180 232.800,178.400 232.800 C 178.620 232.800,178.800 232.260,178.800 231.600 C 178.800 230.940,178.980 230.400,179.200 230.400 C 179.420 230.400,179.600 229.961,179.600 229.424 C 179.600 228.887,179.780 228.336,180.000 228.200 C 180.220 228.064,180.400 227.524,180.400 227.000 C 180.400 226.476,180.580 225.936,180.800 225.800 C 181.020 225.664,181.200 225.124,181.200 224.600 C 181.200 224.076,181.380 223.536,181.600 223.400 C 181.820 223.264,182.000 222.724,182.000 222.200 C 182.000 221.676,182.180 221.136,182.400 221.000 C 182.620 220.864,182.800 220.324,182.800 219.800 C 182.800 219.276,182.980 218.736,183.200 218.600 C 183.420 218.464,183.600 217.744,183.600 217.000 C 183.600 216.256,183.780 215.536,184.000 215.400 C 184.220 215.264,184.400 214.533,184.400 213.776 C 184.400 213.019,184.580 212.400,184.800 212.400 C 185.020 212.400,185.200 211.680,185.200 210.800 C 185.200 209.920,185.380 209.200,185.600 209.200 C 185.820 209.200,186.000 208.401,186.000 207.424 C 186.000 206.447,186.180 205.536,186.400 205.400 C 186.620 205.264,186.800 204.364,186.800 203.400 C 186.800 202.436,186.980 201.536,187.200 201.400 C 187.420 201.264,187.600 200.184,187.600 199.000 C 187.600 197.816,187.762 196.747,187.959 196.625 C 188.156 196.503,188.448 193.970,188.608 190.995 C 188.767 188.021,189.055 185.489,189.249 185.370 C 189.442 185.251,189.600 183.644,189.600 181.800 C 189.600 179.956,189.780 178.336,190.000 178.200 C 190.223 178.062,190.400 176.204,190.400 174.000 C 190.400 171.796,190.577 169.938,190.800 169.800 C 191.020 169.664,191.200 169.173,191.200 168.708 C 191.200 166.501,191.688 166.400,202.382 166.400 C 209.516 166.400,212.373 166.533,212.720 166.880 M238.180 255.628 C 238.389 255.832,240.673 256.000,243.256 256.000 C 245.956 256.000,248.058 256.170,248.200 256.400 C 248.336 256.620,249.956 256.800,251.800 256.800 C 253.644 256.800,255.264 256.980,255.400 257.200 C 255.536 257.420,256.387 257.600,257.292 257.600 C 259.510 257.600,260.701 258.604,259.741 259.665 C 259.364 260.082,258.531 260.400,257.818 260.400 C 257.126 260.400,256.388 260.572,256.178 260.782 C 255.968 260.992,251.966 261.290,247.283 261.444 C 242.601 261.599,238.676 261.877,238.561 262.062 C 238.447 262.248,233.694 262.400,228.000 262.400 C 221.530 262.400,217.555 262.550,217.400 262.800 C 217.243 263.055,211.937 263.200,202.800 263.200 C 193.663 263.200,188.357 263.055,188.200 262.800 C 188.045 262.549,183.937 262.400,177.200 262.400 C 171.286 262.400,166.353 262.247,166.238 262.061 C 166.122 261.874,162.377 261.594,157.914 261.438 C 153.451 261.282,149.629 260.984,149.420 260.777 C 149.211 260.570,148.325 260.400,147.451 260.400 C 145.289 260.400,144.111 259.383,145.059 258.335 C 145.447 257.906,146.271 257.600,147.038 257.600 C 147.761 257.600,148.464 257.420,148.600 257.200 C 148.736 256.980,150.356 256.800,152.200 256.800 C 154.044 256.800,155.664 256.620,155.800 256.400 C 155.944 256.167,158.177 256.000,161.144 256.000 C 163.948 256.000,166.417 255.823,166.633 255.607 C 167.430 254.810,237.366 254.830,238.180 255.628 M166.280 268.800 C 170.360 268.800,172.800 268.950,172.800 269.200 C 172.800 269.463,182.859 269.600,202.176 269.600 C 221.329 269.600,231.639 269.461,231.800 269.200 C 231.949 268.958,234.777 268.800,238.942 268.800 L 245.838 268.800 247.400 270.400 C 248.259 271.280,249.157 272.000,249.395 272.000 C 249.633 272.000,250.805 272.990,252.000 274.200 C 253.195 275.410,254.353 276.400,254.573 276.400 C 255.119 276.400,258.800 280.063,258.800 280.606 C 258.800 280.847,259.430 281.654,260.200 282.400 C 260.970 283.146,261.600 283.970,261.600 284.229 C 261.600 284.489,261.860 284.918,262.177 285.181 C 262.934 285.809,266.400 292.804,266.400 293.703 C 266.400 294.086,266.580 294.400,266.800 294.400 C 267.020 294.400,267.200 294.940,267.200 295.600 C 267.200 296.260,267.380 296.800,267.600 296.800 C 267.820 296.800,268.000 297.520,268.000 298.400 C 268.000 299.280,268.180 300.000,268.400 300.000 C 268.620 300.000,268.800 300.799,268.800 301.776 C 268.800 302.753,268.980 303.664,269.200 303.800 C 269.818 304.182,269.673 305.656,268.938 306.469 C 268.030 307.471,135.972 307.629,134.971 306.629 C 134.308 305.965,134.223 304.957,134.800 304.600 C 135.020 304.464,135.200 303.564,135.200 302.600 C 135.200 301.636,135.380 300.736,135.600 300.600 C 135.820 300.464,136.000 299.744,136.000 299.000 C 136.000 298.256,136.180 297.536,136.400 297.400 C 136.620 297.264,136.800 296.724,136.800 296.200 C 136.800 295.676,136.980 295.136,137.200 295.000 C 137.420 294.864,137.600 294.324,137.600 293.800 C 137.600 293.276,137.780 292.736,138.000 292.600 C 138.220 292.464,138.400 292.009,138.400 291.589 C 138.400 290.668,139.826 287.842,140.626 287.178 C 140.942 286.916,141.201 286.499,141.202 286.251 C 141.203 286.003,141.743 285.225,142.402 284.522 C 143.061 283.819,143.600 283.083,143.600 282.886 C 143.600 282.383,151.288 274.800,151.798 274.800 C 152.029 274.800,153.737 273.273,155.594 271.406 C 157.814 269.175,159.106 268.146,159.366 268.406 C 159.593 268.633,162.528 268.800,166.280 268.800 M286.800 314.400 C 286.800 314.620,287.086 314.800,287.435 314.800 C 288.691 314.800,292.400 319.173,292.400 320.654 C 292.400 321.394,292.580 322.000,292.800 322.000 C 293.042 322.000,293.200 323.725,293.200 326.376 C 293.200 328.863,293.027 330.860,292.800 331.000 C 292.580 331.136,292.400 331.655,292.400 332.153 C 292.400 333.176,288.326 337.600,287.383 337.600 C 287.062 337.600,286.800 337.780,286.800 338.000 C 286.800 338.260,281.475 338.400,271.624 338.400 C 261.937 338.400,256.358 338.545,256.200 338.800 C 255.803 339.443,119.447 339.344,118.295 338.700 C 115.992 337.413,113.200 334.084,113.200 332.626 C 113.200 331.842,113.020 331.200,112.800 331.200 C 112.557 331.200,112.400 329.408,112.400 326.624 C 112.400 324.004,112.571 321.942,112.800 321.800 C 113.020 321.664,113.200 321.152,113.200 320.663 C 113.200 319.766,116.487 316.305,118.295 315.298 C 118.964 314.925,122.964 314.800,134.195 314.800 C 143.932 314.800,149.200 314.660,149.200 314.400 C 149.200 314.135,172.400 314.000,218.000 314.000 C 263.600 314.000,286.800 314.135,286.800 314.400 " stroke="none" fill="#040404" fill-rule="evenodd"></path><path id="path2" d="" stroke="none" fill="#bc10080" fill-rule="evenodd"></path><path id="path3" d="" stroke="none" fill="#bc10080" fill-rule="evenodd"></path><path id="path4" d="" stroke="none" fill="#bc10080" fill-rule="evenodd"></path></g></svg>