<?xml version="1.0" encoding="UTF-8"?>
<!DOCTYPE svg PUBLIC "-//W3C//DTD SVG 1.1//EN" "http://www.w3.org/Graphics/SVG/1.1/DTD/svg11.dtd">
<svg xmlns="http://www.w3.org/2000/svg" version="1.1" width="512px" height="512px" style="shape-rendering:geometricPrecision; text-rendering:geometricPrecision; image-rendering:optimizeQuality; fill-rule:evenodd; clip-rule:evenodd" xmlns:xlink="http://www.w3.org/1999/xlink">
<g><path style="opacity:0.987" fill="#000000" d="M 131.5,51.5 C 150.833,51.5 170.167,51.5 189.5,51.5C 189.5,64.5 189.5,77.5 189.5,90.5C 202.833,90.5 216.167,90.5 229.5,90.5C 229.5,77.5 229.5,64.5 229.5,51.5C 249.833,51.5 270.167,51.5 290.5,51.5C 290.5,64.5 290.5,77.5 290.5,90.5C 304.5,90.5 318.5,90.5 332.5,90.5C 332.5,77.5 332.5,64.5 332.5,51.5C 352.167,51.5 371.833,51.5 391.5,51.5C 392.731,68.2453 388.231,83.2453 378,96.5C 363.336,113.838 345.336,126.505 324,134.5C 323.324,139.871 323.491,145.204 324.5,150.5C 328.676,150.168 332.176,151.502 335,154.5C 336.959,158.669 338.459,163.002 339.5,167.5C 344.11,168.856 348.777,170.022 353.5,171C 360.649,175.522 361.315,180.855 355.5,187C 350.036,189.126 344.369,190.293 338.5,190.5C 337.063,244.052 341.73,297.052 352.5,349.5C 363.173,350.167 373.84,351.001 384.5,352C 393.164,351.988 396.664,356.155 395,364.5C 393.891,366.815 392.057,368.315 389.5,369C 381.538,370.263 373.538,371.263 365.5,372C 382.171,390.722 383.838,410.722 370.5,432C 375.916,432.159 381.25,432.826 386.5,434C 390.313,436.124 392.813,439.291 394,443.5C 394.667,450.167 394.667,456.833 394,463.5C 392.813,467.709 390.313,470.876 386.5,473C 298.89,474.659 211.223,474.992 123.5,474C 118,472.5 114.5,469 113,463.5C 112.333,456.833 112.333,450.167 113,443.5C 116.693,434.461 123.526,430.628 133.5,432C 122.215,409.351 125.881,389.351 144.5,372C 137.488,371.066 130.488,370.066 123.5,369C 117.155,365.967 115.655,361.467 119,355.5C 120.419,354.54 121.919,353.707 123.5,353C 133.759,351.296 144.093,350.296 154.5,350C 156.402,349.801 157.902,348.967 159,347.5C 171.273,295.872 178.107,243.539 179.5,190.5C 173.981,190.163 168.648,188.996 163.5,187C 158.167,182 158.167,177 163.5,172C 168.334,170.133 173.334,168.966 178.5,168.5C 179.255,163.4 181.088,158.734 184,154.5C 187.544,152.733 190.877,150.733 194,148.5C 194.667,143.167 194.667,137.833 194,132.5C 176.432,125.049 161.098,114.382 148,100.5C 136.215,86.3118 130.715,69.9785 131.5,51.5 Z"/></g>
<g><path style="opacity:1" fill="#fefffe" d="M 142.5,61.5 C 154.833,61.5 167.167,61.5 179.5,61.5C 179.5,74.5 179.5,87.5 179.5,100.5C 199.5,100.5 219.5,100.5 239.5,100.5C 239.5,87.5 239.5,74.5 239.5,61.5C 253.167,61.5 266.833,61.5 280.5,61.5C 280.5,74.5 280.5,87.5 280.5,100.5C 301.167,100.5 321.833,100.5 342.5,100.5C 342.5,87.5 342.5,74.5 342.5,61.5C 355.167,61.5 367.833,61.5 380.5,61.5C 377.708,78.9162 369.375,93.0828 355.5,104C 327.593,124.246 296.259,134.412 261.5,134.5C 226.741,134.412 195.407,124.246 167.5,104C 153.625,93.0828 145.292,78.9162 142.5,61.5 Z"/></g>
<g><path style="opacity:1" fill="#000000" d="M 159.5,71.5 C 162.636,77.7726 165.803,84.1059 169,90.5C 175.705,100.197 184.539,107.364 195.5,112C 202.091,114.531 208.758,116.864 215.5,119C 214.95,120.845 213.95,122.345 212.5,123.5C 195.827,119.251 181.327,111.251 169,99.5C 163.324,91.6495 158.824,83.1495 155.5,74C 156.858,73.0656 158.192,72.2323 159.5,71.5 Z"/></g>
<g><path style="opacity:1" fill="#fefffe" d="M 204.5,136.5 C 232.348,144.506 260.681,146.673 289.5,143C 297.529,141.867 305.362,140.034 313,137.5C 312.904,144.488 314.238,151.155 317,157.5C 320.173,159.613 323.673,160.613 327.5,160.5C 327.993,162.806 328.326,165.139 328.5,167.5C 282.171,164.84 235.837,164.84 189.5,167.5C 189.565,165.304 190.232,163.304 191.5,161.5C 196.511,160.42 200.344,157.754 203,153.5C 204.289,147.912 204.789,142.245 204.5,136.5 Z"/></g>
<g><path style="opacity:1" fill="#fefffe" d="M 189.5,191.5 C 235.84,194.16 282.173,194.16 328.5,191.5C 327.064,244.397 331.73,296.73 342.5,348.5C 340.833,348.833 339.167,349.167 337.5,349.5C 281.163,348.364 224.829,348.197 168.5,349C 181.23,297.262 188.23,244.762 189.5,191.5 Z"/></g>
<g><path style="opacity:1" fill="#000000" d="M 202.5,203.5 C 204.167,203.5 205.833,203.5 207.5,203.5C 207.999,247.847 202.832,291.514 192,334.5C 190.599,336.192 188.766,336.859 186.5,336.5C 197.66,292.886 202.993,248.553 202.5,203.5 Z"/></g>
<g><path style="opacity:1" fill="#fefffe" d="M 157.5,372.5 C 222.171,373.649 286.837,373.816 351.5,373C 372.751,390.315 375.084,409.981 358.5,432C 287.167,432.667 215.833,432.667 144.5,432C 134.612,417.797 134.112,403.297 143,388.5C 147.671,382.997 152.504,377.664 157.5,372.5 Z"/></g>
<g><path style="opacity:1" fill="#000000" d="M 169.5,379.5 C 171.255,380.072 172.922,380.906 174.5,382C 165.226,389.88 159.893,399.88 158.5,412C 159.215,416.837 159.882,421.67 160.5,426.5C 158.833,426.5 157.167,426.5 155.5,426.5C 151.998,414.183 153.498,402.516 160,391.5C 163.381,387.625 166.547,383.625 169.5,379.5 Z"/></g>
<g><path style="opacity:1" fill="#fefffe" d="M 125.5,442.5 C 210.834,442.333 296.167,442.5 381.5,443C 382.667,443.5 383.5,444.333 384,445.5C 384.667,450.833 384.667,456.167 384,461.5C 383.5,462.667 382.667,463.5 381.5,464C 296.167,464.667 210.833,464.667 125.5,464C 124.333,463.5 123.5,462.667 123,461.5C 122.333,456.167 122.333,450.833 123,445.5C 123.698,444.309 124.531,443.309 125.5,442.5 Z"/></g>
</svg>
